<?xml version="1.0" encoding="iso-8859-1"?>
<!-- Generator: Adobe Illustrator 19.0.0, SVG Export Plug-In . SVG Version: 6.00 Build 0)  -->
<svg version="1.1" id="Capa_1" xmlns="http://www.w3.org/2000/svg" xmlns:xlink="http://www.w3.org/1999/xlink" x="0px" y="0px"
	 viewBox="0 0 512 512" style="enable-background:new 0 0 512 512;" xml:space="preserve">
<path style="fill:#C86D5C;" d="M69.019,188.139l-0.014,0.003c0,0.001,0,0.002,0,0.003l-17.635,9.096l4.4,32.5l15.938,0.524
	l0.003,0.001l1.66-1.185c0,0,32.645-8.241,48.574-40.944H69.019V188.139z"/>
<polygon style="fill:#00A6C8;" points="369.66,357.4 142.34,357.4 109.204,436.786 142.34,497.22 369.66,497.22 402.796,436.786 "/>
<g>
	<path style="fill:#F0F0F0;" d="M133.528,350.378c-15.696,18.706-35.015,48.917-42.538,86.406l0,0l0,0l0,0l0,0l25.675,12.602
		l25.675-12.602l0,0V357.4l3.213-14.438L133.528,350.378z"/>
	<path style="fill:#F0F0F0;" d="M378.472,350.378c15.696,18.706,35.015,48.917,42.538,86.406l0,0l0,0l0,0l0,0l-25.675,12.602
		l-25.675-12.602l0,0V357.4l-3.213-14.438L378.472,350.378z"/>
</g>
<path style="fill:#C86D5C;" d="M442.98,188.139h-52.926c15.929,32.703,48.574,40.944,48.574,40.944l1.718,0.485l18.655-5.805
	L442.98,188.139z"/>
<path style="fill:#FFCE1C;" d="M437.143,113.677H74.857C111.802,54.473,179.178,14.781,256,14.781S400.198,54.473,437.143,113.677z"
	/>
<path style="fill:#FAA330;" d="M291,17.575c-11.387-1.836-23.08-2.793-35-2.793c-76.821,0-144.198,39.692-181.143,98.896h70
	C176.069,63.66,229.002,27.571,291,17.575z"/>
<g>
	<path style="fill:#B24D40;" d="M442.98,188.139h-52.926c5.27,10.82,12.37,18.948,19.512,25h44.657L442.98,188.139z"/>
	<path style="fill:#B24D40;" d="M69.006,188.143c0,0.001,0,0.002,0,0.003l-17.635,9.096l2.152,15.897h48.91
		c7.142-6.052,14.242-14.18,19.512-25H69.019L69.006,188.143z"/>
</g>
<g>
	<path style="fill:#E3B098;" d="M442.994,188.142c-0.238,20.652-2.649,41.426-2.649,41.426l-15.818,17.917l8.136,22.328
		c1.949,0.283,3.939,0.438,5.966,0.438c22.739,0,41.171-18.433,41.171-41.171C479.801,207.818,463.681,190.323,442.994,188.142z"/>
	<path style="fill:#E3B098;" d="M71.709,230.267l-0.055-0.699c0,0-2.411-20.774-2.649-41.426
		c-20.686,2.181-36.807,19.675-36.807,40.939c0,22.738,18.433,41.171,41.171,41.171c2.03,0,4.023-0.155,5.974-0.439l11.646-24.994
		L71.709,230.267z"/>
</g>
<path style="fill:#FBC4AC;" d="M438.628,229.083c0,0-32.645-8.241-48.574-40.944l-134.025-19.757l-134.083,19.757
	c-15.929,32.703-48.574,40.944-48.574,40.944l-1.718,0.485l0.055,0.699l0.003,0.001C78.294,322.203,158.28,394.822,256,394.822
	c97.963,0,178.114-72.987,184.346-165.253L438.628,229.083z"/>
<g>
	<path style="fill:#F98084;" d="M369.656,287.599h-26.58c-4.142,0-7.5-3.358-7.5-7.5s3.358-7.5,7.5-7.5h26.58
		c4.142,0,7.5,3.358,7.5,7.5S373.798,287.599,369.656,287.599z"/>
	<path style="fill:#F98084;" d="M168.924,287.599h-26.58c-4.142,0-7.5-3.358-7.5-7.5s3.358-7.5,7.5-7.5h26.58
		c4.142,0,7.5,3.358,7.5,7.5S173.066,287.599,168.924,287.599z"/>
</g>
<path style="fill:#FF5E6B;" d="M454.324,148.253H57.676c4.601-12.105,10.377-23.675,17.181-34.576h362.286
	C443.947,124.576,449.723,136.148,454.324,148.253z"/>
<path style="fill:#E63E4C;" d="M74.857,113.677c-6.805,10.901-12.58,22.472-17.181,34.576h70
	c4.601-12.104,10.377-23.675,17.181-34.576C144.857,113.676,74.857,113.676,74.857,113.677z"/>
<g>
	<path style="fill:#42C3E2;" d="M142.344,357.4v90.37c0,11.352,9.203,20.555,20.555,20.555l0,0c11.352,0,20.555-9.203,20.555-20.555
		v-67.11C168.658,374.605,154.854,366.758,142.344,357.4z"/>
	<path style="fill:#42C3E2;" d="M328.546,380.658v67.113c0,11.352,9.203,20.555,20.555,20.555l0,0
		c11.352,0,20.555-9.203,20.555-20.555v-90.366C357.146,366.761,343.341,374.603,328.546,380.658z"/>
</g>
<path style="fill:#F0F0F0;" d="M256,394.82c-25.75,0-50.265-5.047-72.533-14.156c6.542,34.105,36.52,59.88,72.533,59.88
	c36.014,0,65.992-25.776,72.534-59.883C306.264,389.771,281.749,394.82,256,394.82z"/>
<path style="fill:#E3B098;" d="M121.946,188.139c-5.27,10.819-12.37,18.948-19.512,25h307.132c-7.142-6.052-14.242-14.181-19.512-25
	l-134.025-19.757L121.946,188.139z"/>
<path style="fill:#FFCE1C;" d="M504.5,168.201c0,11.008-8.93,19.938-19.948,19.938H27.448c-11.017,0-19.948-8.93-19.948-19.938
	c0-11.017,8.93-19.948,19.948-19.948h457.104C495.569,148.253,504.5,157.183,504.5,168.201z"/>
<path style="fill:#FAA330;" d="M77.5,168.201c0-11.018,8.93-19.948,19.948-19.948h-70c-11.018,0-19.948,8.93-19.948,19.948
	c0,11.008,8.93,19.938,19.948,19.938h70C86.43,188.139,77.5,179.208,77.5,168.201z"/>
<g>
	<path style="fill:#FBC4AC;" d="M88.476,497.22h53.864v-60.436H90.99c-0.32,1.524-0.612,3.067-0.883,4.63
		C87.175,458.217,86.292,476.816,88.476,497.22z"/>
	<path style="fill:#FBC4AC;" d="M423.524,497.22H369.66v-60.436h51.35c0.32,1.524,0.612,3.067,0.883,4.63
		C424.825,458.217,425.708,476.816,423.524,497.22z"/>
</g>
<path d="M356.366,258.916c4.142,0,7.5-3.358,7.5-7.5V231.9c0-4.142-3.358-7.5-7.5-7.5s-7.5,3.358-7.5,7.5v19.515
	C348.866,255.558,352.224,258.916,356.366,258.916z"/>
<path d="M155.634,258.916c4.142,0,7.5-3.358,7.5-7.5V231.9c0-4.142-3.358-7.5-7.5-7.5s-7.5,3.358-7.5,7.5v19.515
	C148.134,255.558,151.492,258.916,155.634,258.916z"/>
<path d="M278.887,265.408c-3.119-2.726-7.856-2.408-10.583,0.711c-2.987,3.418-7.472,5.378-12.304,5.378
	c-4.833,0-9.317-1.96-12.305-5.378c-2.726-3.119-7.464-3.437-10.583-0.711s-3.437,7.464-0.711,10.583
	c5.836,6.677,14.438,10.506,23.599,10.506c9.161,0,17.762-3.829,23.598-10.506C282.324,272.872,282.006,268.133,278.887,265.408z"/>
<circle cx="349.1" cy="443.09" r="6.3"/>
<circle cx="162.9" cy="443.09" r="6.3"/>
<path d="M512,168.201c0-15.135-12.313-27.448-27.448-27.448h-25.129c-4.393-10.718-9.734-21.142-15.919-31.05
	c-19.128-30.65-46.212-56.317-78.326-74.226C332.1,17.031,294.347,7.281,256,7.281s-76.1,9.75-109.178,28.196
	c-32.113,17.908-59.198,43.575-78.327,74.228c-6.183,9.905-11.524,20.329-15.918,31.048H27.448C12.313,140.753,0,153.066,0,168.201
	c0,15.129,12.313,27.438,27.448,27.438h10.515c-8.256,8.745-13.264,20.532-13.264,33.442c0,26.837,21.833,48.671,48.671,48.671
	c0.238,0,0.479-0.01,0.719-0.014c9.866,27.674,26.581,52.864,49.102,73.504c-13.097,16.803-31.944,46.245-39.539,83.995
	c-5.045,20.047-4.818,42.377-2.633,62.781c0.408,3.812,3.625,6.702,7.458,6.702h335.048c3.833,0,7.049-2.89,7.458-6.702
	c2.137-19.95,2.853-43.455-2.732-63.275c-7.656-37.506-26.398-66.769-39.439-83.5c22.531-20.649,39.24-45.837,49.105-73.505
	c0.239,0.004,0.478,0.014,0.716,0.014c26.837,0,48.671-21.834,48.671-48.671c0-12.91-5.008-24.697-13.264-33.442h10.515
	C499.687,195.639,512,183.329,512,168.201z M79.069,121.176h51.389c4.142,0,7.5-3.358,7.5-7.5s-3.358-7.5-7.5-7.5h-41.5
	c17.061-23.457,39.368-43.21,65.17-57.599C184.978,31.375,220.204,22.281,256,22.281c35.795,0,71.022,9.093,101.872,26.296
	c25.802,14.389,48.109,34.142,65.17,57.599H160.458c-4.142,0-7.5,3.358-7.5,7.5s3.358,7.5,7.5,7.5h272.473
	c3.771,6.339,7.172,12.886,10.174,19.577H68.895C71.897,134.061,75.298,127.515,79.069,121.176z M108.209,196.195
	c-7.684,10.094-18.115,17.976-29.714,23.046c-0.105,0.046-0.208,0.09-0.311,0.135c0.288-0.124-0.504-6.145-0.549-6.745
	c-0.42-5.627-0.757-11.264-0.947-16.904c-0.001-0.029-0.002-0.059-0.003-0.088h31.942
	C108.488,195.825,108.349,196.01,108.209,196.195z M39.699,229.081c0-14.449,9.046-26.88,22.042-31.599
	c0.349,9.276,1.013,18.545,1.92,27.782c1.23,12.534,2.611,25.038,5.768,37.258C52.712,260.564,39.699,246.314,39.699,229.081z
	 M198.156,393.829c18.714,5.652,38.301,8.491,57.844,8.491c19.351,0,39.057-2.818,57.73-8.46c0.575-0.173,2.76-0.851,3.278-1.018
	c-10.264,23.944-34.063,40.203-61.007,40.203s-50.742-16.258-61.007-40.2C196.045,393.181,197.099,393.51,198.156,393.829z
	 M336.046,385.628c9.041-3.973,17.771-8.625,26.11-13.933v76.074c0,7.198-5.856,13.055-13.055,13.055
	c-7.198,0-13.055-5.856-13.055-13.055L336.046,385.628L336.046,385.628z M149.844,371.697c8.339,5.307,17.069,9.955,26.109,13.927
	v62.145c0,7.198-5.856,13.055-13.055,13.055s-13.055-5.856-13.055-13.055v-76.072H149.844z M134.639,360.951
	c0.067,0.053,0.134,0.107,0.201,0.16v68.174h-34.43C108.274,399.042,123.565,375.243,134.639,360.951z M97.227,444.284h37.614
	v45.436H95.325C94.169,474.188,94.806,458.941,97.227,444.284z M149.84,472.589c3.903,2.062,8.345,3.235,13.059,3.235
	c15.469,0,28.055-12.585,28.055-28.055V415.53c14.99,19.908,38.794,32.514,65.046,32.514s50.056-12.605,65.046-32.514v32.238
	c0,15.47,12.585,28.055,28.055,28.055c4.713,0,9.156-1.173,13.059-3.235v17.131H149.84V472.589z M416.675,489.72H377.16v-45.436
	h37.613C417.194,458.939,417.831,474.188,416.675,489.72z M377.16,429.284v-68.172c0.068-0.053,0.135-0.106,0.203-0.159
	c11.073,14.293,26.363,38.091,34.227,68.332h-34.43V429.284z M268.715,386.886c-0.015,0.001-0.03,0.002-0.044,0.003
	c-18.143,1.233-36.499-0.186-54.224-4.252c-58.091-13.333-110.937-56.729-127.913-114.933c-0.017-0.059-0.027-0.118-0.046-0.177
	c-2.917-9.212-5.23-18.761-6.339-28.372c-0.184-1.4-0.344-2.803-0.491-4.208c2.424-0.863,4.803-1.866,7.135-2.95
	c11.62-5.403,22.155-13.262,30.451-23.045c3.501-4.128,6.606-8.588,9.244-13.313h259.025c0.283,0.506,0.574,0.996,0.864,1.49
	c9.728,16.619,25.276,29.535,43.085,36.72c0.83,0.335,2.714,1.039,2.813,1.074c0.023,0.008,0.048,0.018,0.07,0.026
	c-0.3,2.87-0.666,5.732-1.119,8.583c-1.252,7.895-3.094,15.701-5.501,23.323C404.835,333.011,342.661,381.828,268.715,386.886z
	 M435.275,196.385c-0.285,7.675-0.786,15.339-1.459,22.989c-7.687-3.31-20.522-10.412-30.442-23.735h31.941
	C435.305,195.639,435.29,195.967,435.275,196.385z M442.579,262.521c1.02-3.947,1.907-7.933,2.654-11.954
	c1.24-6.725,1.801-13.537,2.584-20.323c0.219-1.917,1.813-16.308,2.442-32.785c12.996,4.742,22.042,17.173,22.042,31.622
	C472.301,246.311,459.291,260.559,442.579,262.521z M484.552,180.639H27.448c-6.864,0-12.448-5.58-12.448-12.438
	c0-6.864,5.584-12.448,12.448-12.448h457.104c6.864,0,12.448,5.584,12.448,12.448C497,175.059,491.416,180.639,484.552,180.639z"/>
<g>
</g>
<g>
</g>
<g>
</g>
<g>
</g>
<g>
</g>
<g>
</g>
<g>
</g>
<g>
</g>
<g>
</g>
<g>
</g>
<g>
</g>
<g>
</g>
<g>
</g>
<g>
</g>
<g>
</g>
</svg>
