<?xml version="1.0" encoding="iso-8859-1"?>
<!-- Generator: Adobe Illustrator 19.0.0, SVG Export Plug-In . SVG Version: 6.00 Build 0)  -->
<svg version="1.1" id="Capa_1" xmlns="http://www.w3.org/2000/svg" xmlns:xlink="http://www.w3.org/1999/xlink" x="0px" y="0px"
	 viewBox="0 0 512.001 512.001" style="enable-background:new 0 0 512.001 512.001;" xml:space="preserve">
<path style="fill:#C86D5C;" d="M62.83,168.196v147.56c0,46.097,37.369,83.465,83.465,83.465h219.409
	c46.097,0,83.465-37.369,83.465-83.465v-147.56H62.83z"/>
<polygon style="fill:#FAA330;" points="369.66,357.4 369.66,357.4 142.34,357.4 142.34,357.4 116.665,394.821 116.665,463.655 
	142.34,497.221 369.66,497.221 395.335,427.311 "/>
<path style="fill:#E63E4C;" d="M437.143,113.677l-50.186-33.089H155.634l-80.777,33.089c-6.805,10.901-12.58,22.472-17.181,34.576
	l19.086,11.976H432.51l21.814-11.976C449.723,136.148,443.947,124.577,437.143,113.677z"/>
<path style="fill:#FFCE1C;" d="M437.143,113.676H74.857C111.802,54.473,179.178,14.781,256,14.781S400.198,54.473,437.143,113.676z"
	/>
<path style="fill:#FAA330;" d="M281,16.199c-8.2-0.936-16.543-1.417-25-1.417c-76.821,0-144.198,39.692-181.143,98.895h50
	C157.735,60.991,214.713,23.758,281,16.199z"/>
<rect x="62.83" y="168.191" style="fill:#B24D40;" width="386.34" height="44.943"/>
<g>
	<path style="fill:#E3B098;" d="M71.654,229.569L71.654,229.569c0-0.001-2.411-20.775-2.649-41.426
		c-20.686,2.181-36.807,19.675-36.807,40.939c0,22.738,18.433,41.171,41.171,41.171c2.03,0,4.023-0.155,5.974-0.439l7.103-28.154
		L71.654,229.569z"/>
	<path style="fill:#E3B098;" d="M442.994,188.142c-0.238,20.652-2.649,41.426-2.649,41.426l0,0l-13.71,19.292l6.028,20.953
		c1.949,0.283,3.939,0.438,5.966,0.438c22.739,0,41.171-18.433,41.171-41.171C479.801,207.818,463.681,190.323,442.994,188.142z"/>
</g>
<g>
	<path style="fill:#FFCE1C;" d="M183.467,380.665l-18.916-26.702l-22.211,3.438l0.004,0.005v90.364
		c0,11.352,9.203,20.555,20.555,20.555l0,0c11.352,0,20.555-9.203,20.555-20.555v-67.098L183.467,380.665z"/>
	<path style="fill:#FFCE1C;" d="M369.66,357.4l-20.559-3.438l-20.567,26.7l0.013,0.001v67.106c0,11.352,9.203,20.555,20.555,20.555
		l0,0c11.352,0,20.555-9.203,20.555-20.555v-90.363L369.66,357.4z"/>
</g>
<g>
	<path style="fill:#FF5E6B;" d="M183.467,380.665c6.542,34.105,36.52,59.88,72.533,59.88c36.014,0,65.992-25.776,72.534-59.883
		L183.467,380.665z"/>
	<path style="fill:#FF5E6B;" d="M133.528,350.379c-15.696,18.706-35.015,48.917-42.538,86.406l0,0l0,0l0,0l0,0l25.675,12.602
		l25.675-12.602l0,0v-79.384l3.213-14.438L133.528,350.379z"/>
	<path style="fill:#FF5E6B;" d="M421.01,436.785L421.01,436.785L421.01,436.785c-7.523-37.489-26.842-67.7-42.538-86.406
		l-12.026-7.416l3.213,14.438v79.384l0,0l25.675,12.602L421.01,436.785L421.01,436.785L421.01,436.785z"/>
</g>
<path style="fill:#FBC4AC;" d="M438.628,229.083c0,0-32.645-8.241-48.574-40.944L256,170.316l-134.054,17.823
	c-15.929,32.703-48.574,40.944-48.574,40.944l-1.718,0.485l0.055,0.699l0.003,0.001C78.294,322.203,158.28,394.821,256,394.821
	c97.963,0,178.114-72.987,184.346-165.252L438.628,229.083z"/>
<g>
	<path style="fill:#F98084;" d="M369.656,287.6h-26.58c-4.143,0-7.5-3.358-7.5-7.5s3.357-7.5,7.5-7.5h26.58
		c4.143,0,7.5,3.358,7.5,7.5S373.799,287.6,369.656,287.6z"/>
	<path style="fill:#F98084;" d="M168.924,287.6h-26.58c-4.143,0-7.5-3.358-7.5-7.5s3.357-7.5,7.5-7.5h26.58
		c4.143,0,7.5,3.358,7.5,7.5S173.066,287.6,168.924,287.6z"/>
</g>
<g>
	<path style="fill:#FBC4AC;" d="M423.524,497.221H369.66v-60.436h51.35c0.32,1.524,0.612,3.067,0.883,4.63
		C424.825,458.218,425.708,476.816,423.524,497.221z"/>
	<path style="fill:#FBC4AC;" d="M88.476,497.221h53.864v-60.436H90.99c-0.32,1.524-0.612,3.067-0.883,4.63
		C87.175,458.218,86.292,476.816,88.476,497.221z"/>
</g>
<path style="fill:#E3B098;" d="M121.946,188.139c-5.27,10.82-12.37,18.948-19.512,25h307.132c-7.142-6.052-14.242-14.18-19.512-25
	L256,170.316L121.946,188.139z"/>
<path style="fill:#FFCE1C;" d="M504.5,168.201c0,11.008-8.93,19.938-19.948,19.938H27.448c-11.017,0-19.948-8.93-19.948-19.938
	c0-11.017,8.93-19.948,19.948-19.948h457.104C495.569,148.253,504.5,157.183,504.5,168.201z"/>
<path style="fill:#FAA330;" d="M67.5,168.201c0-11.018,8.93-19.948,19.948-19.948h-60c-11.017,0-19.948,8.93-19.948,19.948
	c0,11.008,8.93,19.938,19.948,19.938h60C76.43,188.139,67.5,179.209,67.5,168.201z"/>
<g>
	<path style="fill:#FF5E6B;" d="M118.735,106.355c-18.351,14.793-5.629,41.898-5.629,41.898h46.989v-34.576
		C160.094,113.676,137.086,91.562,118.735,106.355z"/>
	<path style="fill:#FF5E6B;" d="M205.911,106.355c18.351,14.793,5.629,41.898,5.629,41.898h-46.989v-34.576
		C164.551,113.676,187.56,91.562,205.911,106.355z"/>
</g>
<path style="fill:#E63E4C;" d="M164.551,113.676h-4.457c-9.548,0-17.288,7.74-17.288,17.288l0,0c0,9.548,7.74,17.288,17.288,17.288
	h4.457c9.548,0,17.288-7.74,17.288-17.288l0,0C181.839,121.417,174.099,113.676,164.551,113.676z"/>
<path d="M356.366,258.917c4.142,0,7.5-3.358,7.5-7.5v-19.515c0-4.142-3.358-7.5-7.5-7.5s-7.5,3.358-7.5,7.5v19.515
	C348.866,255.559,352.224,258.917,356.366,258.917z"/>
<path d="M155.634,258.917c4.142,0,7.5-3.358,7.5-7.5v-19.515c0-4.142-3.358-7.5-7.5-7.5s-7.5,3.358-7.5,7.5v19.515
	C148.134,255.559,151.492,258.917,155.634,258.917z"/>
<path d="M256,286.498c9.161,0,17.762-3.829,23.598-10.506c2.726-3.119,2.408-7.856-0.711-10.583s-7.857-2.408-10.583,0.711
	c-2.987,3.418-7.472,5.378-12.304,5.378s-9.317-1.96-12.304-5.378c-2.726-3.119-7.464-3.437-10.583-0.711s-3.437,7.464-0.711,10.583
	C238.238,282.669,246.839,286.498,256,286.498z"/>
<path d="M443.505,109.705c-11.636-18.646-26.157-35.417-43.162-49.849c-3.158-2.68-7.891-2.293-10.571,0.865
	c-2.68,3.158-2.293,7.891,0.865,10.571c12.249,10.396,23.11,22.091,32.409,34.884h-206.87c-0.016-0.021-0.034-0.04-0.05-0.061
	c-2.595-3.38-5.905-6.259-9.588-8.396c-14.533-8.427-32.2-1.983-44.238,7.908c-3.771-3.077-8.723-6.275-14.285-8.568
	c-4.535-1.915-9.67-3.301-15.04-3.301c-9.588,0-18.674,4.762-24.455,12.355c-0.016,0.021-0.035,0.041-0.051,0.063H88.958
	c17.062-23.458,39.369-43.21,65.17-57.599C184.978,31.375,220.205,22.281,256,22.281c39.708,0,78.219,11.044,111.369,31.939
	c3.504,2.209,8.136,1.158,10.344-2.346c2.209-3.504,1.159-8.135-2.346-10.344C339.819,19.125,298.543,7.281,256,7.281
	c-38.347,0-76.1,9.75-109.178,28.196c-32.114,17.909-59.2,43.576-78.328,74.229c-6.183,9.905-11.523,20.328-15.917,31.046h-25.13
	C12.313,140.753,0,153.066,0,168.201c0,15.129,12.313,27.438,27.448,27.438h10.515c-8.256,8.745-13.264,20.532-13.264,33.442
	c0,20.465,12.702,38.008,30.631,45.191v41.484c0,31.455,16.102,60.325,42.449,76.933c-5.843,12.532-10.962,26.815-14.129,42.553
	c-0.003,0.014-0.006,0.03-0.014,0.07c-4.229,20.56-4.849,41.863-2.618,62.707c0.408,3.812,3.625,6.702,7.458,6.702h335.048
	c3.833,0,7.049-2.89,7.458-6.702c2.257-21.08,1.509-42.486-2.732-63.274c-3.171-15.534-8.247-29.65-14.03-42.054
	c26.348-16.607,42.451-45.479,42.451-76.934v-41.484c17.929-7.183,30.631-24.726,30.631-45.19c0-12.91-5.007-24.697-13.263-33.442
	h10.514c15.135,0,27.448-12.309,27.448-27.438c0-15.135-12.313-27.448-27.448-27.448h-25.129
	C455.029,130.034,449.688,119.611,443.505,109.705z M121.033,114.52c5.14-5.966,13.586-6.703,20.581-3.886
	c0.925,0.371,1.832,0.782,2.694,1.234c-0.422,0.349-0.828,0.715-1.225,1.092c-4.039,3.831-6.751,9.037-7.53,14.552
	c-0.628,4.441-0.028,9.04,1.738,13.166c0.01,0.025,0.019,0.05,0.03,0.075h-19.006c-0.057-0.183-0.199-0.655-0.214-0.703
	c-0.803-2.714-1.375-5.508-1.637-8.327C115.9,125.664,116.997,119.205,121.033,114.52z M202.405,113.249
	c3.864,3.689,5.721,8.951,5.913,14.211c0.165,4.503-0.653,9.004-1.986,13.293h-19.008c0.01-0.024,0.019-0.049,0.03-0.074
	c1.992-4.743,2.51-10.005,1.403-15.038c-1.091-4.96-3.738-9.53-7.485-12.957c-0.296-0.271-0.598-0.534-0.906-0.791
	c-0.016-0.013-0.031-0.028-0.047-0.042c0.842-0.418,3.001-1.326,3.205-1.404C189.96,107.99,197.235,108.313,202.405,113.249z
	 M150.505,128.995c0.922-4.495,5.01-7.818,9.591-7.818h4.455c5.237,0,9.788,4.55,9.788,9.788c0,5.333-4.463,9.788-9.791,9.788
	h-4.454C154.039,140.753,149.289,134.925,150.505,128.995z M223.068,133.619c0.453-4.41,0.328-8.569-0.354-12.442H432.93
	c3.771,6.339,7.172,12.885,10.174,19.576H221.86C222.367,138.577,222.806,136.171,223.068,133.619z M79.069,121.177h22.862
	c-0.681,3.873-0.807,8.032-0.354,12.442c0.262,2.552,0.702,4.958,1.208,7.134h-33.89C71.897,134.062,75.298,127.516,79.069,121.177z
	 M317.007,392.843c-10.264,23.944-34.063,40.202-61.007,40.202c-26.942,0-50.741-16.26-61.007-40.2
	c0.858,0.276,2.967,0.923,3.16,0.981c12.871,3.898,26.104,6.459,39.6,7.672c0.011,0.001,0.023,0.002,0.034,0.003
	c12.105,1.03,24.285,1.128,36.387,0.003c0.052-0.005,0.105-0.009,0.158-0.014c13.424-1.213,26.59-3.76,39.397-7.63
	C314.824,393.529,315.919,393.193,317.007,392.843z M96.896,292.707c-9.08-17.558-15.144-37.725-17.239-57.758
	c7.81-2.797,15.184-6.785,21.929-11.603c9.602-6.859,17.81-15.689,23.825-25.849c0.364-0.615,0.728-1.233,1.077-1.857h259.025
	c0.291,0.521,0.591,1.025,0.889,1.534c6.24,10.64,14.978,19.896,25.147,26.97c6.252,4.343,13.17,8.209,20.401,10.662
	c0.326,0.111,0.374,0.054,0.372,0.419c-0.015,2.726-0.669,5.622-1.097,8.308c-1.259,7.902-3.083,15.693-5.5,23.321
	c-20.889,66.158-83.063,114.976-157.01,120.034c-0.015,0.001-0.03,0.002-0.044,0.003c-7.735,0.507-16.274,0.583-24.304,0.062
	c-61.125-3.969-118.982-39.169-147.339-93.988C96.983,292.878,96.94,292.792,96.896,292.707z M433.813,219.411
	c-0.099-0.042-0.199-0.084-0.3-0.128c-4.373-1.885-8.565-4.194-12.51-6.862c-6.555-4.433-12.421-9.878-17.204-16.188
	c-0.149-0.197-0.297-0.395-0.445-0.594h31.961C435.286,196.43,434.245,214.499,433.813,219.411z M107.126,197.584
	c-3.84,4.791-8.321,9.053-13.241,12.721c-4.787,3.568-9.954,6.472-15.383,8.935c-0.107,0.046-0.212,0.092-0.317,0.137
	c-0.268-3.042-0.56-6.676-0.824-10.66c-0.29-4.356-0.52-8.715-0.674-13.077h31.941C108.137,196.296,107.638,196.945,107.126,197.584
	z M134.018,361.768l0.823,0.388v67.129h-34.43C108.13,399.597,122.999,376.14,134.018,361.768z M149.844,371.698
	c8.338,5.308,17.069,9.955,26.109,13.928v62.145c0,7.198-5.856,13.055-13.055,13.055s-13.055-5.856-13.055-13.055v-76.073H149.844z
	 M336.046,385.629c9.041-3.973,17.771-8.624,26.11-13.933v76.074c0,7.198-5.856,13.055-13.055,13.055s-13.055-5.856-13.055-13.055
	L336.046,385.629L336.046,385.629z M377.16,362.155l0.823-0.388c11.019,14.372,25.887,37.83,33.607,67.518h-34.43V362.155z
	 M39.699,229.082c0-14.449,9.046-26.88,22.042-31.622c0.001,0.025,0.002,0.05,0.003,0.076c0.005,0.117,0.01,0.233,0.014,0.351
	c0.784,19.793,2.022,39.886,6.388,59.34c0.312,1.39,0.64,2.777,0.987,4.159h-5.244C49.925,257.28,39.699,244.356,39.699,229.082z
	 M70.33,315.756v-38.108c1.006,0.063,3.519,0.095,3.758,0.091c1.707,4.786,3.624,9.495,5.734,14.123
	c9.849,21.595,23.964,41.128,41.229,57.402c0.703,0.662,1.396,1.336,2.109,1.987c-7.039,8.79-13.321,18.127-18.754,27.874
	C83.215,365.126,70.33,341.472,70.33,315.756z M97.227,444.285h37.613v45.436H95.325C94.169,474.19,94.806,458.943,97.227,444.285z
	 M149.84,472.59c3.903,2.062,8.345,3.235,13.059,3.235c15.469,0,28.055-12.585,28.055-28.055V415.53
	c14.99,19.908,38.794,32.514,65.046,32.514s50.056-12.605,65.046-32.513v32.238c0,15.469,12.585,28.055,28.055,28.055
	c4.713,0,9.155-1.173,13.059-3.235v17.131H149.84V472.59z M416.675,489.721H377.16v-45.436h37.613
	C417.194,458.94,417.831,474.188,416.675,489.721z M441.67,315.756c0,25.715-12.885,49.37-34.076,63.369
	c-5.433-9.745-11.715-19.083-18.752-27.872c0.648-0.592,2.087-1.966,2.174-2.049c12.868-12.142,23.807-25.852,32.579-40.816
	c5.713-9.746,10.525-20.006,14.319-30.649c1.254,0.021,2.504-0.014,3.756-0.091L441.67,315.756L441.67,315.756z M448.11,261.385
	h-5.239c0.898-3.575,1.687-7.182,2.362-10.818c0.009-0.049,0.017-0.098,0.026-0.147c1.318-6.938,1.89-13.985,2.649-20.999
	c0.003-0.029,0.007-0.062,0.01-0.092c0.006-0.053,0.011-0.101,0.017-0.158c0.438-4.029,1.763-17.04,2.324-31.712
	c12.995,4.742,22.041,17.173,22.041,31.622C472.301,244.356,462.073,257.28,448.11,261.385z M27.448,180.64
	c-6.864,0-12.448-5.58-12.448-12.438c0-6.864,5.584-12.448,12.448-12.448h457.104c6.864,0,12.448,5.584,12.448,12.448
	c0,6.858-5.584,12.438-12.448,12.438H27.448z"/>
<circle cx="349.1" cy="443.091" r="6.3"/>
<circle cx="162.9" cy="443.091" r="6.3"/>
<g>
</g>
<g>
</g>
<g>
</g>
<g>
</g>
<g>
</g>
<g>
</g>
<g>
</g>
<g>
</g>
<g>
</g>
<g>
</g>
<g>
</g>
<g>
</g>
<g>
</g>
<g>
</g>
<g>
</g>
</svg>
