<?xml version="1.0" encoding="iso-8859-1"?>
<!-- Generator: Adobe Illustrator 19.0.0, SVG Export Plug-In . SVG Version: 6.00 Build 0)  -->
<svg version="1.1" id="Capa_1" xmlns="http://www.w3.org/2000/svg" xmlns:xlink="http://www.w3.org/1999/xlink" x="0px" y="0px"
	 viewBox="0 0 512 512" style="enable-background:new 0 0 512 512;" xml:space="preserve">
<polygon style="fill:#B3B3B3;" points="288.396,189.696 229.251,248.84 230.201,281.799 263.161,282.749 322.305,223.604 "/>
<polygon style="fill:#999999;" points="308.162,209.462 249.017,268.607 229.805,268.053 230.201,281.799 263.161,282.749 
	322.305,223.604 "/>
<path style="fill:#D9D9D9;" d="M451.883,262.067c-2.979,0.205-73.686,4.647-138.139-27.498c-7.812-3.896-14.943-9.068-21.094-15.22
	c-6.151-6.151-11.324-13.281-15.22-21.093c-32.147-64.454-27.703-135.161-27.498-138.139l32.62,2.243
	c-0.041,0.623-3.935,65.014,24.138,121.302c4.645,9.313,12.333,17.001,21.646,21.646c56.287,28.073,120.68,24.179,121.323,24.137
	L451.883,262.067z"/>
<g>
	<path style="fill:#999999;" d="M312.587,11.593c-5.472-5.472-14.345-5.472-19.817,0L254.683,49.68L274.5,69.497l38.087-38.087
		C318.06,25.938,318.06,17.065,312.587,11.593z"/>
	<path style="fill:#999999;" d="M500.407,199.413c5.472,5.472,5.472,14.345,0,19.817l-38.087,38.087L442.504,237.5l38.087-38.087
		C486.063,193.941,494.935,193.941,500.407,199.413z"/>
	<path style="fill:#999999;" d="M350.151,49.157c-5.472-5.472-14.345-5.472-19.817,0l-38.087,38.087l19.817,19.817l38.087-38.087
		C355.623,63.502,355.623,54.629,350.151,49.157z"/>
	<path style="fill:#999999;" d="M387.715,86.721c-5.472-5.472-14.345-5.472-19.817,0l-38.087,38.087l19.817,19.817l38.087-38.087
		C393.187,101.065,393.187,92.193,387.715,86.721z"/>
	<path style="fill:#999999;" d="M425.28,124.285c-5.472-5.472-14.345-5.472-19.817,0l-38.087,38.087l19.817,19.817l38.087-38.087
		C430.752,138.63,430.752,129.758,425.28,124.285z"/>
	<path style="fill:#999999;" d="M462.844,161.849c-5.472-5.472-14.345-5.472-19.817,0l-38.087,38.087l19.817,19.817l38.087-38.087
		C468.316,176.194,468.316,167.322,462.844,161.849z"/>
</g>
<path style="fill:#B3B3B3;" d="M439.201,257.318L254.683,72.799c-6.384-6.384-6.384-16.736,0-23.12
	c6.384-6.384,16.736-6.384,23.12,0l184.518,184.518c6.384,6.384,6.384,16.736,0,23.12
	C455.937,263.702,445.586,263.702,439.201,257.318z"/>
<path style="fill:#C86D5C;" d="M229.251,248.84L14.511,463.581c-9.363,9.363-9.363,24.545,0,33.909s24.545,9.363,33.909,0
	l214.74-214.74L229.251,248.84z"/>
<path style="fill:#B24D40;" d="M249.017,268.607L34.277,483.347c-6.839,6.839-16.779,8.676-25.292,5.525
	c1.163,3.143,3.001,6.092,5.525,8.617c9.363,9.363,24.545,9.363,33.909,0l214.74-214.741L249.017,268.607z"/>
<path d="M95.73,439.535c-2.929,2.929-2.929,7.678,0,10.607c2.819,2.819,7.675,2.931,10.607,0l207.32-207.319
	c50.841,24.34,105.094,27.026,126.371,27.026c9.951,0,20.06,0.272,27.604-7.273l38.077-38.077c8.388-8.388,8.388-22.036,0-30.423
	c-8.297-8.296-22.132-8.292-30.424,0l-21.224,21.223l-7.14-7.14c0,0,21.213-21.213,21.223-21.223c8.297-8.297,8.287-22.137,0-30.424
	c-8.294-8.295-22.136-8.287-30.424,0l-21.224,21.224l-7.14-7.14l21.224-21.224c8.387-8.388,8.387-22.036,0-30.423
	c-8.293-8.293-22.139-8.286-30.424,0l-21.223,21.223l-7.14-7.14l21.224-21.224c8.388-8.387,8.388-22.036,0-30.423
	c-8.294-8.294-22.139-8.285-30.423,0l-21.222,21.224l-7.14-7.14c0,0,21.209-21.209,21.223-21.223c8.286-8.286,8.273-22.151,0-30.424
	c-8.294-8.294-22.135-8.289-30.423,0l-21.223,21.223l-7.14-7.14l21.224-21.224c8.387-8.388,8.387-22.036,0-30.423
	c-8.291-8.291-22.142-8.282-30.424,0L249.377,44.34c-0.184,0.184-0.355,0.374-0.516,0.571c-3.777,4.028-5.906,9.043-6.358,14.193
	c-0.02,0.153-0.044,0.306-0.055,0.462c-0.207,3.011-4.633,73.377,26.681,138.75l-78.25,78.25c-2.929,2.929-2.929,7.678,0,10.607
	c2.929,2.929,7.678,2.929,10.607,0l27.762-27.762l23.302,23.302L95.73,439.535z M410.763,129.553c2.514-2.514,6.701-2.509,9.21,0
	c2.539,2.539,2.539,6.67,0,9.209l-21.224,21.223l-9.209-9.209C389.54,150.776,410.728,129.589,410.763,129.553z M335.635,54.424
	c2.514-2.514,6.699-2.51,9.209,0c2.505,2.504,2.499,6.711,0,9.21l-21.223,21.223l-9.209-9.209
	C314.412,75.648,335.601,54.458,335.635,54.424z M263.158,272.107l-23.302-23.302l36.93-36.93c0.042,0.062,0.088,0.121,0.131,0.182
	c6.154,8.964,13.991,16.872,22.989,22.989c0.062,0.042,0.121,0.088,0.183,0.131L263.158,272.107z M272.497,54.948
	c0,0,184.437,184.436,184.518,184.518c3.375,3.375,3.369,9.128,0,12.514c-3.026,3.039-9.618,3.857-12.513,0
	c0,0-184.474-184.474-184.518-184.518c-3.397-3.397-3.39-9.121,0-12.513C263.395,51.536,269.093,51.543,272.497,54.948z
	 M388.398,217.088c-17.402-3.338-37.579-8.981-56.716-18.526c-7.866-3.924-14.359-10.417-18.283-18.282
	c-9.544-19.138-15.189-39.315-18.527-56.717L388.398,217.088z M464.669,225.904c0,0,21.199-21.199,21.224-21.223
	c2.518-2.518,6.698-2.512,9.21,0c2.539,2.539,2.539,6.67,0,9.209l-22.421,22.421c-1.18-2.748-2.88-5.275-5.058-7.453l-2.93-2.931
	L464.669,225.904z M448.328,167.118c2.445-2.445,6.652-2.557,9.209-0.001c2.518,2.518,2.513,6.698,0,9.21l-21.223,21.223
	l-9.21-9.209C427.104,188.341,448.317,167.128,448.328,167.118z M373.2,91.989c2.513-2.512,6.697-2.512,9.209,0
	c2.539,2.539,2.539,6.67,0,9.209l-21.224,21.224l-9.209-9.209C351.976,113.212,373.176,92.013,373.2,91.989z M298.071,16.86
	c2.513-2.513,6.698-2.512,9.21,0c2.539,2.539,2.539,6.67,0,9.209l-21.224,21.223c0,0-2.952-2.952-2.958-2.958
	c-2.254-1.977-4.67-3.869-7.445-5.058C275.654,39.277,298.048,16.883,298.071,16.86z M276.928,105.618
	c2.562,21.636,8.645,52.478,23.049,81.358c5.367,10.76,14.249,19.642,25.01,25.01c28.878,14.404,59.721,20.487,81.357,23.048
	l19.441,19.441c-25.626-1.296-68.65-6.682-108.695-26.654c-14.071-7.017-25.935-18.887-32.949-32.948
	c-19.953-40.007-25.404-82.488-26.685-108.727L276.928,105.618z"/>
<path d="M31.464,511.962c8.059,0,16.122-3.068,22.257-9.204l31.403-31.403c2.929-2.929,2.929-7.678,0-10.607
	c-2.929-2.929-7.678-2.929-10.607,0l-31.403,31.403c-6.424,6.424-16.878,6.424-23.302,0c-6.424-6.424-6.424-16.877,0-23.302
	l160.461-160.461c2.929-2.929,2.929-7.678,0-10.607c-2.929-2.929-7.678-2.929-10.607,0L9.204,458.242
	c-12.273,12.273-12.273,32.243,0,44.516C15.343,508.894,23.401,511.963,31.464,511.962z"/>
<g>
</g>
<g>
</g>
<g>
</g>
<g>
</g>
<g>
</g>
<g>
</g>
<g>
</g>
<g>
</g>
<g>
</g>
<g>
</g>
<g>
</g>
<g>
</g>
<g>
</g>
<g>
</g>
<g>
</g>
</svg>
