<?xml version="1.0" encoding="iso-8859-1"?>
<!-- Generator: Adobe Illustrator 19.0.0, SVG Export Plug-In . SVG Version: 6.00 Build 0)  -->
<svg version="1.1" id="Capa_1" xmlns="http://www.w3.org/2000/svg" xmlns:xlink="http://www.w3.org/1999/xlink" x="0px" y="0px"
	 viewBox="0 0 512 512" style="enable-background:new 0 0 512 512;" xml:space="preserve">
<polygon style="fill:#FFCE1C;" points="165.184,314.226 345.798,314.226 345.798,285.05 168.669,285.05 "/>
<path style="fill:#E63E4C;" d="M228.347,206.625c28.22,0.361,44.604-31.795,27.725-54.413l0,0l0,0
	c9.064-26.728-16.455-52.246-43.182-43.182l0,0l0,0c-22.619-16.879-54.774-0.495-54.413,27.725l0,0
	c-23.043,16.296-17.397,51.94,9.553,60.317l0,0C176.407,224.022,212.052,229.667,228.347,206.625L228.347,206.625z"/>
<g>
	<circle style="fill:#FAA330;" cx="206.56" cy="158.54" r="20.529"/>
	<path style="fill:#FAA330;" d="M283.652,206.625c-28.22,0.361-44.604-31.795-27.725-54.413l0,0l0,0
		c-9.064-26.728,16.455-52.246,43.182-43.182l0,0l0,0c22.619-16.879,54.774-0.495,54.413,27.725l0,0
		c23.043,16.296,17.397,51.94-9.553,60.317l0,0C335.593,224.022,299.948,229.667,283.652,206.625L283.652,206.625z"/>
</g>
<circle style="fill:#FF78A2;" cx="305.44" cy="158.54" r="20.529"/>
<g>
	<path style="fill:#C86D5C;" d="M417.771,335.918c-10.924,0-19.779-8.855-19.779-19.779V189.05
		c0-78.295-63.698-141.993-141.993-141.993S114.006,110.755,114.006,189.05v127.089c0,10.924-8.855,19.779-19.779,19.779
		s-19.779-8.855-19.779-19.779V189.05C74.45,88.943,155.893,7.5,256,7.5s181.55,81.443,181.55,181.55v127.089
		C437.55,327.063,428.695,335.918,417.771,335.918z"/>
	<path style="fill:#C86D5C;" d="M450.626,350.088L256,326.028l-194.626,24.06c0,0-3.416,88.957,55.336,141.928
		c8.899,8.024,20.448,12.484,32.431,12.484H362.86c11.982,0,23.531-4.46,32.431-12.484
		C454.042,439.046,450.626,350.088,450.626,350.088z"/>
</g>
<g>
	<path style="fill:#B24D40;" d="M101.374,350.088L276,328.501l-20-2.472l-194.626,24.06c0,0-3.416,88.957,55.336,141.928
		c8.899,8.024,20.448,12.484,32.431,12.484h40c-11.982,0-23.531-4.46-32.431-12.484C97.958,439.045,101.374,350.088,101.374,350.088
		z"/>
	<path style="fill:#B24D40;" d="M114.007,316.139V189.05c0-10.487,1.153-20.709,3.321-30.555c-2.133-0.191-4.272-0.29-6.412-0.29
		c-12.43,0-24.522,3.28-35.177,9.263c-0.842,7.08-1.288,14.279-1.288,21.582v127.088c0,10.924,8.855,19.779,19.779,19.779
		S114.007,327.063,114.007,316.139z"/>
	<path style="fill:#B24D40;" d="M437.55,316.139V189.05c0-7.303-0.446-14.502-1.288-21.582c-10.656-5.983-22.748-9.263-35.177-9.263
		c-2.14,0-4.279,0.099-6.412,0.29c2.168,9.846,3.321,20.067,3.321,30.555v127.088c0,10.924,8.855,19.779,19.779,19.779
		S437.55,327.063,437.55,316.139z"/>
</g>
<path style="fill:#DF8B78;" d="M450.626,301.968H61.374c-9.149,0-16.566,7.417-16.566,16.566v14.989
	c0,9.149,7.417,16.566,16.566,16.566h389.251c9.149,0,16.566-7.417,16.566-16.566v-14.989
	C467.191,309.385,459.775,301.968,450.626,301.968z"/>
<path style="fill:#C86D5C;" d="M84.809,333.522v-14.988c0-9.149,7.417-16.566,16.566-16.566h-40
	c-9.149,0-16.566,7.417-16.566,16.566v14.988c0,9.149,7.417,16.566,16.566,16.566h40C92.225,350.088,84.809,342.671,84.809,333.522z
	"/>
<g>
	<path style="fill:#FF78A2;" d="M192.892,225.226c0.451-35.308-39.779-55.806-68.079-34.688l0,0l0,0
		c-33.44-11.34-65.367,20.587-54.027,54.027l0,0l0,0c-21.118,28.299-0.62,68.53,34.688,68.079l0,0
		c20.388,28.83,64.984,21.766,75.466-11.953l0,0C214.658,290.211,221.721,245.615,192.892,225.226L192.892,225.226z"/>
	<path style="fill:#FF78A2;" d="M319.108,225.226c-0.451-35.308,39.779-55.806,68.079-34.688l0,0l0,0
		c33.44-11.34,65.367,20.587,54.027,54.027l0,0l0,0c21.118,28.299,0.62,68.53-34.688,68.079l0,0
		c-20.388,28.83-64.984,21.766-75.466-11.953l0,0C297.342,290.211,290.279,245.615,319.108,225.226L319.108,225.226z"/>
</g>
<path style="fill:#FF5E6B;" d="M317.814,275.748c25.285-24.647,11.333-67.589-23.611-72.667l0,0l0,0
	c-15.627-31.664-60.779-31.664-76.406,0l0,0l0,0c-34.943,5.078-48.896,48.02-23.611,72.667l0,0
	c-5.969,34.802,30.56,61.342,61.814,44.911l0,0C287.254,337.09,323.783,310.55,317.814,275.748L317.814,275.748z"/>
<circle style="fill:#FFCE1C;" cx="256" cy="252.49" r="25.684"/>
<g>
	<circle style="fill:#FAA330;" cx="132.74" cy="252.49" r="25.684"/>
	<circle style="fill:#FAA330;" cx="379.26" cy="252.49" r="25.684"/>
</g>
<path d="M173.424,429.413c4.142,0,7.5-3.358,7.5-7.5v-14.945c0-4.142-3.358-7.5-7.5-7.5s-7.5,3.358-7.5,7.5v14.945
	C165.924,426.055,169.282,429.413,173.424,429.413z"/>
<path d="M338.576,429.413c4.142,0,7.5-3.358,7.5-7.5v-14.945c0-4.142-3.358-7.5-7.5-7.5s-7.5,3.358-7.5,7.5v14.945
	C331.076,426.055,334.434,429.413,338.576,429.413z"/>
<path d="M256,437.39c10.107,0,19.594-4.221,26.028-11.581c2.726-3.119,2.408-7.857-0.711-10.583
	c-3.119-2.727-7.856-2.408-10.583,0.711c-3.584,4.101-8.955,6.453-14.734,6.453s-11.149-2.352-14.734-6.453
	c-2.727-3.119-7.464-3.437-10.583-0.711s-3.437,7.464-0.711,10.583C236.406,433.169,245.893,437.39,256,437.39z"/>
<path d="M256,219.306c-18.298,0-33.184,14.886-33.184,33.184s14.886,33.184,33.184,33.184s33.184-14.886,33.184-33.184
	S274.298,219.306,256,219.306z M256,270.674c-10.027,0-18.184-8.157-18.184-18.184s8.157-18.184,18.184-18.184
	s18.184,8.157,18.184,18.184C274.184,262.517,266.027,270.674,256,270.674z"/>
<path d="M226.376,138.725c-5.294-5.293-12.332-8.209-19.819-8.209c-21.919,0-35.429,25.163-23.428,43.421
	c5.148,7.833,14.059,12.637,23.428,12.637c7.487,0,14.525-2.916,19.82-8.209C237.304,167.436,237.304,149.653,226.376,138.725z
	 M215.77,167.757c-2.461,2.461-5.733,3.816-9.213,3.816s-6.752-1.355-9.212-3.816c-8.007-8.006-2.123-22.242,9.212-22.242
	C217.936,145.515,223.792,159.735,215.77,167.757z"/>
<path d="M305.443,130.516c-7.487,0-14.525,2.916-19.819,8.21c-10.928,10.928-10.928,28.71,0,39.639
	c5.294,5.293,12.333,8.209,19.819,8.209s14.525-2.916,19.82-8.209c10.928-10.928,10.928-28.71,0-39.639
	C319.969,133.432,312.93,130.516,305.443,130.516z M314.656,167.757c-2.461,2.461-5.733,3.816-9.213,3.816s-6.752-1.355-9.212-3.816
	c-5.08-5.08-5.08-13.346,0-18.425c2.461-2.461,5.733-3.816,9.213-3.816s6.752,1.355,9.213,3.816
	C319.736,154.412,319.736,162.677,314.656,167.757z"/>
<path d="M156.201,229.025c-12.791-12.791-34.148-12.781-46.929-0.001c-12.784,12.784-12.768,34.163,0,46.93
	c6.268,6.268,14.601,9.719,23.465,9.719c21.704,0,37.762-21.373,31.934-42.184C163.144,238.037,160.205,233.028,156.201,229.025z
	 M145.595,265.348c-3.435,3.435-8.001,5.326-12.858,5.326c-15.836,0-24.032-19.867-12.859-31.042
	c3.435-3.435,8.001-5.326,12.858-5.326C148.631,234.306,156.793,254.149,145.595,265.348z"/>
<path d="M402.728,229.025c-6.268-6.268-14.601-9.719-23.465-9.719s-17.197,3.451-23.464,9.719c-12.938,12.938-12.938,33.991,0,46.93
	c6.268,6.268,14.601,9.719,23.464,9.719s17.197-3.451,23.465-9.719s9.72-14.602,9.72-23.465S408.996,235.292,402.728,229.025z
	 M392.122,265.348c-3.435,3.435-8.001,5.326-12.858,5.326s-9.423-1.891-12.858-5.326c-7.09-7.09-7.09-18.626,0-25.717
	c3.435-3.435,8.001-5.326,12.858-5.326s9.424,1.891,12.858,5.326c3.435,3.435,5.326,8.001,5.326,12.858
	C397.448,257.346,395.556,261.913,392.122,265.348z"/>
<path d="M450.79,294.473c0.364-0.652,0.734-1.299,1.071-1.972c7.966-15.885,6.966-34.409-2.437-49.23
	c3.19-12.328,1.621-25.041-4.374-36.075V189.05C445.05,84.808,360.243,0,256,0S66.95,84.808,66.95,189.05v18.143
	c-5.995,11.034-7.564,23.749-4.374,36.078c-9.403,14.82-10.402,33.343-2.436,49.228c0.338,0.673,0.708,1.321,1.072,1.974
	c-13.195,0.088-23.904,10.846-23.904,24.062v14.988c0,10.651,6.958,19.702,16.564,22.862c0.192,8.91,1.228,26.027,5.82,46.449
	c8.834,39.284,26.813,72.049,51.995,94.752C121.996,506.881,135.297,512,149.14,512h213.719c13.843,0,27.144-5.119,37.453-14.414
	c25.182-22.704,43.161-55.469,51.995-94.752c4.592-20.422,5.628-37.54,5.82-46.449c9.607-3.16,16.565-12.211,16.565-22.862v-14.988
	C474.691,305.319,463.984,294.562,450.79,294.473z M298.633,309.563c-10.956,9.29-26.394,11.16-39.143,4.457
	c-2.186-1.148-4.795-1.148-6.98,0c-12.746,6.698-28.272,4.875-39.22-4.457c-0.008-0.007-0.015-0.014-0.023-0.02
	c-9.091-7.957-13.738-20.57-11.689-32.526c0.417-2.433-0.389-4.916-2.157-6.639c-2.754-2.684-5.111-5.817-6.866-9.241
	c-8.193-15.976-2.091-36.978,13.35-46.112c3.965-2.345,8.416-3.859,12.971-4.521c2.443-0.354,4.555-1.889,5.66-4.127
	c5.107-10.34,14.923-17.475,26.328-19.161c0.05-0.007,0.099-0.016,0.148-0.024c15.054-2.092,29.734,5.569,36.467,19.209
	c1.093,2.214,3.205,3.748,5.647,4.103c7.999,1.161,15.588,5.063,21.03,11.156c0.032,0.036,0.068,0.069,0.101,0.104
	c12.689,13.483,11.351,35.918-1.677,48.614c-1.547,1.507-2.357,3.597-2.256,5.725c0.373,7.848,0.634,15.286-2.992,22.497
	C305.225,302.788,302.227,306.515,298.633,309.563z M123.501,318.861c-4.671-2.547-8.79-6.141-11.904-10.547
	c-1.579-2.234-4.049-3.166-6.711-3.166c-8.5,0-16.911-3.066-23.249-8.766c-0.085-0.076-0.176-0.144-0.263-0.215
	c-3.135-2.869-5.797-6.353-7.824-10.394c-6.08-12.123-4.866-25.852,3.247-36.723c1.477-1.979,1.885-4.557,1.092-6.895
	c-3.386-9.986-2.229-20.521,3.114-29.319c4.285-7.057,11.048-12.576,18.864-15.259c7.342-2.521,15.2-2.362,22.538,0.063
	c2.337,0.792,4.916,0.384,6.894-1.092c6.063-4.525,13.251-7.034,20.819-7.034c10.129,0,19.381,4.226,25.865,11.117
	c3.532,3.754,6.237,8.362,7.794,13.3c0.037,0.118,0.332,0.811,0.268,0.895c-5.56,7.324-8.833,15.76-9.872,24.385
	c-1.676,13.917,2.781,28.446,12.023,38.997c0.029,0.033,0.054,0.068,0.083,0.101c-0.205,2.1-0.266,4.214-0.212,6.323
	c0.018,0.693,0.668,5.311,0.437,5.448c-2.409,1.432-5.016,2.587-7.79,3.45c-2.82,0.877-4.316,3.099-5.21,5.761
	c-0.031,0.081-0.075,0.155-0.104,0.239C166.487,319.713,142.21,329.064,123.501,318.861z M335.916,181.655
	c-7.136,4.266-13.185,10.306-17.416,17.468c-0.86,1.456-1.65,2.964-2.356,4.501c-5.113-3.448-10.858-5.903-17.061-7.271
	c-5.82-9.842-14.99-17.454-25.71-21.42c-5.304-1.962-11.045-3.016-16.749-3.085c0.126-5.452,2.059-10.788,5.314-15.15
	c1.477-1.979,1.885-4.557,1.092-6.895c-6.652-19.595,12.928-39.905,32.794-33.951c2.731,0.819,5.352,0.995,7.772-0.812
	c17.309-12.921,42.703,0.176,42.428,21.619c-0.031,2.468,1.154,4.794,3.169,6.219c11.549,8.167,13.264,21.637,9.23,31.751
	C350.273,175.179,342.606,177.658,335.916,181.655z M214.678,193.582c-0.612,0.903-1.208,1.821-1.767,2.772
	c-6.201,1.369-11.944,3.823-17.055,7.27c-0.069-0.149-0.143-0.295-0.213-0.444c-2.563-5.448-6.173-10.448-10.533-14.636
	c-1.157-1.112-2.417-2.208-3.696-3.217c-7.941-6.271-17.747-10.015-27.837-10.697c-4.034-10.114-2.318-23.584,9.23-31.751
	c2.015-1.425,3.2-3.751,3.169-6.219c-0.188-14.683,11.996-26.955,26.687-26.955c5.62,0,11.063,1.846,15.742,5.336
	c1.979,1.477,4.557,1.885,6.894,1.092c2.87-0.974,5.795-1.467,8.693-1.467c10.165,0,19.733,6.326,24.042,15.641
	c-0.903,3.277-1.393,6.649-1.453,10.057c-0.065,3.5,0.325,7.004,1.138,10.408c0.011,0.047,0.019,0.095,0.028,0.146
	c-1.538,2.49-2.808,5.14-3.792,7.896c-1.705,4.776-2.493,9.851-2.329,14.919c0.002,0.057-0.002,0.113,0,0.169
	C230.573,177.126,221.183,183.991,214.678,193.582z M360.9,132.997c-0.75-9.769-4.827-18.803-11.697-25.762
	c-7.862-7.964-18.748-12.531-29.866-12.531c-7.613,0-14.981,2.114-21.522,6.146c-3.241-0.788-6.528-1.186-9.812-1.186
	c-12.323,0-24.084,5.678-31.991,15.308c-7.753-9.488-19.431-15.307-32.021-15.307c-3.282,0-6.567,0.397-9.807,1.185
	c-6.542-4.032-13.91-6.146-21.522-6.146c-21.421,0-39.924,16.921-41.563,38.293c-12.58,10.713-17.408,27.497-12.937,42.986
	c-5.136,1.294-10.067,3.423-14.65,6.345c-0.6-0.155-1.203-0.275-1.806-0.408C125.437,111.12,184.378,54.557,256,54.557
	s130.563,56.563,134.293,127.362c-0.602,0.133-1.206,0.253-1.806,0.408c-4.583-2.921-9.514-5.05-14.65-6.345
	C378.309,160.493,373.481,143.71,360.9,132.997z M400.403,308.314c-6.669,9.431-17.048,14.84-28.474,14.84
	c-15.313,0-28.395-9.273-33.329-23.624c-0.947-2.756-2.366-5.084-5.313-6c-2.774-0.862-5.38-2.018-7.79-3.45
	c0.256-1.868,0.402-3.759,0.443-5.668c0.02-0.947-0.113-5.017-0.219-6.103c0.029-0.033,0.054-0.068,0.083-0.101
	c2.504-2.858,4.682-6.009,6.475-9.359c4.83-9.026,6.773-19.472,5.549-29.631c-1.038-8.627-4.312-17.065-9.873-24.391
	c1.377-4.832,3.808-9.321,7.095-13.121c6.67-7.71,16.654-12.19,26.832-12.19c7.512,0,14.809,2.547,20.819,7.034
	c1.978,1.477,4.556,1.884,6.894,1.092c3.012-1.021,6.073-1.636,9.129-1.848c10.945-0.759,21.95,4.182,29.01,12.512
	c7.871,9.286,10.315,22.241,6.378,33.852c-0.793,2.338-0.385,4.916,1.092,6.894c8.114,10.873,9.328,24.602,3.249,36.725
	c-5.937,11.838-18.083,19.372-31.337,19.372C404.446,305.133,401.99,306.071,400.403,308.314z M81.95,189.05
	C81.95,93.078,160.028,15,256,15s174.05,78.078,174.05,174.05v1.111c-0.095-0.068-0.193-0.132-0.288-0.2
	c-4.095-2.907-8.626-5.213-13.399-6.78c-3.6-1.182-7.323-1.965-11.099-2.292C401.003,102.299,335.533,39.557,256,39.557
	s-145.003,62.742-149.264,141.332c-8.902,0.774-17.534,4.07-24.786,9.272V189.05z M390.268,486.446
	C382.719,493.252,372.985,497,362.859,497H149.141c-10.126,0-19.86-3.748-27.409-10.554
	C75.81,445.043,69.677,379.299,68.939,357.588h374.132C442.361,379.279,436.299,444.944,390.268,486.446z M459.691,333.522
	c0,4.999-4.067,9.066-9.066,9.066H61.375c-4.999,0-9.066-4.067-9.066-9.066v-14.988c0-4.999,4.067-9.066,9.066-9.066h12.516
	c7.976,6.351,17.485,9.971,27.811,10.586c5.357,6.5,12.062,11.416,19.586,14.473c7.536,3.061,15.808,4.177,23.893,3.376
	c17.336-1.718,32.946-12.672,40.369-28.435h8.044c0.533,0.843,1.852,2.721,1.937,2.836c9.394,12.815,24.704,20.842,40.637,20.842
	c6.83,0,13.484-1.401,19.833-4.172c4.732,2.064,9.789,3.409,14.927,3.923c16.383,1.639,32.785-5.248,43.365-17.796
	c1.498-1.776,2.876-3.67,4.117-5.634h8.042c0.64,1.359,1.335,2.696,2.094,3.992c8.959,15.253,25.698,24.702,43.362,24.702
	c14.797,0,28.985-6.693,38.392-18.107c10.325-0.616,19.835-4.236,27.811-10.586h12.516c4.999,0,9.066,4.067,9.066,9.066v14.988
	H459.691z"/>
<g>
</g>
<g>
</g>
<g>
</g>
<g>
</g>
<g>
</g>
<g>
</g>
<g>
</g>
<g>
</g>
<g>
</g>
<g>
</g>
<g>
</g>
<g>
</g>
<g>
</g>
<g>
</g>
<g>
</g>
</svg>
