<?xml version="1.0" encoding="iso-8859-1"?>
<!-- Generator: Adobe Illustrator 19.0.0, SVG Export Plug-In . SVG Version: 6.00 Build 0)  -->
<svg version="1.1" id="Capa_1" xmlns="http://www.w3.org/2000/svg" xmlns:xlink="http://www.w3.org/1999/xlink" x="0px" y="0px"
	 viewBox="0 0 512 512" style="enable-background:new 0 0 512 512;" xml:space="preserve">
<polygon style="fill:#FFCE1C;" points="255.999,199.593 119.439,276.07 119.439,308.943 144.307,417.045 255.999,436.487 
	367.691,417.045 392.559,308.943 392.559,274.227 "/>
<path style="fill:#00AD94;" d="M341.577,111.452c50.982-18.045,40.505,80.267-26.177,77.219L341.577,111.452z"/>
<circle style="fill:#3B484A;" cx="255.999" cy="302.5" r="36.938"/>
<circle style="fill:#FAA330;" cx="255.999" cy="378.44" r="15.384"/>
<rect x="235.179" y="436.49" style="fill:#FFCE1C;" width="41.634" height="68.01"/>
<path style="fill:#2FC8B4;" d="M341.722,100.823c0.835,35.469-11.571,73.181-34.402,97.624H204.678
	c-22.831-24.442-35.237-62.154-34.402-97.624C170.276,100.823,341.722,100.823,341.722,100.823z"/>
<path style="fill:#FFCE1C;" d="M341.722,100.823c-23.433,16.619-53.253,26.559-85.723,26.559s-62.29-9.94-85.723-26.558
	C171.402,52.046,197.553,7.5,255.999,7.5S340.596,52.046,341.722,100.823z"/>
<path style="fill:#00AD94;" d="M194.276,100.823h-24c-0.026,1.108-0.039,2.219-0.04,3.332c-0.001,2.225,0.05,4.456,0.151,6.691
	c0.009,0.206,0.027,0.413,0.037,0.619l-0.004-0.013c-50.982-18.044-40.505,80.267,26.177,77.219l-0.04-0.117
	c0.502,0.686,0.99,1.387,1.506,2.059c0.229,0.299,0.457,0.599,0.689,0.895c1.89,2.412,3.864,4.731,5.926,6.939h24
	C205.847,174.005,193.441,136.293,194.276,100.823z"/>
<path style="fill:#FAA330;" d="M194.611,114.613c-0.326-4.612-0.442-9.22-0.335-13.79c1.046-45.302,23.682-86.945,73.714-92.653
	c-0.926-0.105-1.862-0.198-2.806-0.279c-3.054-0.263-6.12-0.391-9.185-0.391c-27.397,0-47.697,9.788-61.65,25.211
	c-16.626,18.378-23.497,43.723-24.071,68.045c-0.001,0.022-0.001,0.044-0.002,0.067C177.774,106.141,185.928,110.77,194.611,114.613
	z"/>
<path style="fill:#F09318;" d="M237.902,80.098c-0.949,7.304,1.183,15.302,8.426,21.647c5.498,4.815,13.843,4.815,19.341,0
	c7.243-6.345,9.375-14.343,8.426-21.647C274.095,80.098,237.902,80.098,237.902,80.098z"/>
<g>
	<path style="fill:#FAA330;" d="M274.096,80.098c-4.978,3.479-11.262,5.549-18.097,5.549s-13.119-2.071-18.097-5.549
		c1.408-10.925,9.712-20.29,18.097-20.29S272.688,69.172,274.096,80.098z"/>
	<path style="fill:#FAA330;" d="M119.439,276.069v32.874l5.688,24.726c2.636-0.87,5.179-2.037,7.561-3.525l123.311-77.061
		l123.311,77.061c2.382,1.489,4.924,2.656,7.561,3.525l5.688-24.726v-34.716l-136.56-74.634L119.439,276.069z"/>
</g>
<path style="fill:#FF5E6B;" d="M418.28,267.785l-149.421-93.379c-7.868-4.917-17.853-4.916-25.722,0L93.718,267.785
	c-4.607,2.879-6.008,8.948-3.128,13.554l15.296,24.475c2.879,4.607,8.947,6.008,13.554,3.129l136.559-85.341l136.56,85.341
	c4.607,2.879,10.675,1.478,13.554-3.129l15.296-24.475C424.288,276.732,422.887,270.664,418.28,267.785z"/>
<rect x="235.179" y="436.49" style="fill:#FAA330;" width="41.634" height="44.44"/>
<path style="fill:#FF5E6B;" d="M374.7,417.045H137.297c-5.966,0-10.802,4.836-10.802,10.802v17.28
	c0,5.966,4.836,10.802,10.802,10.802H374.7c5.966,0,10.802-4.836,10.802-10.802v-17.28
	C385.502,421.881,380.666,417.045,374.7,417.045z"/>
<path d="M255.998,346.933c24.503,0,44.438-19.935,44.438-44.438s-19.935-44.438-44.438-44.438s-44.438,19.935-44.438,44.438
	C211.56,326.998,231.495,346.933,255.998,346.933z M255.998,273.057c16.232,0,29.438,13.206,29.438,29.438
	s-13.206,29.438-29.438,29.438s-29.438-13.206-29.438-29.438S239.766,273.057,255.998,273.057z"/>
<path d="M255.998,355.557c-12.618,0-22.883,10.265-22.883,22.883s10.266,22.884,22.883,22.884c12.618,0,22.883-10.266,22.883-22.884
	S268.616,355.557,255.998,355.557z M255.998,386.324c-4.347,0-7.883-3.537-7.883-7.884c0-4.347,3.536-7.883,7.883-7.883
	c4.347,0,7.883,3.537,7.883,7.883C263.882,382.787,260.346,386.324,255.998,386.324z"/>
<path d="M216.894,78.032c4.142,0,7.5-3.358,7.5-7.5v-7.077c0-4.142-3.358-7.5-7.5-7.5c-4.143,0-7.5,3.358-7.5,7.5v7.077
	C209.394,74.674,212.752,78.032,216.894,78.032z"/>
<path d="M295.102,78.032c4.143,0,7.5-3.358,7.5-7.5v-7.077c0-4.142-3.357-7.5-7.5-7.5c-4.142,0-7.5,3.358-7.5,7.5v7.077
	C287.602,74.674,290.961,78.032,295.102,78.032z"/>
<path d="M241.387,107.387c4.027,3.526,9.216,5.468,14.612,5.468c5.395,0,10.584-1.942,14.613-5.47
	c8.448-7.401,12.327-17.435,10.922-28.254c0-0.003-0.001-0.006-0.002-0.009c-1.913-14.788-13.363-26.815-25.533-26.815
	s-23.623,12.03-25.534,26.82c0,0.001,0,0.002,0,0.003s0,0.002,0,0.004c0,0.001,0,0.002,0,0.004s0,0.003,0,0.005
	C229.062,89.959,232.941,99.988,241.387,107.387z M260.728,96.102c-1.291,1.131-2.971,1.753-4.73,1.753
	c-1.759,0-3.438-0.623-4.729-1.752c-1.393-1.22-2.489-2.483-3.342-3.754c0.656,0.132,1.319,0.248,1.987,0.348
	c2.008,0.304,4.053,0.451,6.084,0.451c1.948,0,3.913-0.142,5.84-0.421c0.747-0.108,1.491-0.228,2.231-0.378
	C263.216,93.619,262.121,94.882,260.728,96.102z M255.998,67.308c3.146,0,7.286,3.747,9.413,9.02
	c-0.078,0.032-0.153,0.07-0.231,0.101c-2.91,1.156-6.053,1.719-9.181,1.719c-1.583,0-3.178-0.143-4.734-0.438
	c-0.431-0.082-4.744-1.221-4.679-1.381C248.713,71.054,252.852,67.308,255.998,67.308z"/>
<path d="M422.255,261.424L318.688,196.7c0.125-0.158,0.254-0.311,0.378-0.47c22.739-0.209,42.218-11.496,53.509-31.05
	c9.833-17.028,11.39-37.214,3.876-50.229c-4.919-8.521-13.195-13.213-23.304-13.213c-1.274,0-2.582,0.084-3.912,0.234
	c-0.006-0.439-0.005-0.879-0.015-1.322c-0.64-27.683-8.607-51.718-23.041-69.506C309.645,10.77,285.378,0,255.998,0
	s-53.647,10.77-70.18,31.144c-14.434,17.788-22.401,41.823-23.041,69.51c-0.017,0.729-0.019,1.458-0.025,2.188
	c-1.138-0.696-2.471-1.104-3.902-1.104c-16.762,0-28.026,13.144-28.031,32.729c0.002,14.155,5.894,29.396,15.763,40.772
	c8.234,9.492,22.942,20.783,46.35,20.992c0.125,0.159,0.253,0.312,0.378,0.47c0,0-103.535,64.703-103.567,64.724
	c-8.007,5.004-10.521,15.877-5.514,23.889c0,0,15.291,24.468,15.296,24.476c3.064,4.903,8.512,7.994,14.286,8.142l21.114,91.786
	c-8.972,1.169-15.93,8.844-15.93,18.13v17.28c0,10.092,8.21,18.302,18.302,18.302h90.384v41.07c0,4.142,3.358,7.5,7.5,7.5h41.635
	c4.142,0,7.5-3.358,7.5-7.5v-41.071h90.384c10.092,0,18.302-8.21,18.302-18.302v-17.28c0-9.286-6.958-16.961-15.93-18.13
	l21.117-91.797c5.627-0.145,11.083-3.01,14.284-8.131c0,0,15.29-24.465,15.295-24.475
	C432.781,277.293,430.258,266.426,422.255,261.424z M343.397,146.705c2.644-9.514,4.499-19.541,5.308-29.487
	c5.737-1.164,11.627-0.186,14.755,5.232c4.771,8.263,3.141,23.079-3.875,35.229c-4.202,7.276-13.2,18.629-29.75,22.34
	c5.499-9.827,9.944-20.664,13.195-32.012C343.153,147.574,343.276,147.14,343.397,146.705z M255.998,15
	c54.393,0,75.866,41.596,78.068,81.955c-1.619,1.074-3.258,2.114-4.925,3.113c-13.346,7.996-28.116,13.597-43.342,16.742
	c-15.764,3.255-32.046,3.906-48.019,1.917c-0.075-0.009-0.149-0.019-0.224-0.028c-14.973-1.887-29.814-6.119-43.499-12.639
	c-5.576-2.654-10.979-5.691-16.126-9.105C180.133,56.596,201.606,15,255.998,15z M157.913,165.41
	c-7.575-8.733-12.097-20.307-12.094-30.96c0.001-5.325,1.273-17.711,13.031-17.711c0.021,0,0.04-0.004,0.06-0.005
	c0.364-0.026,2.353-0.129,4.394,0.446c1.884,22.364,8.526,44.309,18.875,62.805C170.557,177.345,162.74,170.974,157.913,165.41z
	 M178.126,114.686c0.021,0.012,0.043,0.023,0.065,0.035c2.81,1.533,5.615,3.057,8.497,4.452
	c21.523,10.421,45.433,15.708,69.329,15.708c20.592,0,41.208-3.957,60.291-11.709c6.018-2.446,11.784-5.371,17.498-8.452
	c0.012-0.006,0.023-0.012,0.034-0.019c-0.028,0.381-0.045,0.764-0.077,1.145c-0.154,1.853-0.348,3.701-0.569,5.546
	c-2.01,16.449-6.827,32.486-13.905,46.52c-3.712,7.358-8.169,14.414-13.402,20.789l-33.052-20.656
	c-5.053-3.158-10.875-4.827-16.834-4.827c-5.959,0-11.781,1.669-16.836,4.827l-33.052,20.656
	C190.352,169.499,180.193,142.455,178.126,114.686z M269.316,497h-26.635v-33.571h26.635V497z M378.002,427.847v17.28
	c0,1.821-1.481,3.302-3.302,3.302H137.297c-1.82,0-3.302-1.481-3.302-3.302v-17.28c0-1.821,1.481-3.302,3.302-3.302H374.7
	C376.52,424.545,378.002,426.026,378.002,427.847z M415.048,277.364l-15.295,24.475c-0.683,1.093-2.127,1.426-3.22,0.743
	l-136.56-85.341c-2.401-1.5-5.546-1.501-7.949,0c0,0-74.839,46.77-74.844,46.772c-3.464,2.165-4.554,6.867-2.386,10.335
	c2.195,3.513,6.823,4.581,10.335,2.386l70.87-44.289l128.052,80.024l-22.331,97.075H150.277l-22.331-97.075l31.073-19.418
	c3.455-2.16,4.547-6.875,2.386-10.335c-2.135-3.417-6.886-4.542-10.335-2.386c0,0-35.606,22.251-35.608,22.252
	c-1.091,0.681-2.541,0.339-3.217-0.744l-15.296-24.474c-0.424-0.678-0.395-1.333-0.295-1.763s0.36-1.032,1.039-1.456l149.419-93.378
	c5.383-3.363,12.333-3.372,17.724-0.029c0.016,0.01,0.033,0.019,0.05,0.029l149.421,93.379
	C415.387,274.821,415.723,276.285,415.048,277.364z"/>
<g>
</g>
<g>
</g>
<g>
</g>
<g>
</g>
<g>
</g>
<g>
</g>
<g>
</g>
<g>
</g>
<g>
</g>
<g>
</g>
<g>
</g>
<g>
</g>
<g>
</g>
<g>
</g>
<g>
</g>
</svg>
