<?xml version="1.0" encoding="iso-8859-1"?>
<!-- Generator: Adobe Illustrator 19.0.0, SVG Export Plug-In . SVG Version: 6.00 Build 0)  -->
<svg version="1.1" id="Capa_1" xmlns="http://www.w3.org/2000/svg" xmlns:xlink="http://www.w3.org/1999/xlink" x="0px" y="0px"
	 viewBox="0 0 511.998 511.998" style="enable-background:new 0 0 511.998 511.998;" xml:space="preserve">
<path style="fill:#00AE95;" d="M291.494,156.728c34.221,0,61.963-27.742,61.963-61.963s-27.742-61.963-61.963-61.963
	c-5.138,0-10.126,0.637-14.9,1.816C265.349,18.956,246.993,8.743,226.24,8.743c-18.374,0-34.872,8.005-46.22,20.709
	c-8.403-4.259-17.899-6.674-27.964-6.674c-34.221,0-61.963,27.742-61.963,61.963c0,6.959,1.164,13.642,3.28,19.886
	c-5.666-3.809-12.485-6.033-19.826-6.033c-19.652,0-35.583,15.931-35.583,35.583s15.931,35.583,35.583,35.583h194.689
	L291.494,156.728z"/>
<path style="fill:#C86D5C;" d="M137.56,345.151c0,0-67.667-53.421-65.663-111.289l32.809-23.282l24.833,23.282
	c4.511,35.813,73.324,64.596,73.324,64.596l1.547,46.694h-66.85V345.151z"/>
<path style="fill:#B24D40;" d="M123.304,318.755l-8.688,4.693c12.533,13.482,22.945,21.704,22.945,21.704h66.851l-1.547-46.694
	c0,0-13.381-5.599-28.728-14.927C147.419,305.476,123.747,318.514,123.304,318.755z"/>
<path style="fill:#C86D5C;" d="M340.061,345.151c0,0,41.603-67.406,38.094-134.572l-44.61-26.046l-64.159,26.046
	c-32.079,80.7-131.826,134.572-131.826,134.572l119.797,20.15L340.061,345.151z"/>
<path style="fill:#FAA330;" d="M122.022,455.234v33.958c0,7.768,6.297,14.065,14.065,14.065h54.258
	c7.768,0,14.065-6.297,14.065-14.065v-33.958H122.022z"/>
<path style="fill:#F09318;" d="M162.022,489.192v-33.958h-40v33.958c0,7.768,6.297,14.065,14.065,14.065h40
	C168.319,503.257,162.022,496.96,162.022,489.192z"/>
<path style="fill:#FAA330;" d="M392.692,455.234v33.958c0,7.768-6.297,14.065-14.065,14.065h-54.258
	c-7.768,0-14.065-6.297-14.065-14.065v-33.958H392.692z"/>
<path style="fill:#FFCE1C;" d="M22.467,385.451c0,0,20.693,87.11,99.555,87.11h270.67c78.862,0,99.555-87.11,99.555-87.11
	l-234.89-20.15L22.467,385.451z"/>
<path style="fill:#FAA330;" d="M72.467,385.451l209.89-18.005l-25-2.145l-234.89,20.15c0,0,20.693,87.11,99.555,87.11h50
	C93.16,472.561,72.467,385.451,72.467,385.451z"/>
<g>
	<path style="fill:#2FC8B4;" d="M166.389,233.862c16.755,0,30.338-13.583,30.338-30.338c0-12.649-7.744-23.486-18.747-28.04
		c-3.064-22.741-22.536-40.279-46.117-40.279c-20.214,0-37.412,12.888-43.843,30.893c-5.295-3.703-11.734-5.882-18.686-5.882
		c-16.526,0-30.176,12.279-32.345,28.211c-2.013-0.571-4.134-0.883-6.33-0.883c-12.79,0-23.159,10.369-23.159,23.159
		s10.369,23.159,23.159,23.159L166.389,233.862L166.389,233.862z"/>
	<path style="fill:#2FC8B4;" d="M351.233,310.05c-12.669,0-22.939-10.27-22.939-22.939c0-9.565,5.855-17.759,14.175-21.202
		c2.317-17.195,17.04-30.456,34.87-30.456c15.285,0,28.289,9.745,33.151,23.359c4.004-2.8,8.873-4.447,14.129-4.447
		c12.496,0,22.817,9.285,24.457,21.331c1.522-0.432,3.126-0.668,4.786-0.668c9.671,0,17.511,7.84,17.511,17.511
		s-7.84,17.511-17.511,17.511H351.233z"/>
</g>
<path style="fill:#FAA330;" d="M492.246,345.151H22.467c-6.767,0-12.254,5.486-12.254,12.254v15.793
	c0,6.767,5.486,12.254,12.254,12.254h469.78c6.767,0,12.254-5.486,12.254-12.254v-15.793
	C504.5,350.637,499.014,345.151,492.246,345.151z"/>
<path style="fill:#F09318;" d="M60.213,373.197v-15.793c0-6.767,5.486-12.253,12.254-12.253h-50
	c-6.767,0-12.254,5.486-12.254,12.253v15.793c0,6.767,5.486,12.253,12.254,12.253h50C65.7,385.451,60.213,379.965,60.213,373.197z"
	/>
<path style="fill:#2FC8B4;" d="M448.471,210.579c24.176,0,43.775-19.599,43.775-43.775c0-18.252-11.173-33.889-27.051-40.459
	c-4.421-32.813-32.518-58.118-66.542-58.118c-29.168,0-53.983,18.597-63.261,44.576c-7.64-5.343-16.932-8.487-26.962-8.487
	c-23.846,0-43.541,17.718-46.671,40.705c-2.904-0.824-5.966-1.274-9.134-1.274c-18.455,0-33.416,14.961-33.416,33.416
	s14.961,33.416,33.416,33.416H448.471z"/>
<path d="M190.845,411.431c-4.142,0-7.5,3.358-7.5,7.5v12.038c0,4.142,3.358,7.5,7.5,7.5s7.5-3.358,7.5-7.5v-12.038
	C198.345,414.789,194.987,411.431,190.845,411.431z"/>
<path d="M323.868,411.431c-4.142,0-7.5,3.358-7.5,7.5v12.038c0,4.142,3.358,7.5,7.5,7.5s7.5-3.358,7.5-7.5v-12.038
	C331.368,414.789,328.01,411.431,323.868,411.431z"/>
<path d="M278.708,424.484c-3.119-2.726-7.857-2.408-10.583,0.711c-2.61,2.985-6.535,4.698-10.769,4.698
	c-4.234,0-8.159-1.713-10.77-4.699c-2.726-3.119-7.465-3.437-10.583-0.71c-3.119,2.726-3.437,7.464-0.71,10.583
	c5.459,6.245,13.501,9.827,22.063,9.827c8.562,0,16.604-3.582,22.063-9.827C282.146,431.948,281.827,427.21,278.708,424.484z"/>
<path d="M492.247,337.651h-139.41c2.738-5.217,6.115-12.035,9.662-20.101h91.363c13.791,0,25.011-11.22,25.011-25.011
	c0-13.52-10.782-24.567-24.198-24.998c-4.684-12.173-16.549-20.676-30.056-20.676c-3.675,0-7.271,0.616-10.67,1.813
	c-6.208-10.321-16.558-17.584-28.379-19.917c0.204-3.61,0.298-7.174,0.286-10.681h62.616c28.273,0,51.275-23.002,51.275-51.275
	c0-19.384-10.777-36.843-27.793-45.588c-6.695-34.765-37.495-60.489-73.3-60.489c-14.967,0-29.202,4.507-41.16,12.416
	c-9.191-27.975-35.681-47.84-65.999-47.84c-3.964,0-7.93,0.341-11.844,1.017C266.507,10.533,246.89,1.243,226.24,1.243
	c-17.879,0-35.048,6.932-47.916,19.188c-8.33-3.422-17.142-5.153-26.268-5.153c-38.302,0-69.463,31.161-69.463,69.463
	c0,2.476,0.132,4.942,0.394,7.392c-3.075-0.688-6.237-1.038-9.439-1.038c-23.756,0-43.083,19.327-43.083,43.083
	c0,11.05,4.195,21.46,11.542,29.339c-4.818,4.48-8.556,10.131-10.72,16.534c-0.209-0.004-0.418-0.006-0.627-0.006
	C13.753,180.044,0,193.798,0,210.703c0,16.906,13.753,30.659,30.659,30.659h33.856c0.593,9.771,2.902,19.894,6.911,30.198
	c1.502,3.86,5.85,5.772,9.709,4.27c3.86-1.501,5.772-5.849,4.271-9.709c-3.316-8.522-5.279-16.819-5.865-24.759h43.964
	c4.506,14.903,17.951,29.797,40.078,44.369c9.425,6.208,18.708,11.196,25.541,14.594c-21.992,18.186-42.142,30.67-50.741,35.721
	c-7.768-6.752-25.831-23.55-39.91-45.035c-2.27-3.465-6.919-4.432-10.384-2.162c-3.464,2.27-4.433,6.919-2.162,10.384
	c10.444,15.939,22.681,29.269,32.054,38.419H22.467c-10.892,0-19.753,8.861-19.753,19.753v15.793
	c0,8.825,5.818,16.313,13.819,18.839c2.449,7.959,8.44,24.531,19.966,41.229c19.595,28.39,46.455,44.358,78.023,46.529v9.396
	c0,11.891,9.674,21.565,21.565,21.565h54.258c11.891,0,21.565-9.674,21.565-21.565v-9.13h90.891v9.13
	c0,11.891,9.674,21.565,21.565,21.565h54.259c11.891,0,21.565-9.674,21.565-21.565v-9.396c31.569-2.171,58.428-18.14,78.023-46.529
	c11.526-16.699,17.516-33.271,19.966-41.229c8.001-2.526,13.819-10.014,13.819-18.839v-15.793
	C512,346.512,503.139,337.651,492.247,337.651z M403.428,261.335c1.638,4.587,7.366,6.418,11.361,3.623
	c10.336-7.229,25.158-0.726,26.856,11.75c0.606,4.448,5.157,7.43,9.479,6.203c6.202-1.761,12.75,3.029,12.75,9.628
	c0,5.52-4.491,10.011-10.011,10.011h-102.63c-8.513,0-15.439-6.926-15.439-15.44c0-6.202,3.817-11.902,9.543-14.271
	c1.852-0.767,3.293-2.228,4.048-4.029c0.601-1.432,0.66-3.072,1.016-4.577c2.919-12.293,14.035-21.264,26.904-21.28
	c0.036,0.001,0.064,0.001,0.102,0.002C389.058,242.985,399.509,250.362,403.428,261.335z M370.565,228.496
	c-0.008,0.079-1.845,0.347-1.975,0.374c-8.845,1.857-16.94,6.599-22.992,13.296c-4.363,4.828-7.633,10.738-9.388,17.041
	c-0.154,0.554-0.299,1.111-0.431,1.673c-0.576,0.338-1.139,0.695-1.688,1.067c-8.259,5.606-13.296,15.193-13.296,25.165
	c0,10.151,5.403,19.983,13.925,25.544c3.462,2.259,7.43,3.802,11.509,4.482c-4.348,9.381-8.216,16.526-10.473,20.512H164.017
	c3.4-2.268,7.082-4.798,10.967-7.569c37.694-26.884,73.534-60.562,94.805-102.264c1.632-3.199,3.169-6.445,4.6-9.739h96.474
	C370.876,221.49,370.777,224.969,370.565,228.496z M457.763,127.347c0.356,2.648,2.096,4.906,4.565,5.929
	c13.619,5.636,22.418,18.796,22.418,33.528c0,20.002-16.273,36.275-36.275,36.275H252.625c-14.29,0-25.916-11.626-25.916-25.916
	c0-13.204,10.471-24.612,23.611-25.808c0.067-0.006,0.134-0.01,0.201-0.016c3.092-0.248,6.204,0.05,9.191,0.897
	c4.336,1.23,8.871-1.745,9.479-6.203c1.756-12.885,10.268-24.511,21.937-30.21c7.549-3.687,16.483-4.899,24.827-3.293
	c5.413,1.042,10.55,3.21,15.138,6.419c3.991,2.792,9.731,0.944,11.362-3.624c0.004-0.011,0.008-0.021,0.012-0.032
	c8.214-23.303,31.543-39.567,56.186-39.567C428.386,75.727,453.798,97.919,457.763,127.347z M55.085,155.332
	c-6.083-5.301-9.621-12.961-9.621-21.155c0-15.485,12.598-28.083,28.083-28.083c5.604,0,11.012,1.645,15.641,4.757
	c2.669,1.794,6.185,1.687,8.74-0.267c2.555-1.953,3.58-5.318,2.548-8.364c-1.913-5.648-2.883-11.529-2.883-17.479
	c0-30.031,24.432-54.463,54.463-54.463c8.628,0,16.896,1.973,24.574,5.864c3.034,1.537,6.719,0.842,8.984-1.694
	c10.333-11.569,25.141-18.205,40.625-18.205c17.488,0,34.035,8.504,44.262,22.749c1.789,2.491,4.913,3.642,7.89,2.908
	c4.292-1.06,8.7-1.597,13.102-1.597c25.849,0,48.153,18.41,53.319,43.386c-0.176,0.184-2.783,3.043-3.85,4.34
	c-3.529,4.286-6.609,8.983-9.136,14.045c0.146-0.391-11.172-3.881-12.49-4.148c-3.58-0.725-7.253-1.11-10.908-1.11
	c-24.544,0-45.892,16.545-52.498,39.565c-1.1-0.089-2.203-0.134-3.307-0.134c-0.013,0-0.025,0.001-0.038,0.001
	c-1.415,0.001-2.836,0.076-4.243,0.224c-15.34,1.574-28.318,11.521-33.837,25.789h-32.24c-0.057-0.148-0.895-2.157-1.277-3.006
	c-8.656-18.902-28.235-31.547-49.037-31.547c-0.03,0-0.06-0.002-0.09-0.002c-19.865,0-37.961,10.957-47.351,27.983
	c-0.306-0.125-0.617-0.235-0.926-0.353c-7.684-2.93-16.178-3.388-24.145-1.367C57.966,154.344,56.509,154.792,55.085,155.332z
	 M15,210.703c0-8.634,7.024-15.659,15.659-15.659c3.688,0,6.987,1.917,10.438-0.342c1.818-1.19,3.031-3.11,3.324-5.264
	c1.661-12.186,12.626-21.722,24.913-21.722c4.108,0,8.083,1.001,11.67,2.89c2.257,1.189,4.06,2.887,6.74,2.987
	c3.237,0.12,6.25-1.926,7.339-4.972c5.537-15.501,20.317-25.916,36.78-25.916c0.037,0,0.073,0.002,0.11,0.002
	c15.478,0.205,30.004,9.738,35.951,24.097c1.282,3.095,2.176,6.36,2.623,9.68c0.356,2.648,2.096,4.906,4.564,5.928
	c8.575,3.549,14.115,11.835,14.115,21.11c0,12.593-10.245,22.838-22.838,22.838H30.659C22.024,226.362,15,219.337,15,210.703z
	 M139.552,241.362h26.837c20.864,0,37.838-16.974,37.838-37.838c0-10.034-3.929-19.356-10.6-26.263h18.085
	c0.053,22.517,18.385,40.819,40.914,40.819h5.249c-13.826,28.506-36.074,53.103-56.42,71.563
	C183.544,281.435,149.432,262.187,139.552,241.362z M196.911,489.192c0,3.62-2.945,6.565-6.565,6.565h-54.258
	c-3.62,0-6.565-2.945-6.565-6.565v-9.13h67.389L196.911,489.192L196.911,489.192z M385.192,489.192c0,3.62-2.945,6.565-6.565,6.565
	h-54.259c-3.62,0-6.565-2.945-6.565-6.565v-9.13h67.39v9.13H385.192z M492.247,352.651c2.621,0,4.753,2.132,4.753,4.753v15.793
	c0,2.621-2.132,4.753-4.753,4.753h-58.251c-4.142,0-7.5,3.358-7.5,7.5s3.358,7.5,7.5,7.5h48.065
	c-2.835,7.9-7.951,19.857-16.19,31.795c-18.464,26.751-43.085,40.315-73.178,40.315h-270.67c-29.946,0-54.479-13.438-72.919-39.941
	c-8.352-12.004-13.558-24.163-16.437-32.169h372.4c4.142,0,7.5-3.358,7.5-7.5s-3.358-7.5-7.5-7.5h-382.6
	c-2.621,0-4.753-2.132-4.753-4.753v-15.793c0-2.621,2.132-4.753,4.753-4.753H492.247z"/>
<g>
</g>
<g>
</g>
<g>
</g>
<g>
</g>
<g>
</g>
<g>
</g>
<g>
</g>
<g>
</g>
<g>
</g>
<g>
</g>
<g>
</g>
<g>
</g>
<g>
</g>
<g>
</g>
<g>
</g>
</svg>
