<?xml version="1.0" encoding="iso-8859-1"?>
<!-- Generator: Adobe Illustrator 19.0.0, SVG Export Plug-In . SVG Version: 6.00 Build 0)  -->
<svg version="1.1" id="Capa_1" xmlns="http://www.w3.org/2000/svg" xmlns:xlink="http://www.w3.org/1999/xlink" x="0px" y="0px"
	 viewBox="0 0 512 512" style="enable-background:new 0 0 512 512;" xml:space="preserve">
<path style="fill:#D9D9D9;" d="M413.768,197.374c-8.325,0-15.073-6.749-15.073-15.073v-1.96
	c0-78.682-64.013-142.694-142.694-142.694c-78.682,0-142.694,64.013-142.694,142.694v1.96c0,8.325-6.749,15.073-15.073,15.073
	c-8.324,0-15.073-6.749-15.073-15.073v-1.96C83.16,85.036,160.696,7.5,256.001,7.5c95.304,0,172.841,77.536,172.841,172.841v1.96
	C428.842,190.626,422.093,197.374,413.768,197.374z"/>
<polygon style="fill:#42C3E2;" points="376.68,464.304 436.973,202.399 256.001,182.301 75.029,202.399 135.322,464.304 
	256.001,484.402 "/>
<polygon style="fill:#00A6C8;" points="175.322,464.304 115.029,202.398 276.001,184.522 256.001,182.301 75.029,202.398 
	135.322,464.304 256.001,484.402 276.001,481.071 "/>
<g>
	<path style="fill:#B3B3B3;" d="M398.695,180.341v1.96c0,8.325,6.749,15.073,15.073,15.073c8.325,0,15.073-6.749,15.073-15.073
		v-1.96c0-16.7-2.389-32.851-6.829-48.138h-31.681C395.739,147.25,398.695,163.456,398.695,180.341z"/>
	<path style="fill:#B3B3B3;" d="M98.233,197.374c8.325,0,15.073-6.749,15.073-15.073v-1.96c0-16.885,2.956-33.091,8.364-48.138
		H89.989c-4.44,15.287-6.829,31.438-6.829,48.138v1.96C83.16,190.626,89.909,197.374,98.233,197.374z"/>
</g>
<path style="fill:#00A6C8;" d="M436.973,162.203H75.029c-11.1,0-20.098,8.998-20.098,20.098c0,11.1,8.998,20.098,20.098,20.098
	h361.944c11.1,0,20.098-8.998,20.098-20.098C457.071,171.201,448.073,162.203,436.973,162.203z"/>
<path style="fill:#0095B3;" d="M94.931,182.301c0-11.1,8.998-20.098,20.098-20.098h-40c-11.1,0-20.098,8.998-20.098,20.098
	s8.998,20.098,20.098,20.098h40C103.929,202.398,94.931,193.4,94.931,182.301z"/>
<path style="fill:#00A6C8;" d="M376.68,464.304H135.322c-11.1,0-20.098,8.998-20.098,20.098s8.998,20.098,20.098,20.098h241.357
	c11.1,0,20.098-8.998,20.098-20.098C396.777,473.302,387.779,464.304,376.68,464.304z"/>
<path style="fill:#0095B3;" d="M155.224,484.402c0-11.1,8.998-20.098,20.098-20.098h-40c-11.1,0-20.098,8.998-20.098,20.098
	s8.998,20.098,20.098,20.098h40C164.222,504.5,155.224,495.502,155.224,484.402z"/>
<path d="M176.356,311.574c-4.142,0-7.5,3.358-7.5,7.5v14.415c0,4.142,3.358,7.5,7.5,7.5s7.5-3.358,7.5-7.5v-14.415
	C183.856,314.932,180.498,311.574,176.356,311.574z"/>
<path d="M335.646,340.988c4.142,0,7.5-3.358,7.5-7.5v-14.415c0-4.142-3.358-7.5-7.5-7.5s-7.5,3.358-7.5,7.5v14.415
	C328.146,337.63,331.504,340.988,335.646,340.988z"/>
<path d="M280.595,326.838c-3.119-2.726-7.856-2.408-10.583,0.711c-3.407,3.897-8.513,6.133-14.01,6.133
	c-5.498,0-10.604-2.235-14.011-6.133c-2.726-3.119-7.465-3.437-10.583-0.711c-3.119,2.726-3.438,7.464-0.711,10.583
	c6.255,7.157,15.479,11.262,25.305,11.262s19.049-4.105,25.304-11.261C284.032,334.302,283.713,329.564,280.595,326.838z"/>
<path d="M107.724,484.402c0,15.218,12.38,27.598,27.598,27.598h241.357c15.217,0,27.598-12.38,27.598-27.598
	c0-12.041-7.754-22.299-18.529-26.06l57.354-249.138c12.276-2.796,21.468-13.792,21.468-26.903c0-15.217-12.38-27.598-27.598-27.598
	h-2.466c-5.929-41.44-26.172-79.566-57.491-107.962C343.772,16.6,300.795,0,256.001,0S168.23,16.6,134.986,46.741
	c-31.319,28.396-51.563,66.522-57.491,107.962h-2.466c-15.217,0-27.598,12.38-27.598,27.598c0,13.111,9.192,24.107,21.468,26.903
	l57.354,249.138C115.479,462.103,107.724,472.361,107.724,484.402z M146.19,89.019c-3.317-2.481-8.017-1.805-10.499,1.511
	c-14.174,18.941-23.678,41.005-27.692,64.173H92.651c5.813-37.16,24.226-71.295,52.411-96.85C175.54,30.219,214.94,15,256.001,15
	s80.46,15.219,110.939,42.854c28.186,25.555,46.598,59.69,52.411,96.85h-15.345c-12.321-71.465-74.81-124.558-148.005-124.558
	c-36.447,0-71.622,13.274-99.045,37.378c-3.111,2.735-3.416,7.474-0.682,10.585c2.735,3.111,7.474,3.416,10.584,0.682
	c24.685-21.696,56.343-33.645,89.143-33.645c65.009,0,120.63,46.53,132.75,109.557H123.25c3.85-19.906,12.216-38.836,24.451-55.186
	C150.182,96.201,149.506,91.501,146.19,89.019z M62.431,182.301c0-6.946,5.651-12.598,12.598-12.598h361.944
	c6.946,0,12.598,5.651,12.598,12.598c0,6.947-5.651,12.598-12.598,12.598H75.029C68.083,194.899,62.431,189.248,62.431,182.301z
	 M135.323,471.804h175.043c4.142,0,7.5-3.358,7.5-7.5c0-4.05-3.445-7.5-7.5-7.5H141.292l-56.84-246.905H427.55l-56.84,246.905
	h-31.761c-4.041,0-7.5,3.454-7.5,7.5c0,4.142,3.358,7.5,7.5,7.5h37.731c6.946,0,12.598,5.651,12.598,12.598S383.627,497,376.68,497
	H135.323c-6.947,0-12.598-5.651-12.598-12.598C122.724,477.456,128.376,471.804,135.323,471.804z"/>
<g>
</g>
<g>
</g>
<g>
</g>
<g>
</g>
<g>
</g>
<g>
</g>
<g>
</g>
<g>
</g>
<g>
</g>
<g>
</g>
<g>
</g>
<g>
</g>
<g>
</g>
<g>
</g>
<g>
</g>
</svg>
