<?xml version="1.0" encoding="iso-8859-1"?>
<!-- Generator: Adobe Illustrator 19.0.0, SVG Export Plug-In . SVG Version: 6.00 Build 0)  -->
<svg version="1.1" id="Capa_1" xmlns="http://www.w3.org/2000/svg" xmlns:xlink="http://www.w3.org/1999/xlink" x="0px" y="0px"
	 viewBox="0 0 511.999 511.999" style="enable-background:new 0 0 511.999 511.999;" xml:space="preserve">
<g>
	<polygon style="fill:#FFCE1C;" points="342.357,210.518 377.676,182.854 424.059,168.876 471.078,194.927 488.868,238.768 
		469.807,287.057 445.027,313.743 422.788,329.628 439.308,358.22 440.579,387.634 434.861,419.611 410.716,438.279 
		369.416,443.362 331.293,431.925 289.358,381.094 295.076,295.953 	"/>
	<polygon style="fill:#FFCE1C;" points="169.643,210.518 134.324,182.854 87.941,168.876 40.923,194.927 23.132,238.768 
		42.193,287.057 66.973,313.743 89.212,329.628 72.692,358.22 71.421,387.634 77.14,419.611 101.284,438.279 142.584,443.362 
		180.707,431.925 222.642,381.094 216.924,295.953 	"/>
</g>
<path style="fill:#FF5E6B;" d="M374.973,467.033c1.559,0,3.12-0.04,4.683-0.119c16.772-0.847,32.896-6.172,46.628-15.396
	c14.163-9.513,24.775-22.493,30.689-37.537c9.664-24.584,5.757-51.662-10.518-76.921c14.108-7.684,25.986-17.604,35.476-29.657
	c13.109-16.648,20.824-36.596,22.311-57.685c2.745-38.931-16.524-75.263-47.947-90.406c-17.767-8.563-38.426-10.079-59.742-4.387
	c-22.283,5.951-45.158,19.603-67.988,40.577l25.791,28.075c32.249-29.626,63.373-40.53,85.389-29.922
	c17.489,8.428,28.126,29.881,26.469,53.382c-3.014,42.752-40.203,59.107-56.052,64.155c-6.292,2.004-11.099,7.121-12.705,13.526
	c-1.606,6.406,0.218,13.186,4.82,17.921c19.183,19.736,26.007,40.119,19.216,57.393c-6.38,16.229-23.966,27.807-43.762,28.807
	c-24.637,1.249-46.969-13.957-61.26-41.707l-33.893,17.455c11.091,21.535,25.779,37.928,43.656,48.722
	C341.168,462.328,357.927,467.033,374.973,467.033z"/>
<g>
	<circle style="fill:#FAA330;" cx="412.621" cy="244.801" r="23.827"/>
	<circle style="fill:#FAA330;" cx="375.121" cy="382.121" r="18.751"/>
</g>
<path style="fill:#FF5E6B;" d="M137.028,467.033c-1.559,0-3.12-0.04-4.683-0.119c-16.772-0.847-32.896-6.172-46.628-15.396
	c-14.163-9.513-24.775-22.493-30.689-37.537c-9.664-24.584-5.757-51.662,10.518-76.921c-14.108-7.684-25.986-17.604-35.476-29.657
	c-13.109-16.648-20.824-36.596-22.311-57.685c-2.745-38.931,16.524-75.263,47.947-90.406c17.767-8.563,38.426-10.079,59.742-4.387
	c22.283,5.951,45.158,19.603,67.988,40.577l-25.791,28.075c-32.249-29.626-63.373-40.53-85.389-29.922
	c-17.489,8.428-28.126,29.881-26.469,53.382c3.014,42.752,40.203,59.107,56.052,64.155c6.292,2.004,11.099,7.121,12.705,13.526
	c1.606,6.406-0.218,13.186-4.82,17.921c-19.183,19.736-26.007,40.119-19.216,57.393c6.38,16.229,23.967,27.807,43.762,28.807
	c24.637,1.249,46.969-13.957,61.26-41.707l33.893,17.455c-11.091,21.535-25.779,37.928-43.656,48.722
	C170.832,462.328,154.074,467.033,137.028,467.033z"/>
<g>
	<circle style="fill:#FAA330;" cx="99.381" cy="244.801" r="23.827"/>
	<circle style="fill:#FAA330;" cx="136.871" cy="382.121" r="18.751"/>
</g>
<g>
	<path style="fill:#E63E4C;" d="M316.47,387.133l-33.893,17.455c9.758,18.949,22.305,33.911,37.355,44.586
		c9.442-8.118,17.691-18.094,24.332-29.63C333.383,412.443,323.852,401.467,316.47,387.133z"/>
	<path style="fill:#E63E4C;" d="M167.736,419.544c6.641,11.536,14.89,21.511,24.332,29.63
		c15.051-10.675,27.597-25.637,37.355-44.586l-33.893-17.455C188.148,401.467,178.618,412.443,167.736,419.544z"/>
</g>
<path style="fill:#FAA330;" d="M322.706,395.86c5.49-12.295,8.587-26.286,8.587-41.135c0-3.059-0.133-6.081-0.391-9.064H181.098
	c-0.257,2.983-0.391,6.004-0.391,9.064c0,14.849,3.097,28.84,8.587,41.135L256,429.607L322.706,395.86z"/>
<g>
	<path style="fill:#FF5E6B;" d="M330.902,345.662c-19.729,9.769-46.024,15.735-74.902,15.735s-55.174-5.966-74.902-15.735
		c3.85-44.69,35.921-79.572,74.902-79.572S327.052,300.972,330.902,345.662z"/>
	<path style="fill:#FF5E6B;" d="M322.706,395.86c-12.59,28.24-37.732,47.501-66.706,47.501s-54.116-19.262-66.706-47.501
		c18.566,7.567,41.668,12.047,66.706,12.047S304.14,403.428,322.706,395.86z"/>
</g>
<path style="fill:#F09318;" d="M189.294,395.86L189.294,395.86l35.666,18.044c-4.155-5.449-7.75-11.503-10.666-18.044
	c-5.49-12.295-8.587-26.286-8.587-41.135c0-3.059,0.133-6.081,0.391-9.064h-25c-0.257,2.983-0.391,6.004-0.391,9.064
	C180.707,369.574,183.805,383.566,189.294,395.86z"/>
<g>
	<path style="fill:#E63E4C;" d="M205.709,354.892c0-0.056-0.002-0.111-0.002-0.167c0-3.059,0.133-6.081,0.391-9.064
		c3.43-39.805,29.254-71.806,62.399-78.332c-0.987-0.194-1.98-0.365-2.979-0.516c-3.148-0.475-6.333-0.724-9.517-0.724
		c-36.156,0-63.787,30.114-72.177,63.322c-1.322,5.231-2.244,10.664-2.725,16.25C188.456,349.306,196.73,352.419,205.709,354.892z"
		/>
	<path style="fill:#E63E4C;" d="M120.441,197.414c11.899,5.688,24.462,14.458,37.205,26.164l25.791-28.075
		c-16.419-15.084-32.86-26.359-49.088-33.728C127.938,172.791,123.198,184.77,120.441,197.414z"/>
	<path style="fill:#E63E4C;" d="M377.652,161.775c-16.228,7.369-32.669,18.644-49.088,33.728l25.791,28.075
		c12.742-11.706,25.306-20.476,37.205-26.164C388.803,184.77,384.062,172.791,377.652,161.775z"/>
</g>
<ellipse style="fill:#FAA330;" cx="256.001" cy="223.201" rx="108.33" ry="99.12"/>
<path style="fill:#F09318;" d="M172.667,223.201c0-50.874,41.891-92.788,95.833-98.459c-4.102-0.431-8.272-0.661-12.5-0.661
	c-59.831,0-108.333,44.377-108.333,99.12s48.502,99.12,108.333,99.12c4.228,0,8.398-0.229,12.5-0.661
	C214.559,315.989,172.667,274.075,172.667,223.201z"/>
<g>
	<circle style="fill:#FF5E6B;" cx="173.781" cy="65.867" r="20.899"/>
	<circle style="fill:#FF5E6B;" cx="338.221" cy="65.867" r="20.899"/>
</g>
<path style="fill:#E63E4C;" d="M259.013,443.287c3.184-0.155,6.36-0.537,9.488-1.153c-20.699-4.072-38.535-18.079-49.851-37.721
	c-10.624-2.053-20.509-4.947-29.354-8.553c1.574,3.53,3.344,6.92,5.293,10.149c0.487,0.807,0.986,1.605,1.495,2.392
	c13.753,21.248,35.472,34.961,59.918,34.961C257.005,443.362,258.009,443.336,259.013,443.287z"/>
<path d="M202.236,232.971c4.142,0,7.5-3.358,7.5-7.5v-9.73c0-4.142-3.358-7.5-7.5-7.5s-7.5,3.358-7.5,7.5v9.73
	C194.736,229.613,198.094,232.971,202.236,232.971z"/>
<path d="M309.764,232.971c4.142,0,7.5-3.358,7.5-7.5v-9.73c0-4.142-3.358-7.5-7.5-7.5s-7.5,3.358-7.5,7.5v9.73
	C302.264,229.613,305.622,232.971,309.764,232.971z"/>
<path d="M256,238.165c7.336,0,14.231-3.075,18.917-8.436c2.726-3.119,2.408-7.856-0.711-10.583
	c-3.119-2.726-7.856-2.408-10.583,0.711c-1.837,2.102-4.615,3.307-7.623,3.307c-3.008,0-5.786-1.205-7.623-3.307
	c-2.727-3.119-7.465-3.438-10.583-0.711c-3.119,2.726-3.438,7.464-0.711,10.583C241.769,235.09,248.664,238.165,256,238.165z"/>
<path d="M99.378,213.479c-17.274,0-31.327,14.053-31.327,31.327c0,17.273,14.053,31.327,31.327,31.327
	c17.273,0,31.327-14.053,31.327-31.327S116.652,213.479,99.378,213.479z M99.378,261.133c-9.003,0-16.327-7.324-16.327-16.327
	c0-9.003,7.324-16.327,16.327-16.327c9.002,0,16.327,7.324,16.327,16.327C115.705,253.809,108.381,261.133,99.378,261.133z"/>
<path d="M110.625,382.118c0,14.475,11.776,26.251,26.251,26.251s26.251-11.776,26.251-26.251s-11.776-26.251-26.251-26.251
	S110.625,367.643,110.625,382.118z M148.127,382.118c0,6.204-5.047,11.251-11.251,11.251s-11.251-5.047-11.251-11.251
	s5.047-11.251,11.251-11.251S148.127,375.914,148.127,382.118z"/>
<path d="M412.622,276.133c17.274,0,31.327-14.053,31.327-31.327s-14.053-31.327-31.327-31.327
	c-17.273,0-31.327,14.053-31.327,31.327C381.296,262.08,395.349,276.133,412.622,276.133z M412.622,228.479
	c9.003,0,16.327,7.324,16.327,16.327c0,9.002-7.324,16.327-16.327,16.327c-9.002,0-16.327-7.324-16.327-16.327
	C396.296,235.803,403.62,228.479,412.622,228.479z"/>
<path d="M348.874,382.118c0,14.475,11.776,26.251,26.251,26.251s26.251-11.776,26.251-26.251s-11.776-26.251-26.251-26.251
	S348.874,367.643,348.874,382.118z M386.376,382.118c0,6.204-5.047,11.251-11.251,11.251s-11.251-5.047-11.251-11.251
	s5.047-11.251,11.251-11.251S386.376,375.914,386.376,382.118z"/>
<path d="M459.551,152.558c-11.719-5.648-24.533-8.512-38.086-8.512c-8.782,0-17.815,1.223-26.848,3.636
	c-13.391,3.576-27.057,9.825-40.717,18.598c-14.167-20.57-35.767-36.391-61.299-44.239c5.333-13.993,14.087-25.909,26.106-35.568
	c5.093,4.825,11.961,7.794,19.513,7.794c15.66,0,28.399-12.74,28.399-28.399s-12.74-28.399-28.399-28.399s-28.4,12.74-28.4,28.399
	c0,2.662,0.376,5.235,1.064,7.68c-15.475,11.962-26.525,27.042-32.952,44.96c-7.105-1.259-14.436-1.926-21.933-1.926
	c-7.498,0-14.829,0.667-21.934,1.926c-6.426-17.918-17.477-32.998-32.951-44.96c0.688-2.445,1.064-5.018,1.064-7.68
	c0-15.66-12.74-28.399-28.4-28.399s-28.399,12.74-28.399,28.399s12.74,28.399,28.399,28.399c7.553,0,14.421-2.969,19.514-7.795
	c12.02,9.659,20.773,21.575,26.106,35.568c-25.532,7.847-47.132,23.668-61.299,44.239c-13.659-8.773-27.326-15.022-40.717-18.598
	c-9.033-2.413-18.066-3.636-26.848-3.636c-13.553,0-26.367,2.864-38.085,8.512c-34.165,16.464-55.131,55.722-52.172,97.689
	c1.593,22.595,9.857,43.964,23.899,61.797c8.535,10.841,18.952,20.124,31.037,27.668c-14.187,25.505-16.766,52.594-7.166,77.014
	c6.473,16.468,18.053,30.652,33.487,41.019c14.863,9.984,32.302,15.746,50.432,16.661c20.191,1.022,40.381-4.26,57.677-14.674
	c9.326-5.631,17.898-12.78,25.584-21.26c12.188,7.99,26.159,12.391,40.772,12.391c14.613,0,28.584-4.401,40.773-12.391
	c7.686,8.481,16.258,15.629,25.584,21.26c17.254,10.418,37.528,15.694,57.677,14.674c18.129-0.916,35.568-6.677,50.432-16.661
	c15.434-10.367,27.014-24.551,33.487-41.019c9.6-24.42,7.021-51.509-7.166-77.014c12.084-7.544,22.501-16.827,31.037-27.668
	c14.042-17.833,22.307-39.202,23.899-61.797C514.681,208.28,493.715,169.022,459.551,152.558z M338.221,52.469
	c7.389,0,13.399,6.011,13.399,13.399s-6.011,13.399-13.399,13.399s-13.4-6.011-13.4-13.399S330.833,52.469,338.221,52.469z
	 M173.779,79.268c-7.389,0-13.399-6.011-13.399-13.399s6.011-13.399,13.399-13.399s13.4,6.011,13.4,13.399
	S181.168,79.268,173.779,79.268z M396.898,347.869c17.008,17.5,23.264,35.051,17.615,49.422
	c-5.322,13.538-20.255,23.207-37.162,24.061c-0.806,0.041-1.624,0.062-2.428,0.062c-16.693,0.001-32.255-8.946-44.173-25.292
	c5.267-12.827,8.043-27.069,8.043-41.393c0-3.224-0.141-6.49-0.418-9.708l0,0c-1.157-13.431-4.798-26.499-10.587-38.2
	c26.813-19.545,44.045-49.761,44.045-83.615c0-1.504-0.043-2.999-0.11-4.488c18.204-14.087,35.394-21.523,49.883-21.523
	c5.439,0,10.446,1.083,14.882,3.221c14.747,7.107,23.686,25.633,22.243,46.098c-0.896,12.716-7.646,43.778-50.846,57.536
	c-8.832,2.813-15.45,9.859-17.704,18.85C387.927,331.888,390.438,341.223,396.898,347.869z M315.167,390.725
	c-17.561,6.383-36.271,9.257-54.914,9.639c-21.959,0.451-44.327-2.42-64.947-10.204c-0.116-0.044-0.23-0.091-0.346-0.135
	c-4.151-10.248-6.457-21.564-6.727-33.026c0.284,0.111,0.578,0.214,0.864,0.324c4.85,1.864,10.048,3.556,15.158,4.946
	c4.001,1.086,8.119-1.272,9.206-5.269c1.087-3.997-1.272-8.119-5.269-9.206c-6.388-1.738-12.685-3.882-18.754-6.53
	c-0.094-0.041-0.186-0.084-0.28-0.125c1.303-9.185,3.942-18.069,7.777-26.201c11.822,6.468,24.709,10.886,38.159,13.14
	c13.791,2.315,28.031,2.353,41.821-0.002c13.446-2.255,26.33-6.672,38.15-13.138c3.834,8.131,6.472,17.013,7.775,26.196
	c-20.899,9.189-44.124,12.764-66.84,12.764c-6.452,0-12.978-0.323-19.396-0.959c-4.119-0.409-7.794,2.602-8.204,6.723
	c-0.409,4.122,2.601,7.795,6.723,8.204c6.908,0.685,13.932,1.033,20.876,1.033c22.963,0,46.31-3.507,67.766-11.899
	c-0.27,11.461-2.576,22.777-6.727,33.025c-0.116,0.044-0.229,0.091-0.346,0.135C316.186,390.351,315.677,390.54,315.167,390.725z
	 M256,131.583c48.55,0,97.149,35.227,100.633,85.888c3.157,45.91-32.193,84.286-75.381,94.442c-0.078,0.018-0.156,0.036-0.235,0.054
	c-16.402,3.781-33.639,3.818-50.039-0.001c-0.076-0.018-0.152-0.035-0.227-0.052c-43.42-10.21-75.583-46.111-75.583-88.711
	c0-51.384,46.364-89.066,95.295-91.484C252.307,131.628,254.154,131.583,256,131.583z M184.213,306.818
	c-5.79,11.701-9.43,24.769-10.587,38.201c-0.278,3.218-0.418,6.484-0.418,9.708c0,14.323,2.776,28.564,8.042,41.391
	c-12.49,17.13-28.977,26.121-46.602,25.233c-16.905-0.854-31.838-10.523-37.16-24.061c-5.649-14.371,0.606-31.922,17.614-49.421
	c13.548-13.939,7.469-37.944-10.987-43.822c-43.201-13.758-49.95-44.82-50.846-57.536c-1.443-20.465,7.496-38.991,22.243-46.098
	c4.436-2.138,9.443-3.221,14.882-3.221c14.489,0,31.679,7.436,49.883,21.523c-0.067,1.489-0.11,2.984-0.11,4.488
	C140.167,257.057,157.4,287.273,184.213,306.818z M181.89,446.892c-14.706,8.88-31.987,13.409-49.166,12.534
	c-15.412-0.778-30.221-5.665-42.825-14.132c-12.893-8.66-22.537-20.436-27.891-34.055c-8.759-22.282-5.356-46.527,9.843-70.114
	c2.235-3.469,1.194-8.519-2.717-10.649c-13.19-7.184-24.35-16.507-33.171-27.711c-12.176-15.462-19.341-33.987-20.722-53.572
	c-2.531-35.896,15.039-69.3,43.721-83.122c17.005-8.194,36.513-8.715,54.551-3.897c12.041,3.215,24.445,8.933,36.951,17.024
	c-3.575,7.241-6.232,14.776-7.952,22.544c-20.674-14.39-48.819-26.737-73.512-14.841c-20.229,9.75-32.564,34.129-30.694,60.666
	c1.449,20.557,10.127,37.839,25.793,51.366c12.304,10.624,26.076,16.418,35.463,19.408c8.041,2.561,10.671,13.018,4.784,19.074
	c-21.356,21.973-28.75,45.186-20.818,65.365c8.342,21.221,31.418,33.634,53.549,33.634c19.466,0,37.466-8.995,51.66-25.581
	c4.25,6.889,9.215,13.022,14.745,18.292C196.944,436.213,189.705,442.173,181.89,446.892z M219.035,422.74
	c-0.105-0.094-0.207-0.191-0.319-0.279c-4.74-3.75-9.069-8.217-12.882-13.243c0.072,0.019,0.147,0.034,0.219,0.053
	c16.249,4.296,33.157,6.138,49.948,6.138c16.65,0,33.728-1.909,49.951-6.139c0.071-0.019,0.145-0.034,0.216-0.052
	c-3.813,5.026-8.143,9.493-12.882,13.243c-0.111,0.088-0.213,0.185-0.319,0.279c-10.803,8.421-23.579,13.123-36.966,13.123
	S229.838,431.161,219.035,422.74z M496.76,249.193c-1.381,19.584-8.546,38.109-20.722,53.572
	c-8.82,11.203-19.98,20.526-33.169,27.71c-3.795,2.067-5.063,7.011-2.718,10.649c15.199,23.587,18.602,47.833,9.843,70.115
	c-5.354,13.619-14.998,25.395-27.891,34.055c-12.604,8.466-27.413,13.353-42.825,14.132c-17.201,0.871-34.44-3.642-49.166-12.534
	c-7.815-4.719-15.054-10.679-21.592-17.767c5.531-5.27,10.495-11.404,14.745-18.292c14.194,16.587,32.196,25.583,51.661,25.581
	c22.14,0,45.198-12.391,53.548-33.635c7.932-20.177,0.539-43.39-20.817-65.363c-5.897-6.067-3.246-16.519,4.781-19.075
	c9.387-2.99,23.16-8.784,35.465-19.408c15.665-13.526,24.343-30.809,25.792-51.366c1.871-26.536-10.464-50.916-30.694-60.665
	c-24.627-11.869-52.904,0.497-73.512,14.841c-1.719-7.768-4.377-15.303-7.952-22.544c12.505-8.091,24.91-13.809,36.951-17.024
	c18.047-4.82,37.544-4.3,54.551,3.897C481.72,179.893,499.291,213.297,496.76,249.193z"/>
<g>
</g>
<g>
</g>
<g>
</g>
<g>
</g>
<g>
</g>
<g>
</g>
<g>
</g>
<g>
</g>
<g>
</g>
<g>
</g>
<g>
</g>
<g>
</g>
<g>
</g>
<g>
</g>
<g>
</g>
</svg>
