<?xml version="1.0" encoding="iso-8859-1"?>
<!-- Generator: Adobe Illustrator 19.0.0, SVG Export Plug-In . SVG Version: 6.00 Build 0)  -->
<svg version="1.1" id="Capa_1" xmlns="http://www.w3.org/2000/svg" xmlns:xlink="http://www.w3.org/1999/xlink" x="0px" y="0px"
	 viewBox="0 0 512 512" style="enable-background:new 0 0 512 512;" xml:space="preserve">
<path style="fill:#FAA330;" d="M260.831,367.45l-125.223,27.556l21.531,83.151c4.016,15.51,18.011,26.343,34.033,26.343H330.49
	c16.022,0,30.017-10.833,34.033-26.343l21.531-83.151L260.831,367.45z"/>
<path style="fill:#F09318;" d="M207.14,478.157l-21.531-83.151l100.223-22.055l-25-5.501l-125.223,27.556l21.531,83.151
	c4.016,15.51,18.011,26.343,34.033,26.343h50C225.151,504.5,211.156,493.667,207.14,478.157z"/>
<g>
	<path style="fill:#D9D9D9;" d="M382.071,57.576l-29.17,10.97l26.809,28.66l12.89-28.374
		C395.674,62.064,389.028,54.959,382.071,57.576z"/>
	<path style="fill:#D9D9D9;" d="M418.356,181.657l-28.31-13.03l-1.531,39.214l29.24-10.783
		C424.729,194.485,425.108,184.764,418.356,181.657z"/>
	<path style="fill:#D9D9D9;" d="M397.44,292.127l-22.959-21.075l-13.468,36.86l31.137-1.31
		C399.577,306.291,402.915,297.154,397.44,292.127z"/>
	<path style="fill:#D9D9D9;" d="M103.306,181.657l28.31-13.03l1.531,39.214l-29.24-10.783
		C96.934,194.485,96.554,184.764,103.306,181.657z"/>
	<path style="fill:#D9D9D9;" d="M124.223,292.127l22.959-21.075l13.468,36.86l-31.137-1.31
		C122.086,306.291,118.747,297.154,124.223,292.127z"/>
	<path style="fill:#D9D9D9;" d="M268.912,12.483c-3.339-6.644-12.823-6.644-16.161,0l-11.54,22.965h39.241L268.912,12.483z"/>
</g>
<path style="fill:#00AE95;" d="M164.173,339.894c0,0-138.129-308.927,96.658-308.927s96.658,308.927,96.658,308.927l-96.658,27.556
	L164.173,339.894z"/>
<path style="fill:#2FC8B4;" d="M309.871,339.894c0,0,112.978-308.927-49.04-308.927s-49.04,308.927-49.04,308.927l49.04,27.556
	L309.871,339.894z"/>
<path style="fill:#FF5E6B;" d="M148.132,81.382c4.342-17.555-18-28.939-29.65-15.108l0,0c-15.354-9.554-33.085,8.177-23.531,23.531
	c-13.831,11.65-2.447,33.992,15.108,29.65l0,0l0,0c6.806,16.754,31.572,12.831,32.868-5.206l0,0l0,0
	C160.964,112.954,164.886,88.188,148.132,81.382L148.132,81.382L148.132,81.382z"/>
<g>
	<circle style="fill:#FFCE1C;" cx="122.74" cy="94.07" r="11.06"/>
	<path style="fill:#FFCE1C;" d="M386.054,339.894H135.608c-6.801,0-12.314,5.513-12.314,12.314v30.484
		c0,6.801,5.513,12.314,12.314,12.314h250.446c6.801,0,12.314-5.513,12.314-12.314v-30.484
		C398.368,345.408,392.855,339.894,386.054,339.894z"/>
</g>
<path style="fill:#FAA330;" d="M173.294,382.692v-30.483c0-6.801,5.513-12.314,12.314-12.314h-50
	c-6.801,0-12.314,5.513-12.314,12.314v30.483c0,6.801,5.513,12.314,12.314,12.314h50
	C178.807,395.007,173.294,389.493,173.294,382.692z"/>
<path d="M203.689,144.04c-4.142,0-7.5,3.358-7.5,7.5v10.344c0,4.142,3.358,7.5,7.5,7.5s7.5-3.358,7.5-7.5V151.54
	C211.189,147.397,207.831,144.04,203.689,144.04z"/>
<path d="M317.999,144.04c-4.142,0-7.5,3.358-7.5,7.5v10.344c0,4.142,3.358,7.5,7.5,7.5s7.5-3.358,7.5-7.5V151.54
	C325.499,147.397,322.142,144.04,317.999,144.04z"/>
<path d="M279.887,155.517c-3.119-2.726-7.857-2.407-10.583,0.711c-2.042,2.337-5.126,3.677-8.46,3.677
	c-3.333,0-6.417-1.34-8.46-3.677c-2.726-3.119-7.464-3.438-10.583-0.711c-3.119,2.726-3.438,7.464-0.711,10.583
	c4.891,5.597,12.091,8.806,19.754,8.806s14.863-3.209,19.754-8.805C283.324,162.981,283.005,158.243,279.887,155.517z"/>
<path d="M122.756,112.628c4.958,0,9.619-1.931,13.125-5.437c7.237-7.237,7.237-19.013,0-26.25
	c-3.506-3.506-8.167-5.437-13.125-5.437s-9.619,1.931-13.125,5.437c-7.237,7.237-7.237,19.013,0,26.25
	C113.137,110.697,117.798,112.628,122.756,112.628z M120.237,91.547c0.908-0.908,1.968-1.043,2.519-1.043s1.611,0.135,2.519,1.043
	c1.389,1.389,1.389,3.649,0,5.038c-0.908,0.908-1.968,1.043-2.519,1.043s-1.611-0.135-2.519-1.043
	C118.849,95.196,118.849,92.936,120.237,91.547z"/>
<path d="M82.829,111.19c3.656,10.015,12.763,16.482,23.151,16.315c3.053,4.3,7.327,7.409,12.277,8.972
	c-1.325,9.772-1.979,20.094-1.96,30.95l-16.113,7.416c-5.843,2.689-9.456,8.58-9.205,15.007s4.312,12.018,10.347,14.243l18.222,6.72
	c2.637,18.825,6.873,38.863,12.712,60.047c0.275,0.996,0.551,1.979,0.827,2.962l-13.922,12.78
	c-4.738,4.349-6.374,11.063-4.166,17.105c2.207,6.041,7.786,10.12,14.212,10.39l17.031,0.716c2.547,7.054,4.845,13,6.682,17.581
	h-17.302c-10.926,0-19.814,8.889-19.814,19.814v30.483c0,8.815,5.789,16.296,13.762,18.861l20.323,78.484
	c4.872,18.82,21.853,31.964,41.292,31.964h139.317c19.439,0,36.42-13.144,41.294-31.963l20.323-78.484
	c7.973-2.565,13.762-10.046,13.762-18.861v-30.483c0-10.926-8.889-19.814-19.814-19.814H368.77
	c1.84-4.584,4.141-10.529,6.689-17.582l17.02-0.716c6.426-0.27,12.004-4.349,14.212-10.39c2.207-6.041,0.572-12.755-4.167-17.105
	l-13.912-12.77c2.517-8.956,4.96-18.487,7.172-28.415c2.654-11.912,4.759-23.455,6.313-34.587l18.266-6.736
	c6.034-2.225,10.096-7.816,10.347-14.243c0.251-6.427-3.362-12.318-9.205-15.007l-16.149-7.433c0.008-2.846-0.021-5.662-0.104-8.43
	c-0.792-26.088-5.719-48.739-14.649-67.591l8.838-19.456c2.239-4.928,1.837-10.57-1.075-15.092
	c-2.953-4.585-7.922-7.322-13.292-7.322c-1.908,0-3.801,0.348-5.629,1.036l-14.881,5.596c-20.022-17.915-47.195-28.513-81.216-31.67
	l-7.721-15.365C272.801,3.493,267.137,0,260.844,0s-11.957,3.493-14.783,9.115l-7.722,15.368
	c-37.604,3.496-66.872,16.103-87.344,37.63c-4.739-5.95-12.072-9.5-19.665-9.5c-5.216,0-10.122,1.654-14.255,4.742
	c-2.492-0.843-5.075-1.277-7.656-1.277c-8.877,0-17.146,4.96-21.583,12.945c-3.353,6.036-3.935,12.954-1.787,19.354
	C81.177,94.882,79.912,103.199,82.829,111.19z M106.515,190.02c-0.184-0.068-0.526-0.194-0.548-0.755
	c-0.022-0.561,0.31-0.714,0.488-0.796l10.353-4.765c0.203,3.421,0.466,6.888,0.79,10.403L106.515,190.02z M129.84,299.11
	c-0.196-0.008-0.561-0.024-0.754-0.551s0.076-0.774,0.221-0.907l8.528-7.828c1.053,3.374,2.102,6.631,3.136,9.754L129.84,299.11z
	 M386.067,347.394c2.655,0,4.814,2.16,4.814,4.814v30.483c0,2.655-2.16,4.814-4.814,4.814H207.562c-4.142,0-7.5,3.358-7.5,7.5
	s3.358,7.5,7.5,7.5h168.815l-19.103,73.771C354.115,488.479,343.106,497,330.502,497H191.185c-12.604,0-23.613-8.521-26.772-20.723
	l-19.103-73.771h32.269c4.142,0,7.5-3.358,7.5-7.5s-3.358-7.5-7.5-7.5h-41.958c-2.655,0-4.814-2.16-4.814-4.814v-30.483
	c0-2.655,2.159-4.814,4.814-4.814h250.446V347.394z M320.416,332.394c3.769-11.264,10.073-31.175,16.375-55.848
	c1.025-4.013-1.397-8.098-5.411-9.123c-4.013-1.025-8.098,1.397-9.123,5.411c-7.146,27.976-14.449,50.134-17.689,59.56H217.12
	c-4.785-13.936-18.447-55.718-27.487-103.374c-10.025-52.849-16.335-123.913,10.534-162.34
	c12.996-18.587,32.298-27.817,58.959-28.196c0.661-0.005,1.321-0.014,1.982-0.013c25.489,0.055,44.302,8.013,57.498,24.334
	c17.75,21.952,33.956,71.257,10.361,181.483c-0.867,4.05,1.714,8.037,5.764,8.904c4.054,0.868,8.037-1.714,8.904-5.764
	c8.424-39.354,12.474-74.422,12.036-104.231c-0.579-39.473-9.125-69.694-25.401-89.823c-0.801-0.99-1.624-1.949-2.461-2.89
	c12.444,5.419,23.043,12.662,31.756,21.712c6.313,6.557,11.656,14.211,15.864,22.342c40.034,77.406-12.074,211.789-22.889,237.856
	L320.416,332.394L320.416,332.394z M392.381,297.652c0.145,0.133,0.414,0.38,0.221,0.907s-0.558,0.543-0.753,0.551l-11.117,0.467
	c1.033-3.121,2.081-6.374,3.133-9.743L392.381,297.652z M415.721,189.265c-0.021,0.561-0.364,0.687-0.548,0.755l-11.132,4.105
	c0.326-3.527,0.593-7.008,0.799-10.44l10.394,4.784C415.412,188.551,415.743,188.704,415.721,189.265z M384.724,64.595
	c0.133-0.05,0.25-0.076,0.349-0.076c0.272,0,0.544,0.23,0.681,0.444c0.186,0.288,0.151,0.498,0.03,0.765l-4.371,9.623
	c-1.761-2.565-3.61-5.043-5.559-7.42L384.724,64.595z M259.465,15.851c0.284-0.564,0.748-0.851,1.38-0.851
	c0.632,0,1.095,0.286,1.379,0.85l3.853,7.669c-1.729-0.034-3.472-0.052-5.232-0.052s-3.504,0.019-5.233,0.053L259.465,15.851z
	 M193.872,50.486c-2.115,2.382-4.119,4.913-6.002,7.606c-23.992,34.319-28.344,92.837-12.935,173.927
	c8.32,43.783,20.456,82.695,26.353,100.375h-32.145c-9.05-21.776-46.987-119.187-35.739-195.922
	c7.699-2.355,13.552-8.172,15.928-15.847c0.764-0.24,1.5-0.525,2.237-0.837c7.761-3.286,13.119-10.458,14.428-18.733
	c1.363-8.611-1.86-17.444-8.694-22.915c-0.088-0.071-0.17-0.147-0.26-0.216C166.582,66.156,178.892,57.005,193.872,50.486z
	 M99.796,95.541c2.851-2.402,3.506-6.534,1.536-9.699c-3.832-6.157,0.621-14.765,8.086-14.765c1.725,0,3.446,0.526,5.114,1.564
	c3.166,1.97,7.297,1.315,9.699-1.536c2.431-2.887,5.203-3.493,7.099-3.493c5.045,0,9.732,4.001,9.853,9.158
	c0.022,0.945-0.092,1.892-0.319,2.81c-0.732,2.961,0.481,6.203,3.007,7.956c0.453,0.315,0.939,0.585,1.451,0.793
	c9.23,3.749,6.944,17.73-2.921,18.438c-3.718,0.267-6.676,3.225-6.943,6.944c-0.708,9.854-14.695,12.135-18.438,2.92
	c-1.17-2.88-3.955-4.678-6.946-4.678c-1.494,0-2.911,0.553-4.413,0.553c-4.711,0-7.654-3.48-8.742-6.461
	C96.241,104.188,95.163,99.443,99.796,95.541z"/>
<g>
</g>
<g>
</g>
<g>
</g>
<g>
</g>
<g>
</g>
<g>
</g>
<g>
</g>
<g>
</g>
<g>
</g>
<g>
</g>
<g>
</g>
<g>
</g>
<g>
</g>
<g>
</g>
<g>
</g>
</svg>
