<?xml version="1.0" encoding="iso-8859-1"?>
<!-- Generator: Adobe Illustrator 19.0.0, SVG Export Plug-In . SVG Version: 6.00 Build 0)  -->
<svg version="1.1" id="Capa_1" xmlns="http://www.w3.org/2000/svg" xmlns:xlink="http://www.w3.org/1999/xlink" x="0px" y="0px"
	 viewBox="0 0 511.999 511.999" style="enable-background:new 0 0 511.999 511.999;" xml:space="preserve">
<g>
	
		<ellipse transform="matrix(-0.894 -0.448 0.448 -0.894 304.519 326.3297)" style="fill:#00AE95;" cx="190.851" cy="127.153" rx="71.719" ry="53.787"/>
	
		<ellipse transform="matrix(-0.894 0.448 -0.448 -0.894 665.2311 96.9252)" style="fill:#00AE95;" cx="321.153" cy="127.132" rx="71.719" ry="53.787"/>
</g>
<ellipse style="fill:#2FC8B4;" cx="255.999" cy="82.353" rx="56.126" ry="74.834"/>
<path style="fill:#C86D5C;" d="M465.557,209.895H46.442c-18.654,0-33.775,15.122-33.775,33.775v161.375
	c0,42.918,27.975,80.57,68.845,93.667c0.226,0.072,0.452,0.146,0.678,0.22l0,0c22.584,7.396,46.939,7.396,69.523,0l0,0
	c22.584-7.396,46.939-7.396,69.523,0l0,0c22.584,7.396,46.939,7.396,69.523,0l0,0c22.584-7.396,46.939-7.396,69.523,0l0,0
	c22.584,7.396,46.939,7.396,69.523,0l0,0c0.226-0.074,0.452-0.147,0.678-0.22c40.871-13.098,68.845-50.749,68.845-93.667V243.67
	C499.332,225.017,484.211,209.895,465.557,209.895z"/>
<path style="fill:#B24D40;" d="M112.188,498.932L112.188,498.932c-0.226-0.074-0.452-0.147-0.678-0.22
	c-40.871-13.096-68.845-50.748-68.845-93.666V243.67c0-18.654,15.122-33.775,33.775-33.775H46.442
	c-18.654,0-33.775,15.122-33.775,33.775v161.375c0,42.918,27.975,80.57,68.845,93.667c0.226,0.073,0.452,0.146,0.678,0.22l0,0
	c16.115,5.278,33.129,6.769,49.761,4.515C125.273,502.543,118.657,501.052,112.188,498.932z"/>
<path style="fill:#FF8C4F;" d="M340.2,184.453c-16.21-33.541-47.582-49.715-84.201-49.715s-67.992,16.174-84.201,49.715
	c-19.355,40.052-26.712,97.172-10.125,139.362c13.869,35.275,44.353,56.773,68.805,83.979c4.521,5.03,9.522,10.861,12.124,17.415
	c2.155,5.428,7.555,8.866,13.396,8.866c5.84,0,11.241-3.439,13.396-8.866c2.602-6.554,7.604-12.385,12.124-17.415
	c24.452-27.206,54.937-48.703,68.806-83.979C366.912,281.625,359.556,224.504,340.2,184.453z"/>
<path style="fill:#EE6B28;" d="M268.602,425.208c-2.602-6.554-7.604-12.386-12.124-17.416
	c-24.452-27.206-54.937-48.703-68.805-83.979c-16.587-42.189-9.23-99.31,10.125-139.362c14.255-29.497,40.239-45.556,71.202-49.001
	c-4.246-0.472-8.583-0.713-12.999-0.713c-36.619,0-67.992,16.174-84.201,49.715c-19.355,40.052-26.712,97.172-10.125,139.362
	c13.869,35.276,44.353,56.773,68.805,83.979c4.521,5.03,9.522,10.86,12.124,17.416c2.155,5.428,7.555,8.866,13.396,8.866
	c5.512,0,10.629-3.065,12.999-7.972C268.857,425.81,268.723,425.513,268.602,425.208z"/>
<g>
	<ellipse style="fill:#DF8B78;" cx="102.701" cy="279.948" rx="19.62" ry="13.378"/>
	<ellipse style="fill:#DF8B78;" cx="132.859" cy="420.276" rx="19.62" ry="13.378"/>
	<ellipse style="fill:#DF8B78;" cx="66.354" cy="350.112" rx="22.507" ry="15.346"/>
	<ellipse style="fill:#DF8B78;" cx="409.297" cy="279.948" rx="19.62" ry="13.378"/>
	<ellipse style="fill:#DF8B78;" cx="379.139" cy="420.276" rx="19.62" ry="13.378"/>
	<ellipse style="fill:#DF8B78;" cx="445.654" cy="350.112" rx="22.507" ry="15.346"/>
</g>
<path d="M199.874,247.733c-4.142,0-7.499,3.358-7.499,7.499v10.158c0,4.142,3.358,7.499,7.499,7.499
	c4.142,0,7.499-3.358,7.499-7.499v-10.158C207.374,251.091,204.016,247.733,199.874,247.733z"/>
<path d="M312.124,247.733c-4.142,0-7.499,3.358-7.499,7.499v10.158c0,4.142,3.358,7.499,7.499,7.499s7.499-3.358,7.499-7.499
	v-10.158C319.624,251.091,316.266,247.733,312.124,247.733z"/>
<path d="M274.787,259.038c-3.119-2.726-7.855-2.408-10.582,0.711c-1.98,2.266-4.972,3.565-8.206,3.565s-6.225-1.299-8.206-3.565
	c-2.726-3.119-7.463-3.437-10.582-0.711c-3.119,2.726-3.437,7.463-0.711,10.582c4.829,5.525,11.936,8.692,19.498,8.692
	s14.67-3.168,19.498-8.692C278.224,266.501,277.906,261.764,274.787,259.038z"/>
<path d="M129.825,279.925c0-11.707-11.913-20.877-27.12-20.877c-15.208,0-27.121,9.17-27.121,20.877s11.913,20.877,27.121,20.877
	C117.912,300.802,129.825,291.632,129.825,279.925z M102.705,285.803c-7.287,0-12.122-3.538-12.122-5.879
	c0-2.34,4.835-5.879,12.122-5.879c7.286,0,12.121,3.539,12.121,5.879C114.826,282.265,109.992,285.803,102.705,285.803z"/>
<path d="M132.86,399.376c-15.207,0-27.12,9.17-27.12,20.877c0,11.707,11.913,20.877,27.12,20.877
	c15.208,0,27.121-9.17,27.121-20.877S148.068,399.376,132.86,399.376z M132.86,426.132c-7.286,0-12.121-3.539-12.121-5.879
	s4.835-5.879,12.121-5.879c7.287,0,12.122,3.539,12.122,5.879S140.147,426.132,132.86,426.132z"/>
<path d="M66.35,327.244c-16.827,0-30.007,10.035-30.007,22.845s13.181,22.845,30.007,22.845s30.007-10.034,30.007-22.845
	S83.176,327.244,66.35,327.244z M66.35,357.935c-9.161,0-15.008-4.647-15.008-7.846c0-3.2,5.847-7.846,15.008-7.846
	s15.008,4.647,15.008,7.846C81.358,353.288,75.511,357.935,66.35,357.935z"/>
<path d="M436.415,279.925c0-11.707-11.913-20.877-27.121-20.877c-15.207,0-27.12,9.17-27.12,20.877s11.913,20.877,27.12,20.877
	C424.501,300.802,436.415,291.632,436.415,279.925z M409.294,285.803c-7.286,0-12.121-3.538-12.121-5.879
	c0-2.34,4.835-5.879,12.121-5.879c7.287,0,12.122,3.539,12.122,5.879C421.416,282.265,416.581,285.803,409.294,285.803z"/>
<path d="M379.139,399.376c-15.208,0-27.121,9.17-27.121,20.877c0,11.707,11.913,20.877,27.121,20.877
	c15.207,0,27.12-9.17,27.12-20.877C406.259,408.546,394.346,399.376,379.139,399.376z M379.139,426.132
	c-7.287,0-12.122-3.539-12.122-5.879s4.835-5.879,12.122-5.879c7.286,0,12.121,3.539,12.121,5.879S386.426,426.132,379.139,426.132z
	"/>
<path d="M445.649,327.244c-16.826,0-30.007,10.035-30.007,22.845s13.181,22.845,30.007,22.845c16.827,0,30.007-10.034,30.007-22.845
	S462.475,327.244,445.649,327.244z M445.649,357.935c-9.161,0-15.008-4.647-15.008-7.846c0-3.2,5.847-7.846,15.008-7.846
	s15.008,4.647,15.008,7.846C460.657,353.288,454.81,357.935,445.649,357.935z"/>
<path d="M465.557,202.375h-109.98c-2.361-6.945-5.048-13.632-8.026-19.929c0.355-0.172,0.713-0.341,1.065-0.518
	c39.05-19.565,58.504-60.062,43.368-90.275c-9.361-18.684-30.027-29.838-55.281-29.838c-6.178,0-12.437,0.685-18.691,2.009
	c-2.563-14.568-8.132-27.986-16.324-38.907C289.634,8.849,273.41,0,256,0s-33.634,8.849-45.686,24.918
	c-8.191,10.921-13.761,24.339-16.324,38.907c-6.255-1.324-12.513-2.009-18.692-2.009c-25.254,0-45.919,11.154-55.281,29.838
	c-15.137,30.212,4.318,70.708,43.368,90.274c0.352,0.176,0.71,0.345,1.064,0.518c-2.912,6.159-5.61,12.845-8.016,19.929H46.442
	c-22.759,0-41.275,18.517-41.275,41.275v161.375c0,46.101,29.762,86.614,74.048,100.805l0.641,0.208
	c24.268,7.948,49.923,7.948,74.192,0c21.214-6.947,43.642-6.947,64.855,0c24.269,7.948,49.925,7.948,74.192,0
	c21.215-6.947,43.641-6.947,64.856,0c12.136,3.975,24.615,5.961,37.097,5.961c12.479,0,24.96-1.987,37.091-5.96l0.636-0.207
	c44.295-14.195,74.057-54.707,74.057-100.808V243.649C506.833,220.891,488.316,202.375,465.557,202.375z M319.564,78.827
	c5.754-1.336,11.497-2.012,17.138-2.012c19.455,0,35.107,8.059,41.871,21.558c11.433,22.817-5.021,54.285-36.677,70.145
	c-0.552,0.277-1.11,0.548-1.673,0.814c-5.226-7.895-11.447-14.767-18.621-20.566c23.121-15.393,34.549-30.561,35.083-31.279
	c2.466-3.32,1.775-8.002-1.54-10.476c-3.314-2.474-8.01-1.79-10.49,1.519c-0.126,0.167-12.29,16.168-36.67,31.141
	c-1.499-0.819-3.016-1.609-4.561-2.348c0.26-0.012,1.165-1.757,1.332-2.014c10.133-15.614,14.86-34.414,14.869-52.928
	c0-0.016,0-0.032,0-0.048C319.625,81.17,319.605,80.004,319.564,78.827z M256,14.999c24.721,0,45.177,25.683,48.221,58.787
	c0.002,0.028,0.001,0.057,0.004,0.085c1.915,20.233-2.627,41.699-15.352,57.889c-6.323-1.869-12.954-3.161-19.867-3.875
	c-1.83-0.192-3.671-0.348-5.508-0.454V68.863c0-4.142-3.358-7.499-7.499-7.499c-4.142,0-7.499,3.358-7.499,7.499v58.569
	c-1.694,0.098-3.391,0.237-5.079,0.41c-0.143,0.015-0.286,0.029-0.428,0.044c-6.913,0.713-13.544,2.006-19.867,3.875
	c-12.723-16.181-17.135-37.683-15.352-57.889c0.002-0.025,0.001-0.049,0.003-0.074C210.819,40.687,231.276,14.999,256,14.999z
	 M133.427,98.373c6.763-13.499,22.415-21.558,41.871-21.558c5.641,0,11.385,0.676,17.14,2.013c-0.042,1.185-0.062,2.355-0.062,3.506
	c0,19.041,4.992,38.396,15.722,54.265c0.162,0.24,0.315,0.487,0.479,0.725c-1.546,0.739-3.062,1.529-4.562,2.349
	c-24.274-14.907-36.438-30.833-36.667-31.138c-2.472-3.317-7.163-4.006-10.485-1.538c-3.325,2.47-4.018,7.167-1.548,10.492
	c0.535,0.719,11.962,15.887,35.083,31.279c-7.173,5.8-13.395,12.67-18.62,20.566c-0.564-0.267-1.121-0.538-1.674-0.815
	C138.446,152.658,121.994,121.19,133.427,98.373z M491.834,405.026c0,39.557-25.573,74.328-63.644,86.528l-0.715,0.231
	c-21.214,6.947-43.641,6.948-64.856,0c-24.268-7.947-49.923-7.948-74.192,0c-21.214,6.948-43.641,6.948-64.855,0
	c-24.269-7.947-49.924-7.948-74.193,0c-21.214,6.948-43.641,6.948-64.86-0.001l-0.719-0.233
	c-38.062-12.197-63.635-46.969-63.635-86.525V243.649c0-14.489,11.788-26.276,26.276-26.276h105.471
	c-1.988,7.632-5.159,25.357-5.159,26.497c-3.336,25.1-2.365,51.63,5.4,75.514c10.972,33.751,37.919,57.758,62.128,82.212
	c5.835,5.894,11.831,11.888,16.794,18.555c1.797,2.413,3.446,5,4.56,7.805c3.229,8.133,11.414,13.598,20.366,13.598
	c8.74,0,17.125-5.433,20.366-13.599c1.589-4.002,4.43-7.862,7.552-11.545c7.516-8.871,15.917-16.974,24.202-25.114
	c13.405-13.143,27.267-26.733,37.881-43.026c2.261-3.471,1.28-8.116-2.19-10.377c-3.319-2.163-8.098-1.309-10.378,2.19
	c-15.579,23.909-38.572,41.627-57.491,62.678c-5.31,5.908-10.555,12.198-13.517,19.66c-1.019,2.566-3.722,4.134-6.426,4.134
	c-5.236,0-6.346-4.521-8.374-8.312c-3.138-5.868-7.545-11.008-11.567-15.483c-18.855-20.972-41.694-38.568-57.28-62.352
	c-16.74-25.538-20.71-56.518-18.05-86.431c2.028-22.797,7.843-45.639,17.824-66.281c14.378-29.746,45.064-45.478,77.448-45.478
	c32.085,0,63.187,15.971,77.449,45.478c9.283,19.206,14.927,40.302,17.316,61.467c0.008,0.069,0.014,0.139,0.022,0.208
	c2.396,21.791,1.561,44.555-5.256,65.532c-1.255,3.861,0.972,8.202,4.83,9.455c8.573,2.786,10.525-7.939,11.967-13.708
	c6.986-27.892,6.217-60.944-2.235-93.275h105.466c14.489,0,26.276,11.788,26.276,26.276v161.374H491.834z"/>
<g>
</g>
<g>
</g>
<g>
</g>
<g>
</g>
<g>
</g>
<g>
</g>
<g>
</g>
<g>
</g>
<g>
</g>
<g>
</g>
<g>
</g>
<g>
</g>
<g>
</g>
<g>
</g>
<g>
</g>
</svg>
