<?xml version="1.0" encoding="iso-8859-1"?>
<!-- Generator: Adobe Illustrator 19.0.0, SVG Export Plug-In . SVG Version: 6.00 Build 0)  -->
<svg version="1.1" id="Capa_1" xmlns="http://www.w3.org/2000/svg" xmlns:xlink="http://www.w3.org/1999/xlink" x="0px" y="0px"
	 viewBox="0 0 512.001 512.001" style="enable-background:new 0 0 512.001 512.001;" xml:space="preserve">
<g>
	<path style="fill:#2FC8B4;" d="M150.969,420.428c1.529,19.411,15.747,39.446,38.225,50.719s47.039,10.685,63.509,0.3
		c-1.529-19.411-15.747-39.446-38.225-50.719S167.44,410.044,150.969,420.428z"/>
	<path style="fill:#2FC8B4;" d="M361.031,420.428c-1.529,19.411-15.747,39.446-38.225,50.719
		c-22.478,11.273-47.039,10.685-63.509,0.3c1.529-19.411,15.747-39.446,38.225-50.719S344.56,410.044,361.031,420.428z"/>
</g>
<rect x="241.24" y="338.92" style="fill:#00AE95;" width="29.525" height="165.58"/>
<path style="fill:#FF5E6B;" d="M417.954,231.548L417.954,231.548c50.721-26.83,37.304-102.918-19.534-110.783l0,0l0,0
	c21.608-53.155-37.578-102.818-86.174-72.308l0,0l0,0c-17.615-54.609-94.877-54.609-112.492,0l0,0l0,0
	c-48.596-30.51-107.782,19.153-86.174,72.308l0,0l0,0c-56.838,7.865-70.254,83.953-19.534,110.783l0,0l0,0
	c-38.485,42.559,0.146,109.47,56.246,97.421l0,0l0,0c-2.125,57.34,70.478,83.765,105.708,38.475l0,0l0,0
	c35.23,45.291,107.832,18.866,105.708-38.475l0,0l0,0C417.808,341.019,456.439,274.108,417.954,231.548L417.954,231.548z"/>
<ellipse style="fill:#FFCE1C;" cx="256" cy="198.95" rx="131.53" ry="117.73"/>
<path style="fill:#FAA330;" d="M154.472,198.947c0-60.479,50.952-110.297,116.528-116.962c-4.924-0.5-9.927-0.767-15-0.767
	c-72.641,0-131.528,52.709-131.528,117.729S183.359,316.676,256,316.676c5.073,0,10.076-0.266,15-0.767
	C205.424,309.244,154.472,259.426,154.472,198.947z"/>
<path d="M199.999,201.625v-11.493c0-4.142-3.358-7.5-7.5-7.5s-7.5,3.358-7.5,7.5v11.493c0,4.142,3.358,7.5,7.5,7.5
	S199.999,205.768,199.999,201.625z"/>
<path d="M327.001,201.625v-11.493c0-4.142-3.358-7.5-7.5-7.5s-7.5,3.358-7.5,7.5v11.493c0,4.142,3.358,7.5,7.5,7.5
	S327.001,205.768,327.001,201.625z"/>
<path d="M256,215.26c8.272,0,16.043-3.462,21.32-9.499c2.726-3.118,2.408-7.856-0.711-10.583s-7.856-2.408-10.583,0.711
	c-2.427,2.777-6.082,4.37-10.026,4.37s-7.598-1.593-10.026-4.37c-2.725-3.119-7.463-3.437-10.583-0.711
	c-3.119,2.726-3.437,7.464-0.711,10.583C239.957,211.798,247.727,215.26,256,215.26z"/>
<path d="M105.547,184.669l12.04,2.488c-0.401,3.897-0.614,7.827-0.614,11.79c0,23.208,7.054,44.958,19.32,63.614l-12.018,7.068
	c-3.57,2.1-4.762,6.696-2.663,10.267c2.01,3.418,6.679,4.773,10.267,2.663l13.45-7.911c15.017,17.77,35.178,31.827,58.467,40.357
	l-4.125,13.616c-1.201,3.964,1.039,8.151,5.003,9.353c3.996,1.208,8.057-1.119,9.352-5.004l4.096-13.519
	c12.046,3.076,24.752,4.725,37.878,4.725s25.832-1.648,37.879-4.725c0,0,4.09,13.5,4.096,13.52c1.183,3.905,5.463,6.18,9.353,5.003
	c3.964-1.201,6.204-5.389,5.003-9.353l-4.125-13.617c23.289-8.53,43.45-22.587,58.467-40.357l13.45,7.911
	c3.53,2.075,8.189,0.87,10.267-2.663c2.1-3.57,0.908-8.167-2.663-10.267l-12.018-7.068c12.266-18.656,19.32-40.405,19.32-63.614
	c0-3.976-0.216-7.906-0.621-11.789l12.046-2.489c4.057-0.838,6.666-4.806,5.827-8.863c-0.838-4.056-4.807-6.665-8.862-5.827
	l-11.553,2.387c-6.396-26.547-22.161-49.981-44.015-67.341l7.327-10.369c2.391-3.383,1.586-8.063-1.797-10.453
	s-8.063-1.586-10.453,1.797l-7.31,10.345c-20.648-13.04-45.391-21.159-72.117-22.445v-16.56c0-4.142-3.358-7.5-7.5-7.5
	s-7.5,3.358-7.5,7.5v16.56c-26.233,1.253-51.104,9.064-72.172,22.367l-7.255-10.267c-2.391-3.383-7.072-4.188-10.453-1.797
	c-3.383,2.39-4.188,7.07-1.797,10.453l7.275,10.296c-6.042,4.81-11.675,10.123-16.813,15.921c-2.747,3.1-2.461,7.84,0.639,10.587
	c3.1,2.747,7.84,2.461,10.587-0.639c24.442-27.58,60.942-42.104,97.488-42.104c68.389,0,124.028,49.448,124.028,110.229
	S324.389,309.176,256,309.176s-124.027-49.448-124.027-110.229c0-15.799,3.686-31.054,10.955-45.34
	c1.879-3.692,0.409-8.208-3.283-10.086c-3.693-1.878-8.207-0.408-10.086,3.283c-4.199,8.253-7.356,16.792-9.459,25.555l-11.518-2.38
	c-4.054-0.837-8.024,1.771-8.863,5.827C98.882,179.863,101.49,183.831,105.547,184.669z"/>
<path d="M82.925,233.513c-13.173,18.972-15.589,42.94-6.04,64.451c11.31,25.477,38.225,42.112,66.143,39.674
	c1.348,14.996,7.522,28.767,17.832,39.466c12.732,13.212,30.632,20.79,49.111,20.79c8.345,0,16.339-1.533,23.767-4.451v30.847
	c-4.836-3.936-10.174-7.395-15.897-10.264c-11.829-5.932-24.675-9.068-37.15-9.068c-12.59,0-24.25,3.156-33.721,9.127
	c-2.357,1.486-3.696,4.155-3.477,6.933c1.8,22.862,18.023,44.639,42.339,56.834c11.824,5.929,24.666,9.064,37.14,9.064
	c3.672,0,7.268-0.272,10.766-0.805v18.39c0,4.142,3.358,7.5,7.5,7.5h29.525c4.142,0,7.5-3.358,7.5-7.5v-18.39
	c3.498,0.533,7.094,0.805,10.768,0.805c12.471,0,25.313-3.134,37.138-9.064c24.315-12.194,40.539-33.972,42.34-56.834
	c0.219-2.777-1.12-5.447-3.477-6.933c-9.471-5.971-21.131-9.127-33.721-9.127c-12.475,0-25.321,3.136-37.151,9.068
	c-5.723,2.87-11.061,6.329-15.896,10.264v-30.846c7.428,2.918,15.421,4.451,23.767,4.451c18.48,0,36.381-7.577,49.112-20.788
	c10.31-10.698,16.483-24.471,17.831-39.468c28.089,2.454,54.762-14.038,66.143-39.667c9.551-21.512,7.134-45.483-6.041-64.458
	c21.006-14.798,31.423-39.734,26.833-65.77c-4.59-26.033-22.903-45.9-47.699-52.625c4.901-18.42,1.818-37.46-8.881-53.359
	c-12.506-18.583-33.833-30.127-55.66-30.127c-9.542,0-18.781,2.077-27.569,6.188C305.169,14.58,282.427,0,256,0
	s-49.169,14.58-60.1,37.82c-8.787-4.111-18.026-6.188-27.568-6.188c-21.828,0-43.156,11.543-55.662,30.125
	c-10.7,15.9-13.782,34.938-8.88,53.361c-24.795,6.724-43.108,26.591-47.698,52.624C51.502,193.778,61.919,218.715,82.925,233.513z
	 M222.972,471.915h-0.001c-10.149,0-20.667-2.584-30.414-7.472c-17.62-8.837-30.297-24.143-33.458-39.938
	c6.281-2.986,13.652-4.548,21.592-4.548c10.152,0,20.674,2.585,30.426,7.476c8.934,4.48,16.708,10.642,22.621,17.909v8.204
	l-39.068-19.592c-3.703-1.856-8.209-0.36-10.066,3.342c-1.857,3.703-0.361,8.209,3.342,10.066l45.792,22.964v0.563
	C230.294,471.571,226.692,471.915,222.972,471.915z M300.883,427.433c9.753-4.891,20.274-7.476,30.427-7.476
	c7.94,0,15.311,1.562,21.592,4.548c-3.162,15.796-15.838,31.102-33.458,39.938c-9.749,4.889-20.266,7.472-30.415,7.472
	c-3.721,0-7.324-0.344-10.767-1.025v-0.563l45.792-22.964c3.703-1.857,5.199-6.364,3.342-10.066
	c-1.856-3.703-6.362-5.199-10.066-3.342l-39.068,19.592v-8.204C284.175,438.075,291.949,431.913,300.883,427.433z M263.262,497
	h-14.525V385.072c2.365-1.774,4.613-3.725,6.725-5.793c0.177-0.174,0.362-0.337,0.538-0.513c0.173,0.173,0.355,0.334,0.53,0.505
	c2.116,2.067,4.366,4.024,6.732,5.801V497z M70.865,170.347c3.154-17.888,16.302-38.355,43.742-42.153
	c4.773-0.661,7.739-5.781,5.921-10.254c-6.699-16.48-5.07-33.458,4.587-47.809c9.755-14.495,26.315-23.5,43.217-23.5
	c9.561,0,18.791,2.751,27.433,8.177c4.091,2.568,9.651,0.527,11.127-4.049C215.396,24.394,237.836,15,256,15
	s40.603,9.394,49.108,35.758c1.485,4.603,7.029,6.623,11.126,4.051c8.643-5.426,17.873-8.177,27.434-8.177
	c16.9,0,33.459,9.005,43.215,23.501c9.657,14.351,11.287,31.328,4.59,47.806c-1.829,4.501,1.133,9.593,5.919,10.255
	c27.441,3.797,40.589,24.264,43.743,42.152c3.154,17.888-2.2,41.617-26.686,54.571c-4.285,2.267-5.302,8.074-2.058,11.661
	c14.099,15.591,17.469,36.266,9.015,55.305c-9.949,22.408-34.148,34.9-58.123,29.753c-4.721-1.014-9.249,2.794-9.07,7.61
	c0.68,18.348-7.169,30.492-13.873,37.449c-9.919,10.293-23.883,16.197-38.311,16.197c-10.853,0-20.969-3.359-29.5-9.65
	c-0.029-0.021-0.058-0.043-0.086-0.065c-3.957-2.951-7.493-6.444-10.523-10.339c-2.887-3.711-8.849-3.846-11.84,0
	c-3.032,3.899-6.575,7.379-10.526,10.342c-0.027,0.021-0.054,0.041-0.081,0.061c-8.532,6.292-18.648,9.651-29.502,9.651
	c-14.427,0-28.39-5.904-38.31-16.198c-6.705-6.958-14.554-19.102-13.875-37.447c0.178-4.821-4.354-8.625-9.07-7.611
	c-24.175,5.191-48.106-7.2-58.121-29.76c-8.452-19.038-5.082-39.71,9.013-55.298c3.248-3.592,2.211-9.404-2.055-11.66
	C73.065,211.965,67.71,188.235,70.865,170.347z"/>
<g>
</g>
<g>
</g>
<g>
</g>
<g>
</g>
<g>
</g>
<g>
</g>
<g>
</g>
<g>
</g>
<g>
</g>
<g>
</g>
<g>
</g>
<g>
</g>
<g>
</g>
<g>
</g>
<g>
</g>
</svg>
