<?xml version="1.0" encoding="iso-8859-1"?>
<!-- Generator: Adobe Illustrator 19.0.0, SVG Export Plug-In . SVG Version: 6.00 Build 0)  -->
<svg version="1.1" id="Capa_1" xmlns="http://www.w3.org/2000/svg" xmlns:xlink="http://www.w3.org/1999/xlink" x="0px" y="0px"
	 viewBox="0 0 511.999 511.999" style="enable-background:new 0 0 511.999 511.999;" xml:space="preserve">
<path style="fill:#F09318;" d="M156.182,40.719L156.182,40.719c12.51-4.682,26.447,1.664,31.129,14.174l34.945,93.372
	l-45.304,16.956l-34.945-93.372C137.326,59.339,143.671,45.402,156.182,40.719z"/>
<path style="fill:#FAA330;" d="M337.232,86.109c9.836-9.836,25.784-9.836,35.62,0l0,0c9.836,9.836,9.836,25.784,0,35.62
	c9.836-9.836,25.784-9.836,35.62,0c9.836,9.836,9.836,25.784,0,35.62l-44.501,44.501L247.599,318.222l-38.969,38.969L66.149,214.711
	l38.969-38.969L221.491,59.369l44.501-44.501c9.836-9.836,25.784-9.836,35.62,0c9.836,9.836,9.836,25.784,0,35.62
	c9.836-9.836,25.784-9.836,35.62,0l0,0C347.068,60.325,347.068,76.273,337.232,86.109z"/>
<g>
	<path style="fill:#F09318;" d="M105.119,175.741l142.48,142.48c7.086,7.086,7.086,18.575,0,25.661l-43.555,43.555
		c-11.903,11.903-31.203,11.903-43.107,0L35.903,262.402C24,250.5,24,231.2,35.903,219.297l43.555-43.555
		C86.544,168.656,98.034,168.656,105.119,175.741z"/>
	<path style="fill:#F09318;" d="M225.355,148.863L225.355,148.863c12.51-4.682,26.447,1.664,31.129,14.174l34.945,93.372
		l-45.304,16.956l-34.945-93.372C206.498,167.483,212.845,153.545,225.355,148.863z"/>
</g>
<path style="fill:#FFCE1C;" d="M406.405,194.253c9.836-9.836,25.784-9.836,35.62,0l0,0c9.836,9.836,9.836,25.784,0,35.62
	c9.836-9.836,25.784-9.836,35.62,0c9.836,9.836,9.836,25.784,0,35.62L316.772,426.366l-38.969,38.969l-142.48-142.48l38.969-38.969
	l160.873-160.873c9.836-9.836,25.784-9.836,35.62,0s9.836,25.784,0,35.62c9.836-9.836,25.784-9.836,35.62,0l0,0
	C416.242,168.469,416.241,184.416,406.405,194.253z"/>
<g>
	<path style="fill:#FAA330;" d="M477.645,229.873c-3.707-3.707-8.283-6.016-13.072-6.928c1.509,7.917-0.8,16.419-6.928,22.548
		L296.772,406.365l-38.969,38.969l20.001,20.001l38.969-38.969l160.873-160.873C487.481,255.657,487.481,239.709,477.645,229.873z"
		/>
	<path style="fill:#FAA330;" d="M174.292,283.886l142.48,142.48c7.086,7.086,7.086,18.575,0,25.661l-43.555,43.555
		c-11.903,11.903-31.203,11.903-43.107,0L105.077,370.547c-11.903-11.903-11.903-31.203,0-43.107l43.555-43.555
		C155.718,276.8,167.206,276.8,174.292,283.886z"/>
</g>
<path style="fill:#F09318;" d="M230.111,495.581c11.903,11.903,31.203,11.903,43.107,0l43.555-43.555
	c7.086-7.086,7.086-18.575,0-25.661l-30.001-30.001c7.086,7.086,7.086,18.575,0,25.661l-43.555,43.555
	c-11.903,11.903-31.203,11.903-43.107,0L230.111,495.581z"/>
<path d="M456.758,215.164c0.095-1.021,0.144-2.053,0.144-3.092c0-8.731-3.4-16.94-9.574-23.113
	c-7.158-7.159-16.84-10.295-26.207-9.413c0.649-6.888-0.884-13.941-4.582-20.041c9.892-12.809,8.977-31.329-2.764-43.071
	c-6.832-6.832-16.591-10.326-26.205-9.43c0.878-9.364-2.261-19.036-9.414-26.189c-6.83-6.83-16.594-10.326-26.206-9.43
	c0.878-9.364-2.26-19.036-9.415-26.19c-6.173-6.174-14.382-9.574-23.113-9.574c-1.039,0-2.07,0.048-3.092,0.144
	c0.878-9.364-2.261-19.036-9.415-26.19C300.741,3.4,292.531,0,283.801,0c-8.731,0-16.94,3.4-23.114,9.574
	c0,0-50.648,50.648-59.911,59.911c0,0-6.436-17.198-6.442-17.212c-6.024-16.096-24.72-24.581-40.782-18.569
	c-16.364,6.124-24.694,24.419-18.57,40.782l16.557,44.237c-19.939,19.939-38.837,38.837-47.205,47.205
	c-3.664-1.955-7.775-2.992-12.046-2.992c-6.85,0-13.29,2.667-18.134,7.511l-43.555,43.555c-14.809,14.81-14.809,38.904,0,53.713
	l62.828,62.828c-3.114,5.582-4.78,11.891-4.78,18.459c0,10.145,3.951,19.683,11.125,26.856l125.034,125.034
	c7.404,7.404,17.131,11.106,26.857,11.106c9.726,0,19.453-3.702,26.856-11.106c0,0,43.534-43.534,43.555-43.556
	c7.867-7.867,9.76-20.354,4.519-30.179l156.354-156.353c12.745-12.745,12.745-33.482,0-46.228
	C475.793,217.425,466.122,214.285,456.758,215.164z M390.661,121.861c4.724,0,9.165,1.84,12.506,5.18
	c5.665,5.664,6.801,14.758,2.659,21.621c-0.353-0.22-0.719-0.415-1.079-0.621c-4.863-2.776-10.516-4.276-16.154-4.276
	c-1.033,0-2.058,0.047-3.074,0.142c0.094-1.016,0.142-2.042,0.142-3.074c0-4.272-0.84-8.562-2.47-12.511
	c-0.129-0.312-1.828-3.827-1.873-3.798C384.095,122.789,387.307,121.861,390.661,121.861z M158.81,47.753
	c8.497-3.18,18.291,1.265,21.476,9.778l8.835,23.609l-25.929,25.929L149.03,69.229C145.805,60.612,150.192,50.978,158.81,47.753z
	 M271.294,20.181c3.34-3.34,7.782-5.18,12.506-5.18c4.724,0,9.166,1.84,12.506,5.18c6.896,6.896,6.896,18.118,0,25.014
	l-44.501,44.501c-2.899,2.899-2.895,7.711,0,10.606c2.801,2.801,7.653,2.954,10.607,0l44.501-44.501
	c3.341-3.34,7.782-5.18,12.506-5.18c4.724,0,9.166,1.84,12.506,5.18c6.895,6.895,6.895,18.115,0,25.013
	c0,0-44.48,44.481-44.501,44.501c-2.847,2.847-2.901,7.706,0,10.606c2.849,2.849,7.703,2.904,10.607,0
	c0,0,44.495-44.496,44.501-44.501c6.82-6.819,18.2-6.812,25.013,0c5.639,5.638,6.78,14.791,2.66,21.621
	c-12.534-7.8-29.923-5.748-40.347,4.676c0,0-50.67,50.67-59.911,59.911c0,0-6.436-17.199-6.441-17.212
	c-6.017-16.077-24.724-24.58-40.782-18.57c-16.364,6.124-24.694,24.419-18.57,40.782l16.557,44.237
	c-9.565,9.565-18.893,18.893-26.935,26.935l-78.052-78.052L271.294,20.181z M232.366,215.213l-14.161-37.839
	c-3.225-8.617,1.162-18.251,9.778-21.476c8.503-3.182,18.291,1.268,21.476,9.778l8.835,23.609
	C257.235,190.344,232.366,215.213,232.366,215.213z M41.206,224.609c0,0,43.477-43.477,43.555-43.555
	c4.097-4.097,10.973-4.08,15.054,0l83.355,83.355c-3.424,3.424-9.662,9.662-9.662,9.662c-0.018-0.01-0.037-0.018-0.056-0.028
	c-9.787-5.219-22.308-3.269-30.125,4.547l-40.319,40.319l-61.802-61.802C32.246,248.149,32.246,233.569,41.206,224.609z
	 M472.341,260.199L316.771,415.769l-16.518-16.519c-2.928-2.929-7.677-2.93-10.606,0c-2.833,2.833-2.926,7.681,0,10.607
	c0,0,21.8,21.8,21.821,21.822c4.106,4.106,4.097,10.954,0,15.053l-43.555,43.556c-8.96,8.96-23.54,8.959-32.5,0
	c0,0-124.963-124.964-125.034-125.034c-8.844-8.844-8.844-23.657,0-32.5c0,0,43.48-43.48,43.555-43.555
	c4.05-4.05,11.007-4.045,15.054,0c0,0,99.344,99.345,99.444,99.445c2.874,2.875,7.738,2.869,10.607,0
	c2.929-2.929,2.929-7.678,0-10.606l-94.141-94.142c0,0,155.542-155.543,155.568-155.569c6.815-6.815,18.211-6.801,25.013,0
	c6.818,6.817,6.806,18.207,0,25.013c0,0-44.473,44.473-44.501,44.501c-2.807,2.807-2.923,7.684,0,10.606
	c2.815,2.815,7.671,2.936,10.607,0l44.501-44.501c6.807-6.808,18.212-6.798,25.019,0.008c6.802,6.8,6.779,18.22-0.006,25.006
	c0,0-44.461,44.461-44.501,44.501c-2.81,2.81-2.934,7.673,0,10.607c2.892,2.892,7.717,2.89,10.606,0l44.501-44.501
	c6.896-6.895,18.118-6.896,25.013,0c6.807,6.807,6.791,18.221,0,25.013c0,0-44.476,44.476-44.501,44.501
	c-2.897,2.897-2.895,7.711,0,10.606c2.896,2.896,7.712,2.895,10.606,0l44.501-44.501c6.897-6.896,18.117-6.896,25.013,0
	C479.237,242.082,479.237,253.303,472.341,260.199z"/>
<g>
</g>
<g>
</g>
<g>
</g>
<g>
</g>
<g>
</g>
<g>
</g>
<g>
</g>
<g>
</g>
<g>
</g>
<g>
</g>
<g>
</g>
<g>
</g>
<g>
</g>
<g>
</g>
<g>
</g>
</svg>
