<?xml version="1.0" encoding="iso-8859-1"?>
<!-- Generator: Adobe Illustrator 19.0.0, SVG Export Plug-In . SVG Version: 6.00 Build 0)  -->
<svg version="1.1" id="Capa_1" xmlns="http://www.w3.org/2000/svg" xmlns:xlink="http://www.w3.org/1999/xlink" x="0px" y="0px"
	 viewBox="0 0 511.998 511.998" style="enable-background:new 0 0 511.998 511.998;" xml:space="preserve">
<path style="fill:#00AE95;" d="M222.275,239.938c0,53.233,13.526,99.797,33.725,125.264c20.198-25.467,33.725-72.031,33.725-125.264
	S276.198,140.141,256,114.675C235.802,140.141,222.275,186.706,222.275,239.938z"/>
<g>
	<path style="fill:#2FC8B4;" d="M256,325.374c0,0-11.304-129.535-122.703-175.269c-3.048-1.252-6.029,1.942-4.592,4.906
		c13.92,28.7,58.59,126.047,55.487,187.386L256,325.374z"/>
	<path style="fill:#2FC8B4;" d="M256,325.374c0,0,11.304-129.535,122.703-175.269c3.048-1.252,6.029,1.942,4.592,4.906
		c-13.92,28.7-58.59,126.047-55.487,187.386L256,325.374z"/>
</g>
<path style="fill:#00AE95;" d="M217.865,333.562c0,0-50.985-119.615-171.079-128.48c-3.286-0.242-5.128,3.718-2.84,6.089
	c22.147,22.955,94.847,101.61,110.954,160.878L217.865,333.562z"/>
<path style="fill:#2FC8B4;" d="M166.239,338.924c-27.932-33.928-79.574-79.587-155.246-79.642c-3.295-0.002-4.844,4.083-2.389,6.281
	c18.545,16.609,70.277,64.812,101.787,112.72C119.253,391.757,182.757,358.989,166.239,338.924z"/>
<path style="fill:#00AE95;" d="M294.135,333.562c0,0,50.985-119.615,171.08-128.48c3.286-0.242,5.128,3.718,2.84,6.089
	c-22.147,22.955-94.847,101.61-110.954,160.878L294.135,333.562z"/>
<path style="fill:#2FC8B4;" d="M345.762,338.924c27.932-33.928,79.574-79.587,155.246-79.642c3.295-0.002,4.844,4.083,2.389,6.281
	c-18.546,16.609-70.277,64.812-101.787,112.72C392.748,391.757,329.243,358.989,345.762,338.924z"/>
<path style="fill:#C86D5C;" d="M438.757,358.135c-28.907-33.404-59.741-7.708-89.933-33.404
	c-18.061-15.371-47.73-16.95-68.657-15.736c-16.102,0.933-32.232,0.933-48.334,0c-20.926-1.214-50.596,0.365-68.657,15.736
	c-30.192,25.695-61.026,0-89.933,33.404c-28.907,33.404-39.185,9.636-63.917,39.185h493.347
	C477.943,367.771,467.664,391.54,438.757,358.135z"/>
<path style="fill:#B24D40;" d="M177.058,331.289c8.687-10.038,17.477-16.897,26.346-21.657
	c-14.661,1.702-29.494,5.964-40.226,15.099c-30.192,25.695-61.026,0-89.933,33.404c-28.907,33.404-39.185,9.636-63.917,39.185
	h60.024C111.026,347.527,128.346,387.578,177.058,331.289z"/>
<path d="M193.827,340.419c-4.144,0-7.503,3.358-7.503,7.503v11.252c0,4.145,3.359,7.503,7.503,7.503
	c4.144,0,7.503-3.358,7.503-7.503v-11.252C201.33,343.777,197.97,340.419,193.827,340.419z"/>
<path d="M318.171,340.419c-4.144,0-7.503,3.358-7.503,7.503v11.252c0,4.145,3.359,7.503,7.503,7.503s7.503-3.358,7.503-7.503
	v-11.252C325.674,343.777,322.315,340.419,318.171,340.419z"/>
<path d="M276.282,352.742c-3.12-2.727-7.86-2.41-10.587,0.71c-2.347,2.685-5.88,4.225-9.696,4.225c-3.816,0-7.349-1.54-9.696-4.225
	c-2.727-3.119-7.467-3.437-10.587-0.71c-3.12,2.727-3.438,7.467-0.71,10.587c5.196,5.944,12.848,9.355,20.993,9.355
	s15.797-3.409,20.993-9.355C279.72,360.209,279.402,355.469,276.282,352.742z"/>
<path d="M3.597,271.131c12.73,11.401,44.178,40.496,72.29,73.888c-2.794,2.308-5.572,5.011-8.318,8.185
	c-13.206,15.26-21.068,16.885-30.171,18.766c-9.44,1.951-20.14,4.162-33.826,20.512c-4.027,4.811-0.483,12.32,5.753,12.32
	c0,0,492.545,0,493.345,0c6.238,0,9.763-7.528,5.754-12.319c-13.686-16.352-24.386-18.563-33.827-20.513
	c-9.104-1.881-16.965-3.505-30.171-18.766c-2.747-3.174-5.524-5.877-8.318-8.185c28.111-33.391,59.559-62.486,72.289-73.887
	c7.432-6.656,2.57-19.374-7.399-19.374c-26.747,0.019-50.58,5.514-71.505,14.104c18.582-22.721,35.896-41.147,43.956-49.5
	c6.901-7.153,1.145-19.52-8.792-18.783c-46.054,3.398-82.258,22.322-109.67,44.975c12.707-36.847,28.073-69.894,35.054-84.288
	c4.348-8.966-5.003-18.896-14.192-15.122c-35.966,14.765-61.868,37.875-80.497,62.717c-1.801-16.221-4.882-31.816-9.117-45.938
	c-6.059-20.21-14.483-37.476-24.362-49.931c-2.96-3.732-8.802-3.727-11.757,0c-9.879,12.455-18.302,29.721-24.362,49.932
	c-4.233,14.119-7.315,29.71-9.116,45.928c-6.358-8.457-13.553-16.715-21.712-24.522c-6.975-6.676-17.389,4.129-10.376,10.84
	c12.76,12.212,23.017,25.638,31.26,39.173c0.09,0.18,0.169,0.365,0.274,0.539c15.779,26.133,24.031,52.668,28.154,70.116
	c-11.776-0.33-23.458-1.253-35.242-0.43c-0.082,0.006-0.167,0.008-0.249,0.014c-7.259-11.297-16.944-24.545-29.229-37.745
	c-11.74-40.591-29.227-80.554-39.512-102.548c7.836,3.773,15.347,8.101,22.426,12.93c8.009,5.463,16.462-6.936,8.456-12.396
	c-10.777-7.351-22.468-13.636-34.746-18.676c-9.248-3.797-18.538,6.16-14.194,15.121c6.981,14.393,22.348,47.441,35.055,84.29
	c-27.412-22.653-63.618-41.577-109.671-44.976c-9.79-0.726-15.614,11.71-8.793,18.781c8.059,8.354,25.375,26.781,43.958,49.503
	c-20.925-8.589-44.762-14.085-71.513-14.105C1.014,251.75-3.82,264.49,3.597,271.131z M471.563,386.665
	c3.76,0.777,7.166,1.481,10.709,3.13H29.726c3.543-1.65,6.949-2.354,10.709-3.13c10.287-2.126,21.946-4.535,38.482-23.642
	c22.204-25.657,60.983-10.752,86.7-30.64c16.421-12.699,35.02-16.241,55.484-16.228c11.637,0.007,23.251,1.02,34.899,1.02
	c13.697,0,27.389-1.455,41.084-0.907c0.024,0.001,0.048,0.001,0.072,0.002c13.003,0.525,26.474,2.431,38.173,8.447
	c0.016,0.008,0.032,0.017,0.049,0.025c8.9,4.591,15.985,11.961,25.322,15.811c0.024,0.01,0.047,0.018,0.071,0.028
	c24.816,10.218,52.638-0.291,72.311,22.44C449.617,382.131,461.277,384.54,471.563,386.665z M423.277,336.967
	c-12.137-5.493-25.347-5.524-38.366-6.567c-6.217-0.497-12.256-1.347-18.158-3.588c0.316-0.32,0.631-0.643,0.947-0.96
	c2.392-2.402,4.837-4.75,7.328-7.05c26.759-24.651,65.313-48.709,115.522-51.72C474.681,281.705,447.648,307.793,423.277,336.967z
	 M397.527,282.492c-14.008,8.912-26.964,19.452-38.785,31.098c-0.021,0.02-0.041,0.04-0.062,0.061
	c-1.772,1.746-3.487,3.487-5.147,5.218c-0.724-0.612-1.477-1.203-2.241-1.784c-9.173-6.969-20.272-11.044-31.481-13.313
	c7.457-10.926,15.72-21.292,24.81-30.907c0.076-0.081,0.14-0.17,0.212-0.253c25.154-26.556,61.485-52.459,110.524-58.991
	C441.693,228.198,418.63,253.885,397.527,282.492z M371.99,161.282c-10.285,21.994-27.773,61.959-39.513,102.55
	c-12.285,13.201-21.971,26.45-29.23,37.746c-0.067-0.004-0.138-0.006-0.205-0.011c-7.807-0.511-15.511-0.085-23.31-0.085
	c-3.927,0.228-7.931,0.398-11.976,0.512c4.123-17.446,12.373-43.978,28.15-70.11C312.113,205.058,336.223,178.494,371.99,161.282z
	 M255.999,127.682c14.607,23.345,24.093,59.062,25.897,98.383c-1.599,2.709-3.121,5.417-4.584,8.136
	c-8.574,15.949-15.385,32.841-20.46,50.218c-0.29,0.993-0.574,1.989-0.853,2.985c-0.048-0.172-3.18-10.544-3.194-10.588
	c-5.028-15.548-12.284-33.174-22.7-50.787C231.912,186.723,241.397,151.021,255.999,127.682z M114.471,282.491
	c-21.103-28.606-44.166-54.293-57.83-68.873c49.04,6.532,85.372,32.436,110.526,58.994c6.543,6.908,12.67,14.227,18.373,21.841
	c2.261,3.018,4.499,6.172,6.647,9.318c-11.214,2.271-22.312,6.342-31.485,13.317c-0.763,0.58-1.514,1.169-2.237,1.781
	c-3.545-3.254-6.769-6.865-10.292-10.149c-10.223-9.531-21.248-18.218-33.012-25.772
	C114.93,282.797,114.703,282.639,114.471,282.491z M136.983,318.811c2.82,2.598,5.571,5.268,8.262,7.999
	c-5.902,2.243-11.941,3.091-18.157,3.588c-3.596,0.288-7.202,0.454-10.801,0.698c-9.391,0.636-18.868,1.933-27.564,5.868
	c-24.372-29.174-51.405-55.26-67.273-69.886C71.666,270.092,110.224,294.156,136.983,318.811z"/>
<g>
</g>
<g>
</g>
<g>
</g>
<g>
</g>
<g>
</g>
<g>
</g>
<g>
</g>
<g>
</g>
<g>
</g>
<g>
</g>
<g>
</g>
<g>
</g>
<g>
</g>
<g>
</g>
<g>
</g>
</svg>
