<?xml version="1.0" encoding="iso-8859-1"?>
<!-- Generator: Adobe Illustrator 19.0.0, SVG Export Plug-In . SVG Version: 6.00 Build 0)  -->
<svg version="1.1" id="Capa_1" xmlns="http://www.w3.org/2000/svg" xmlns:xlink="http://www.w3.org/1999/xlink" x="0px" y="0px"
	 viewBox="0 0 512 512" style="enable-background:new 0 0 512 512;" xml:space="preserve">
<path style="fill:#FF8C4F;" d="M256.001,321.479L79.704,343.285l0,0c0,89.036,72.178,161.215,161.215,161.215h30.164
	c89.036,0,161.215-72.178,161.215-161.215l0,0L256.001,321.479z"/>
<path style="fill:#EE6B28;" d="M129.704,343.286L129.704,343.286l151.297-18.715l-25-3.092L79.704,343.286l0,0
	c0,89.036,72.178,161.214,161.215,161.214h30.164c3.332,0,6.636-0.113,9.918-0.313C196.585,499.062,129.704,428.99,129.704,343.286z
	"/>
<path style="fill:#2FC8B4;" d="M399.624,270.87L399.624,270.87L399.624,270.87c26.891-29.56-4.589-75.167-41.764-60.506l0,0l0,0
	c10.073-38.671-38.995-64.424-65.099-34.167l0,0l0,0c-9.052-38.923-64.468-38.923-73.52,0l0,0l0,0
	c-26.103-30.258-75.172-4.505-65.099,34.167l0,0l0,0c-37.175-14.661-68.655,30.945-41.764,60.506l0,0l0,0
	c-18.124,1.959-29.366,14.473-32.673,28.803l176.296,21.806l176.296-21.806C428.99,285.343,417.748,272.829,399.624,270.87z"/>
<path style="fill:#FAA330;" d="M432.297,299.673H79.704c-12.043,0-21.806,9.763-21.806,21.806s9.763,21.806,21.806,21.806h352.593
	c12.043,0,21.806-9.763,21.806-21.806C454.104,309.436,444.341,299.673,432.297,299.673z"/>
<path style="fill:#F09318;" d="M107.898,321.479c0-12.043,9.763-21.806,21.806-21.806h-50c-12.043,0-21.806,9.763-21.806,21.806
	s9.763,21.807,21.806,21.807h50C117.661,343.286,107.898,333.522,107.898,321.479z"/>
<circle style="fill:#FF8C4F;" cx="256.001" cy="27.06" r="19.557"/>
<path style="fill:#EE6B28;" d="M266.001,36.615c-10.801,0-19.557-8.756-19.557-19.557c0-2.809,0.603-5.474,1.669-7.888
	c-6.869,3.034-11.669,9.896-11.669,17.888c0,10.801,8.756,19.557,19.557,19.557c7.992,0,14.854-4.8,17.888-11.669
	C271.474,36.012,268.81,36.615,266.001,36.615z"/>
<path d="M171.994,408.93c4.142,0,7.5-3.358,7.5-7.5v-15.204c0-4.142-3.358-7.5-7.5-7.5s-7.5,3.358-7.5,7.5v15.204
	C164.494,405.572,167.852,408.93,171.994,408.93z"/>
<path d="M340.009,408.93c4.142,0,7.5-3.358,7.5-7.5v-15.204c0-4.142-3.358-7.5-7.5-7.5s-7.5,3.358-7.5,7.5v15.204
	C332.509,405.572,335.866,408.93,340.009,408.93z"/>
<path d="M256.001,417.046c10.245,0,19.86-4.278,26.381-11.737c2.726-3.119,2.408-7.857-0.711-10.583s-7.856-2.408-10.583,0.711
	c-3.671,4.2-9.17,6.609-15.087,6.609s-11.416-2.409-15.087-6.61c-2.726-3.118-7.463-3.437-10.583-0.71
	c-3.119,2.726-3.437,7.464-0.711,10.583C236.141,412.768,245.756,417.046,256.001,417.046z"/>
<path d="M72.344,349.848C75.805,439.847,150.088,512,240.919,512h30.164c90.831,0,165.113-72.153,168.575-162.152
	c12.608-3.273,21.946-14.751,21.946-28.369c0-14.182-10.126-26.04-23.527-28.731c-4.441-12.583-13.762-22.039-25.983-26.602
	c8.613-16.237,5.266-34.174-3.155-46.373c-5.117-7.413-12.883-13.819-22.278-17.195c-12.417-63.002-75.226-131.892-106.643-163.084
	c1.938-3.727,3.04-7.955,3.04-12.437C283.058,12.138,270.921,0,256.001,0s-27.058,12.138-27.058,27.058
	c0,4.483,1.103,8.71,3.041,12.438c-31.417,31.192-94.225,100.081-106.643,163.082c-9.396,3.375-17.161,9.783-22.279,17.196
	c-8.421,12.2-11.768,30.136-3.155,46.373c-12.221,4.563-21.541,14.019-25.983,26.602c-13.401,2.691-23.527,14.549-23.527,28.731
	C50.398,335.097,59.736,346.575,72.344,349.848z M256.001,15c6.648,0,12.057,5.409,12.057,12.058s-5.408,12.057-12.057,12.057
	s-12.058-5.409-12.058-12.057S249.353,15,256.001,15z M242.312,50.382c4.019,2.368,8.697,3.733,13.69,3.733
	c4.993,0,9.671-1.365,13.69-3.733c15.94,15.824,37.422,38.793,57.024,65.229c23.229,31.328,38.005,59.68,44.044,84.455
	c-1.335,0.043-2.686,0.141-4.053,0.313c0.078-18.375-11.22-32.699-24.344-39.587c-13.123-6.888-31.33-8.049-46.409,2.453
	c-8.471-16.307-25.132-23.739-39.953-23.739c-14.821,0-31.482,7.432-39.952,23.739c-15.079-10.502-33.285-9.34-46.409-2.453
	c-13.123,6.888-24.422,21.211-24.344,39.587c-1.367-0.172-2.717-0.27-4.052-0.313c6.039-24.774,20.814-53.126,44.044-84.455
	C204.889,89.175,226.371,66.206,242.312,50.382z M79.704,307.173h258.561c4.142,0,7.5-3.358,7.5-7.5s-3.358-7.5-7.5-7.5H90.67
	c4.669-7.781,12.603-12.774,22.513-13.846c5.973-0.646,8.791-8.055,4.743-12.504c-11.928-13.112-8.812-28.411-2.518-37.529
	c6.293-9.117,19.493-17.456,35.982-10.954c5.6,2.208,11.527-3.048,10.011-8.867c-4.468-17.153,5.401-29.251,15.211-34.4
	c9.809-5.149,25.372-6.398,36.951,7.022c3.945,4.572,11.621,2.661,12.985-3.199c4.015-17.265,18.376-23.391,29.454-23.391
	s25.44,6.125,29.455,23.389c1.363,5.859,9.052,7.76,12.984,3.201c11.579-13.421,27.143-12.171,36.951-7.023
	c9.809,5.148,19.679,17.246,15.211,34.399c-1.518,5.829,4.409,11.078,10.009,8.869c16.489-6.503,29.689,1.836,35.983,10.953
	c6.293,9.117,9.409,24.416-2.517,37.528c-4.061,4.465-1.239,11.858,4.741,12.505c9.911,1.071,17.845,6.064,22.515,13.846h-53.068
	c-4.142,0-7.5,3.358-7.5,7.5s3.358,7.5,7.5,7.5h64.033c7.889,0,14.306,6.417,14.306,14.306c0,7.888-6.417,14.306-14.306,14.306
	H154.265c-4.142,0-7.5,3.358-7.5,7.5c0,4.025,3.482,7.5,7.5,7.5h270.352C420.693,432.075,353.327,497,271.083,497h-30.164
	c-82.244,0-149.61-64.925-153.534-146.215h36.88c4.142,0,7.5-3.358,7.5-7.5s-3.358-7.5-7.5-7.5H79.704
	c-7.888,0-14.306-6.418-14.306-14.306S71.816,307.173,79.704,307.173z"/>
<g>
</g>
<g>
</g>
<g>
</g>
<g>
</g>
<g>
</g>
<g>
</g>
<g>
</g>
<g>
</g>
<g>
</g>
<g>
</g>
<g>
</g>
<g>
</g>
<g>
</g>
<g>
</g>
<g>
</g>
</svg>
