<?xml version="1.0" encoding="iso-8859-1"?>
<!-- Generator: Adobe Illustrator 19.0.0, SVG Export Plug-In . SVG Version: 6.00 Build 0)  -->
<svg version="1.1" id="Capa_1" xmlns="http://www.w3.org/2000/svg" xmlns:xlink="http://www.w3.org/1999/xlink" x="0px" y="0px"
	 viewBox="0 0 512 512" style="enable-background:new 0 0 512 512;" xml:space="preserve">
<rect x="396.889" y="264.49" style="fill:#00A6C8;" width="48.772" height="158.99"/>
<polygon style="fill:#D9D9D9;" points="396.888,423.478 407.831,479.299 421.274,491.9 434.717,479.299 445.66,423.478 "/>
<path style="fill:#0095B3;" d="M445.66,347.621v-83.128h-48.772v138.681c5.679-4.682,11.166-9.659,16.437-14.931
	C425.761,375.806,436.567,362.177,445.66,347.621z"/>
<path style="fill:#42C3E2;" d="M252.594,25.183c-111.74,0-202.32,90.58-202.32,202.32s90.58,202.32,202.32,202.32
	c111.73,0,202.31-90.58,202.31-202.32S364.324,25.183,252.594,25.183z M252.594,331.306c-57.237,0-103.803-46.566-103.803-103.803
	S195.357,123.7,252.594,123.7s103.803,46.566,103.803,103.803C356.396,284.74,309.83,331.306,252.594,331.306z"/>
<path style="fill:#00A6C8;" d="M252.594,66.803c-88.61,0-160.7,72.09-160.7,160.7s72.09,160.7,160.7,160.7s160.7-72.09,160.7-160.7
	C413.294,138.893,341.204,66.803,252.594,66.803z M252.594,346.593c-65.67,0-119.09-53.43-119.09-119.09
	c0-65.67,53.42-119.09,119.09-119.09c65.66,0,119.09,53.42,119.09,119.09C371.684,293.163,318.254,346.593,252.594,346.593z"/>
<path style="fill:#0095B3;" d="M252.594,108.413c-65.67,0-119.09,53.42-119.09,119.09c0,65.66,53.42,119.09,119.09,119.09
	c65.66,0,119.09-53.43,119.09-119.09C371.684,161.833,318.254,108.413,252.594,108.413z M252.594,304.973
	c-42.72,0-77.47-34.75-77.47-77.47s34.75-77.47,77.47-77.47s77.47,34.75,77.47,77.47S295.314,304.973,252.594,304.973z"/>
<path style="fill:#3B484A;" d="M252.591,7.5L252.591,7.5c-15.872,0-28.74,12.867-28.74,28.739v102.736
	c0,15.872,12.867,28.739,28.739,28.739l0,0c15.872,0,28.739-12.867,28.739-28.739V36.239C281.331,20.367,268.464,7.5,252.591,7.5z"
	/>
<path style="fill:#B3B3B3;" d="M453.136,407.277h-63.724c-4.743,0-8.588,3.845-8.588,8.588v15.226c0,4.743,3.845,8.588,8.588,8.588
	h63.724c4.743,0,8.588-3.845,8.588-8.588v-15.226C461.724,411.122,457.879,407.277,453.136,407.277z"/>
<path style="fill:#999999;" d="M400.824,431.091v-15.226c0-4.743,3.845-8.588,8.588-8.588h-20c-4.743,0-8.588,3.845-8.588,8.588
	v15.226c0,4.743,3.845,8.588,8.588,8.588h20C404.669,439.68,400.824,435.835,400.824,431.091z"/>
<path style="fill:#B3B3B3;" d="M434.717,479.299H407.83c-6.959,0-12.6,5.641-12.6,12.6s5.641,12.6,12.6,12.6h26.887
	c6.959,0,12.6-5.641,12.6-12.6C447.318,484.941,441.676,479.299,434.717,479.299z"/>
<path style="fill:#999999;" d="M415.231,491.9c0-6.959,5.641-12.601,12.6-12.601h-20c-6.959,0-12.6,5.642-12.6,12.601
	s5.641,12.6,12.6,12.6h20C420.872,504.5,415.231,498.859,415.231,491.9z"/>
<path d="M252.591,437.319c52.218,0,100.038-19.179,136.796-50.856v13.316c-8.86,0.013-16.063,7.224-16.063,16.087v15.226
	c0,8.871,7.217,16.088,16.088,16.088h4.479l5.222,26.636c-6.723,3.255-11.383,10.126-11.383,18.084c0,11.083,9.017,20.1,20.101,20.1
	h26.886c11.083,0,20.101-9.017,20.101-20.1c0-7.957-4.66-14.829-11.383-18.084l5.222-26.636h4.479
	c8.871,0,16.088-7.217,16.088-16.088v-15.226c0-8.863-7.204-16.074-16.064-16.087V289.153c6.007-19.502,9.248-40.204,9.248-61.651
	c0-51.111-18.591-100.354-52.349-138.657c-32.495-36.87-76.739-61.132-124.981-68.641C279.151,8.245,266.818,0,252.591,0
	s-26.56,8.245-32.487,20.205c-48.241,7.509-92.485,31.771-124.98,68.641c-33.758,38.303-52.349,87.546-52.349,138.657
	C42.774,343.196,136.898,437.319,252.591,437.319z M428.544,471.799h-14.542l-4.826-24.619h24.194L428.544,471.799z M434.717,497
	h-26.886c-2.813,0-5.101-2.288-5.101-5.1c0-2.813,2.288-5.101,5.101-5.101h26.886c2.813,0,5.101,2.288,5.101,5.101
	C439.817,494.712,437.529,497,434.717,497z M438.16,399.777h-33.772v-27.446c13.361-14.006,24.746-29.849,33.772-46.896V399.777z
	 M454.224,415.865v15.226c0,0.6-0.488,1.088-1.088,1.088h-63.724c-0.6,0-1.088-0.488-1.088-1.088v-15.226
	c0-0.6,0.488-1.088,1.088-1.088h63.724C453.735,414.777,454.224,415.265,454.224,415.865z M247.043,174.791
	c3.657,0.557,7.403,0.576,11.059,0.006c0.012-0.002,0.024-0.004,0.036-0.006c8.383-1.277,15.976-5.419,21.577-11.77
	c25.837,10.866,42.848,36.144,42.848,64.481c0,38.583-31.39,69.973-69.973,69.973s-69.973-31.39-69.973-69.973
	c0-28.337,17.011-53.615,42.848-64.481C231.067,169.371,238.661,173.514,247.043,174.791z M252.591,15
	c9.419,0,17.416,6.169,20.189,14.675c0.687,2.106,1.05,4.349,1.05,6.565v102.736c0,11.481-9.685,21.24-21.239,21.24
	c-11.444,0-21.239-9.789-21.239-21.24c0,0,0-102.736,0.001-102.761c0.003-2.206,0.363-4.451,1.052-6.547
	C235.179,21.166,243.174,15,252.591,15z M106.377,98.764c28.809-32.688,67.556-54.707,109.975-62.7c0,0.055,0,0.11,0,0.165
	c0,0,0,0.007,0,0.011v27.014c-23.133,5.119-45.258,15.243-64.327,29.509c-3.317,2.481-3.994,7.182-1.512,10.498
	c2.481,3.317,7.181,3.994,10.498,1.513c16.478-12.328,35.455-21.271,55.341-26.135v27.586c-24.66,7.402-46.858,22.421-62.985,42.756
	c-17.901,22.572-27.363,49.724-27.363,78.522c0,69.8,56.787,126.587,126.587,126.587c32.794,0,63.914-12.541,87.625-35.312
	c2.988-2.869,3.084-7.617,0.215-10.604c-2.87-2.988-7.617-3.083-10.604-0.215c-20.904,20.075-48.333,31.131-77.235,31.131
	c-61.53,0-111.587-50.058-111.587-111.587c0-25.379,8.339-49.309,24.115-69.202c13.282-16.748,31.221-29.414,51.232-36.331v17.006
	c0,3.809,0.594,7.481,1.689,10.933c-30.464,13.554-50.422,43.771-50.422,77.594c0,46.854,38.119,84.973,84.973,84.973
	s84.973-38.119,84.973-84.973c0-33.824-19.958-64.041-50.422-77.594c1.095-3.451,1.689-7.123,1.689-10.932V121.97
	c20.011,6.917,37.95,19.583,51.232,36.331c15.777,19.894,24.116,43.823,24.116,69.202c0,20.839-5.815,41.185-16.817,58.838
	c-2.191,3.515-1.118,8.141,2.398,10.332c3.515,2.192,8.141,1.118,10.332-2.398c12.487-20.035,19.087-43.125,19.087-66.771
	c0-28.798-9.462-55.95-27.363-78.522c-16.127-20.335-38.325-35.354-62.985-42.756v-27.59c31.354,7.652,59.804,25.25,80.855,50.186
	c23.285,27.582,36.108,62.627,36.108,98.681c0,84.476-68.727,153.202-153.203,153.202S99.391,311.979,99.391,227.503
	c0-38.561,14.439-75.435,40.659-103.83c2.81-3.043,2.621-7.788-0.422-10.598s-7.788-2.621-10.598,0.422
	c-28.785,31.174-44.638,71.662-44.638,114.005c0,92.747,75.455,168.202,168.202,168.202s168.203-75.455,168.203-168.202
	c0-39.59-14.08-78.072-39.646-108.356c-23.894-28.303-56.485-47.987-92.317-55.901V36.24c0-0.059,0-0.117,0-0.176
	c42.419,7.993,81.166,30.011,109.975,62.7c31.342,35.562,48.603,81.282,48.603,128.739c0,107.422-87.395,194.816-194.817,194.816
	S57.779,334.925,57.779,227.503C57.774,180.045,75.035,134.325,106.377,98.764z"/>
<g>
</g>
<g>
</g>
<g>
</g>
<g>
</g>
<g>
</g>
<g>
</g>
<g>
</g>
<g>
</g>
<g>
</g>
<g>
</g>
<g>
</g>
<g>
</g>
<g>
</g>
<g>
</g>
<g>
</g>
</svg>
