<svg id="Layer_1" enable-background="new 0 0 512 512" height="512" viewBox="0 0 512 512" width="512" xmlns="http://www.w3.org/2000/svg"><path d="m123.056 350.15c-24.313-62.471-38.904-129.47-38.904-170.802 0-94.909 76.939-171.848 171.848-171.848s171.848 76.939 171.848 171.848-76.939 325.152-171.848 325.152c-47.301 0-90.139-57.19-121.214-126.313z" fill="#ef7d92"/><path d="m334.129 437.896c-48.994-61.871-87.086-131.596-111.326-206.765-12.914-40.048-21.872-81.209-27.146-122.946-2.346-18.566-3.995-37.315-5.071-55.999-.604-10.481-.876-21.171-.103-31.743-62.406 25.759-106.331 87.198-106.331 158.905 0 41.332 14.592 108.33 38.905 170.801l11.73 28.037c31.074 69.124 73.912 126.314 121.213 126.314 30.522 0 59.184-23.814 84.028-59.279-1.983-2.428-3.953-4.867-5.899-7.325z" fill="#eb6773"/><circle cx="256" cy="191.711" fill="#fff" r="107.56"/><path d="m222.803 231.131c-12.914-40.048-21.872-81.209-27.146-122.946-.214-1.696-.416-3.394-.619-5.093-28.145 19.398-46.598 51.851-46.598 88.619 0 57.084 44.471 103.773 100.657 107.333-10.022-22.073-18.819-44.733-26.294-67.913z" fill="#e9f9ff"/><path d="m256 512c-24.392 0-48.711-13.369-72.283-39.736-19.836-22.188-38.601-52.805-55.771-91.001-1.698-3.778-.013-8.217 3.766-9.916 3.774-1.697 8.217-.013 9.916 3.766 16.307 36.274 34.728 66.411 53.272 87.154 20.604 23.047 41.162 34.733 61.1 34.733 20.002 0 40.624-11.758 61.292-34.949 18.594-20.862 37.052-51.155 53.379-87.602 29.249-65.297 49.678-145.526 49.678-195.101 0-90.622-73.727-164.348-164.349-164.348s-164.349 73.726-164.349 164.348c0 42.177 15.07 108.153 38.395 168.081 1.502 3.86-.409 8.207-4.27 9.709-3.861 1.503-8.207-.409-9.709-4.269-23.944-61.522-39.416-129.633-39.416-173.521 0-98.893 80.455-179.348 179.349-179.348s179.349 80.455 179.349 179.348c0 51.463-20.968 134.213-50.988 201.233-21.987 49.081-67.898 131.419-128.361 131.419z"/><path d="m256 306.771c-63.444 0-115.06-51.616-115.06-115.06s51.616-115.059 115.06-115.059 115.06 51.616 115.06 115.06-51.616 115.059-115.06 115.059zm0-215.119c-55.173 0-100.06 44.887-100.06 100.06s44.887 100.06 100.06 100.06 100.06-44.887 100.06-100.06-44.887-100.06-100.06-100.06z"/></svg>