<?xml version="1.0" encoding="iso-8859-1"?>
<!-- Generator: Adobe Illustrator 19.0.0, SVG Export Plug-In . SVG Version: 6.00 Build 0)  -->
<svg version="1.1" id="Capa_1" xmlns="http://www.w3.org/2000/svg" xmlns:xlink="http://www.w3.org/1999/xlink" x="0px" y="0px"
	 viewBox="0 0 511.999 511.999" style="enable-background:new 0 0 511.999 511.999;" xml:space="preserve">
<path style="fill:#F0F0F0;" d="M413.003,399.769c26.542-50.739,12.183-124.113,12.183-124.113l-12.183-30.38l-157.004-29.705
	L98.996,247.976l-12.183,27.68c0,0-14.36,73.373,12.183,124.113l49.046,67.842h224.135L413.003,399.769z"/>
<path style="fill:#D9D9D9;" d="M126.82,275.656l12.183-27.68l137.87-28.457l-20.873-3.949L98.995,247.977l-12.183,27.68
	c0,0-14.36,73.373,12.183,124.113l49.046,67.842h40.007l-49.046-67.842C112.46,349.03,126.82,275.656,126.82,275.656z"/>
<path style="fill:#2FC8B4;" d="M483.045,418.484c-19.212,1.074-47.872,7.142-74.215,30.192c0,0,2.364-16.55,13.951-33.36
	c5.025-7.289-1.054-17.062-9.778-15.549c-25.177,4.369-62.188,15.59-86.207,44.412c0,0,1.508-15.584,8.222-29.604
	c3.542-7.393-2.692-15.679-10.749-14.159c-24.865,4.69-60.414,15.289-68.271,38.144c-7.856-22.856-43.405-33.455-68.27-38.144
	c-8.056-1.519-14.289,6.765-10.749,14.159c6.715,14.02,8.222,29.604,8.222,29.604c-24.019-28.823-61.03-40.044-86.207-44.412
	c-8.723-1.513-14.802,8.258-9.778,15.549c11.587,16.81,13.951,33.36,13.951,33.36c-26.343-23.05-55.002-29.118-74.215-30.192
	c-8.4-0.469-13.568,8.984-8.614,15.785c7.02,9.636,12.982,21.068,17.56,31.164c7.166,15.8,22.904,25.945,40.253,25.945h355.693
	c17.349,0,33.086-10.146,40.253-25.945c4.579-10.096,10.541-21.528,17.56-31.164C496.613,427.47,491.446,418.015,483.045,418.484z"
	/>
<path style="fill:#00AE95;" d="M67.905,465.433c-4.579-10.096-10.541-21.528-17.56-31.164c-3.027-4.154-2.271-9.295,0.686-12.562
	c-8.124-1.936-15.634-2.862-22.077-3.223c-8.4-0.47-13.568,8.984-8.614,15.785c7.02,9.636,12.981,21.068,17.56,31.164
	c7.166,15.8,22.904,25.945,40.253,25.945h30.005C90.809,491.379,75.071,481.233,67.905,465.433z"/>
<path style="fill:#FF5E6B;" d="M356.154,32.63c-32.873-8.609-67.516-12-100.155-12s-67.281,3.391-100.155,12l-36.299,32.824
	l-42.431,2.289c-22.339,15.685-41.247,36.029-54.593,62.062c-17.071,33.278-22.27,78.042-1.582,110.994
	c30.879,49.227,90.681,34.899,138.06,25.405c25.08-5.022,50.632-6.693,76.165-7.223c6.938-0.147,13.886-0.206,20.834-0.206
	s13.886,0.059,20.834,0.206c25.532,0.531,51.084,2.201,76.165,7.223c47.38,9.494,107.182,23.822,138.06-25.405
	c20.687-32.952,15.489-77.718-1.582-110.994c-13.346-26.033-32.254-46.377-54.593-62.062l-42.431-2.289L356.154,32.63z"/>
<path style="fill:#E63E4C;" d="M50.161,229.446c-24.629-39.232-18.44-92.527,1.883-132.145c3.292-6.42,6.881-12.533,10.719-18.382
	c-16.106,13.848-29.862,30.64-40.242,50.887c-17.071,33.278-22.27,78.042-1.582,110.994c25.751,41.054,71.619,37.903,113.621,30.219
	C101.441,271.147,70.52,261.902,50.161,229.446z"/>
<g>
	<circle style="fill:#F0F0F0;" cx="256.002" cy="136.327" r="43.397"/>
	<circle style="fill:#F0F0F0;" cx="112.749" cy="191.577" r="43.397"/>
	<circle style="fill:#F0F0F0;" cx="399.246" cy="191.577" r="43.397"/>
	<path style="fill:#F0F0F0;" d="M161.978,54.88c0,23.97-19.429,43.399-43.399,43.399c-19.488,0-35.979-12.845-41.463-30.535
		c23.312-16.383,50.357-27.695,78.73-35.115C159.737,39.135,161.978,46.742,161.978,54.88z"/>
	<path style="fill:#F0F0F0;" d="M434.884,67.744c-5.484,17.69-21.975,30.535-41.463,30.535c-23.97,0-43.399-19.429-43.399-43.399
		c0-8.137,2.24-15.744,6.132-22.25C384.527,40.049,411.573,51.361,434.884,67.744z"/>
</g>
<path d="M170.75,348.112c4.143,0,7.501-3.358,7.501-7.501v-15.429c0-4.144-3.359-7.501-7.501-7.501s-7.501,3.358-7.501,7.501v15.429
	C163.249,344.754,166.608,348.112,170.75,348.112z"/>
<path d="M333.748,325.182v15.429c0,4.144,3.359,7.501,7.501,7.501c4.143,0,7.501-3.358,7.501-7.501v-15.429
	c0-4.144-3.359-7.501-7.501-7.501C337.107,317.68,333.748,321.039,333.748,325.182z"/>
<path d="M271.393,334.6c-3.747,4.286-9.357,6.744-15.393,6.744c-6.036,0-11.647-2.458-15.394-6.745
	c-2.727-3.12-7.464-3.438-10.585-0.711c-3.12,2.726-3.438,7.465-0.71,10.585c6.596,7.545,16.324,11.874,26.688,11.874
	c10.365,0,20.092-4.328,26.688-11.874c2.726-3.12,2.408-7.858-0.711-10.585C278.857,331.163,274.119,331.481,271.393,334.6z"/>
<path d="M306.901,136.326c0-28.067-22.834-50.9-50.9-50.9s-50.9,22.834-50.9,50.9s22.834,50.9,50.9,50.9
	C284.067,187.227,306.901,164.393,306.901,136.326z M220.101,136.326c0-19.794,16.104-35.898,35.898-35.898
	s35.898,16.104,35.898,35.898s-16.104,35.898-35.898,35.898S220.101,156.121,220.101,136.326z"/>
<path d="M112.75,140.679c-28.067,0-50.9,22.834-50.9,50.9s22.834,50.9,50.9,50.9s50.9-22.834,50.9-50.9
	C163.651,163.513,140.816,140.679,112.75,140.679z M112.75,227.477c-19.794,0-35.898-16.104-35.898-35.898
	s16.104-35.898,35.898-35.898s35.898,16.104,35.898,35.898S132.544,227.477,112.75,227.477z"/>
<path d="M399.25,242.48c28.067,0,50.9-22.834,50.9-50.9s-22.834-50.9-50.9-50.9c-28.067,0-50.9,22.834-50.9,50.9
	S371.184,242.48,399.25,242.48z M399.25,155.682c19.794,0,35.898,16.104,35.898,35.898s-16.104,35.898-35.898,35.898
	c-19.794,0-35.898-16.104-35.898-35.898S379.456,155.682,399.25,155.682z"/>
<path d="M483.644,410.966c-0.336,0-0.675,0.009-1.018,0.029c-15.783,0.882-37.355,4.922-59.159,17.832
	c1.513-2.984,3.326-6.112,5.491-9.254c3.729-5.409,4.157-12.362,1.118-18.146c-1.508-2.87-3.725-5.198-6.363-6.809
	c3.62-8.533,6.507-17.949,8.603-28.118c0.836-4.058-1.774-8.025-5.832-8.861c-4.06-0.837-8.024,1.774-8.861,5.832
	c-2.262,10.973-5.504,20.907-9.652,29.59c-0.048,0.009-0.099,0.021-0.147,0.03c-5.625,1.079-11.21,2.398-16.725,3.943
	c-13.349,3.744-26.468,8.901-38.423,15.969c-4.243,2.508-8.375,5.189-12.323,8.141c-0.021,0.016-0.044,0.031-0.065,0.047
	c0.464-1.131,0.962-2.26,1.497-3.375c3.614-7.538,1.072-16.989-5.678-21.858c-1.442-1.04-3.05-1.862-4.742-2.409
	c-4.784-1.548-9.528-0.346-14.279,0.663c-20.066,4.261-34.48,9.927-44.792,16.083c-6.373,3.782-11.983,8.209-16.294,13.406
	c-4.307-5.191-9.91-9.617-16.275-13.395c-10.307-6.155-24.711-11.822-44.766-16.085c-3.464-0.736-7.084-1.768-10.657-1.413
	c-0.01,0.001-0.02,0.002-0.031,0.003c-10,0.952-17.233,10.518-15.531,20.408c0.487,2.832,1.891,5.343,2.971,7.972
	c-9.649-7.229-20.654-13.633-32.014-17.764c-11.263-4.096-22.446-7.804-34.247-10.08c-0.422-0.084-1.373-0.277-1.423-0.286
	c-18.762-39.255-13.388-92.076-10.838-109.847c20.597-0.238,41.517-4.451,59.697-8.123c3.967-0.801,6.669-4.869,5.867-8.838
	c-0.87-4.308-5.224-6.608-9.342-5.766c-10.867,2.233-21.777,4.349-32.774,5.828c-11.923,1.615-24.074,2.534-36.088,1.454
	c-24.118-2.148-41.538-12.274-53.258-30.958C6.48,203.662,15.31,160.294,29.196,133.227c10.688-20.847,25.717-38.91,44.762-53.784
	c0.036,0.066,0.075,0.13,0.111,0.195c4.856,8.793,12.346,16.04,21.298,20.602c7.145,3.642,15.194,5.539,23.21,5.539
	c28.067,0,50.9-22.834,50.9-50.901c0-5.75-0.987-11.578-2.919-16.999c-0.018-0.052-0.034-0.104-0.052-0.157
	c27.461-6.368,57.518-9.593,89.493-9.593s62.032,3.226,89.494,9.594c-0.017,0.047-0.031,0.095-0.047,0.142
	c-1.926,5.438-2.925,11.244-2.925,17.013c0,34.053,35.117,59.297,67.379,48.195c11.831-4.007,21.947-12.453,28-23.38
	c0.027-0.049,0.054-0.098,0.081-0.148c0.017-0.031,0.036-0.062,0.053-0.093c0.005-0.01,0.011-0.02,0.017-0.029
	c19.033,14.892,34.065,32.955,44.752,53.805c22.216,43.305,14.91,82.865,1.902,103.584c-14.266,22.744-35.55,30.487-59.223,31.365
	c-0.18-0.007-0.356-0.031-0.539-0.025c-21.09,0.679-44.386-4.033-64.94-8.189c-34.351-6.953-69.026-8.691-104.004-8.691
	c-25.442,0-50.947,0.674-76.205,3.944c-4.027,0.521-6.996,4.385-6.476,8.402c0.532,4.109,4.294,7.008,8.402,6.476
	c24.609-3.186,49.491-3.82,74.279-3.82c33.863,0,67.764,1.663,101.03,8.393c19.681,3.982,39.489,7.929,59.623,8.489
	c0.549,0.015,1.993,0.05,2.167,0.051c1.39,9.584,3.612,29.369,2.384,51.742c-0.227,4.137,2.942,7.673,7.079,7.9
	c0.14,0.008,0.279,0.012,0.417,0.012c3.955,0,7.264-3.095,7.483-7.091c1.241-22.615-0.794-42.458-2.287-53.171
	c28.53-2.808,49.325-15.191,63.517-37.815c24.161-38.485,14.42-87.838-1.26-118.405c-13.172-25.695-32.334-47.488-56.955-64.778
	c-22.576-15.866-49.875-28.057-81.142-36.234c-31.025-8.125-65.362-12.244-102.055-12.244s-71.03,4.12-102.057,12.245
	c-31.265,8.177-58.566,20.367-81.143,36.235c-24.618,17.287-43.78,39.08-56.951,64.774C0.166,156.947-9.574,206.3,14.585,244.782
	c15.986,25.485,38.96,35.399,63.504,37.82c-2.793,19.813-7.43,70.567,10.195,112.014c-2.637,1.61-4.853,3.938-6.36,6.807
	c-3.039,5.784-2.608,12.737,1.119,18.146c2.154,3.126,3.962,6.252,5.473,9.243c-21.799-12.903-43.363-16.94-59.142-17.822
	c-6.873-0.393-13.436,3.382-16.558,9.518c-2.987,5.871-2.426,12.835,1.462,18.174c5.725,7.857,11.375,17.899,16.793,29.846
	c8.361,18.436,26.842,30.348,47.084,30.348h355.693c20.241,0,38.722-11.913,47.085-30.349c5.418-11.946,11.067-21.988,16.792-29.845
	c3.889-5.338,4.45-12.302,1.462-18.173C496.188,414.625,490.234,410.966,483.644,410.966z M357.641,52.113
	c0.069-0.905,1.688-10.854,2.486-10.628c24.885,7.049,46.9,16.816,65.593,29.1c-0.019,0.039-0.037,0.079-0.056,0.118
	c-7.641,15.579-26.358,23.617-42.907,18.458C367.077,84.273,356.387,68.496,357.641,52.113z M151.872,41.486
	c0.188,0.469,0.379,0.936,0.547,1.412c1.352,3.828,2.057,7.921,2.057,11.982c0,19.794-16.104,35.898-35.898,35.898
	c-13.468,0-26.355-7.922-32.243-20.073c-0.019-0.04-0.037-0.08-0.056-0.119C104.972,58.302,126.986,48.535,151.872,41.486z
	 M485.597,429.853c-6.324,8.68-12.49,19.609-18.328,32.482c-5.936,13.086-19.054,21.543-33.422,21.543H78.153
	c-14.367,0-27.486-8.456-33.421-21.543c-5.838-12.874-12.005-23.802-18.329-32.482c-1.124-1.542-0.07-3.884,1.951-3.884
	c0.06,0,0.12,0.002,0.181,0.005c18.175,1.016,45.02,6.758,69.694,28.347c5.137,4.495,13.328,0.03,12.366-6.706
	c-0.107-0.747-2.756-18.502-15.201-36.556c-1.197-1.736,0.135-4.279,2.318-3.9c9.375,1.626,20.081,4.159,30.976,8.097
	c18.158,6.564,36.84,17.034,50.751,33.728c2.107,2.528,5.616,3.389,8.653,2.12c2.98-1.244,4.887-4.43,4.576-7.645
	c-0.962-9.97-3.68-20.098-7.637-29.289c-0.408-0.947-0.836-1.892-1.287-2.833c-0.852-1.779,0.586-3.922,2.593-3.546
	c27.434,5.174,46.968,13.46,56.684,23.834c2.525,2.695,4.675,5.867,5.883,9.378c1.041,3.03,3.891,5.063,7.094,5.063
	c3.204,0,6.053-2.033,7.094-5.063c2.424-7.054,8.311-12.395,14.399-16.378c10.884-7.121,27.225-12.883,48.167-16.833
	c1.972-0.372,3.419,1.822,2.593,3.548c-0.45,0.94-0.879,1.885-1.287,2.832c-3.959,9.188-6.671,19.313-7.637,29.29
	c-0.308,3.182,1.549,6.38,4.576,7.645c2.912,1.216,6.461,0.368,8.545-1.993c0.037-0.042,0.073-0.084,0.108-0.126
	c17.356-20.826,42.137-31.965,64.064-37.919c6.193-1.681,12.158-2.951,17.664-3.906c1.487-0.258,2.277,0.805,2.508,1.245
	c0.324,0.616,0.554,1.577-0.189,2.654c-12.444,18.054-15.094,35.809-15.201,36.556c-0.443,3.106,1.092,6.159,3.85,7.655
	c2.758,1.495,6.154,1.117,8.516-0.949c24.673-21.589,51.518-27.332,69.694-28.348c1.373-0.077,2.081,0.815,2.349,1.341
	C486.119,427.918,486.33,428.846,485.597,429.853z"/>
<g>
</g>
<g>
</g>
<g>
</g>
<g>
</g>
<g>
</g>
<g>
</g>
<g>
</g>
<g>
</g>
<g>
</g>
<g>
</g>
<g>
</g>
<g>
</g>
<g>
</g>
<g>
</g>
<g>
</g>
</svg>
