<?xml version="1.0" encoding="iso-8859-1"?>
<!-- Generator: Adobe Illustrator 19.0.0, SVG Export Plug-In . SVG Version: 6.00 Build 0)  -->
<svg version="1.1" id="Capa_1" xmlns="http://www.w3.org/2000/svg" xmlns:xlink="http://www.w3.org/1999/xlink" x="0px" y="0px"
	 viewBox="0 0 512.002 512.002" style="enable-background:new 0 0 512.002 512.002;" xml:space="preserve">
<path style="fill:#FF5E6B;" d="M365.602,336.626L256,317.861l-109.602,18.765c-15.903,22.133-25.273,49.277-25.273,78.611
	c0,15.416,2.588,30.228,7.352,44.024c9.36,27.105,34.953,45.238,63.628,45.238h127.79c28.675,0,54.268-18.133,63.628-45.238
	c4.764-13.797,7.352-28.608,7.352-44.024C390.875,385.903,381.506,358.759,365.602,336.626z"/>
<path style="fill:#E63E4C;" d="M168.477,459.261c-4.764-13.796-7.352-28.608-7.352-44.024c0-29.334,9.37-56.478,25.273-78.611
	l89.603-15.341l-20-3.424l-109.603,18.765c-15.903,22.133-25.273,49.277-25.273,78.611c0,15.416,2.588,30.228,7.352,44.024
	c9.36,27.105,34.953,45.238,63.628,45.238h40C203.43,504.499,177.836,486.366,168.477,459.261z"/>
<path style="fill:#FAA330;" d="M293.155,219.838L256,200.88l-37.155,18.958c-2.12,14.444-5.143,29.375-9.413,43.302l45.8,17.512
	l47.337-17.512C298.298,249.213,295.275,234.282,293.155,219.838z"/>
<path style="fill:#F09318;" d="M239.432,263.14c4.27-13.927,7.293-28.858,9.413-43.302L271,208.534l-15-7.654l-37.155,18.958
	c-2.12,14.444-5.143,29.375-9.413,43.302l45.8,17.512l15.248-5.641L239.432,263.14z"/>
<path style="fill:#FFCE1C;" d="M218.845,219.838c5.974-40.553,4.909-77.283,4.909-77.283L256,119.793l32.246,22.762
	c0,0-1.065,36.729,4.909,77.283H218.845z"/>
<path style="fill:#FAA330;" d="M253.754,142.556L271,130.382l-15-10.588l-32.246,22.762c0,0,1.065,36.729-4.909,77.282h30
	C254.819,179.285,253.754,142.556,253.754,142.556z"/>
<path style="fill:#FFCE1C;" d="M336.62,317.864H175.38c16.077-10.651,26.85-31.262,34.051-54.724h93.137
	C309.77,286.602,320.542,307.213,336.62,317.864z"/>
<path style="fill:#FAA330;" d="M239.432,263.14h-30c-7.202,23.462-17.974,44.073-34.051,54.724h30
	C221.457,307.213,232.23,286.602,239.432,263.14z"/>
<path style="fill:#F0F0F0;" d="M371.772,299.095H140.228c-10.364,0-18.765,8.402-18.765,18.765l0,0
	c0,10.364,8.401,18.765,18.765,18.765h231.544c10.364,0,18.765-8.401,18.765-18.765l0,0
	C390.537,307.497,382.136,299.095,371.772,299.095z"/>
<path style="fill:#D9D9D9;" d="M161.463,317.86L161.463,317.86c0-10.364,8.401-18.765,18.765-18.765h-40
	c-10.364,0-18.765,8.401-18.765,18.765l0,0c0,10.364,8.401,18.765,18.765,18.765h40C169.864,336.626,161.463,328.224,161.463,317.86
	z"/>
<path style="fill:#2FC8B4;" d="M256,119.795c4.597-26.785-11.638-61.254-43.081-85.968c-31.442-24.714-68.771-32.346-93.712-21.551
	c-4.597,26.785,11.638,61.254,43.081,85.968C193.73,122.958,231.059,130.59,256,119.795z"/>
<path style="fill:#00AE95;" d="M256,119.795c-4.597-26.785,11.638-61.254,43.081-85.968c31.442-24.714,68.771-32.346,93.712-21.551
	c4.597,26.785-11.638,61.254-43.081,85.968C318.27,122.958,280.941,130.59,256,119.795z"/>
<path style="fill:#2FC8B4;" d="M256,119.795c-4.597,26.785,11.638,61.254,43.081,85.968c31.442,24.714,68.771,32.346,93.712,21.551
	c4.597-26.785-11.638-61.254-43.081-85.968C318.27,116.633,280.941,109,256,119.795z"/>
<path style="fill:#00AE95;" d="M256,119.795c4.597,26.785-11.638,61.254-43.081,85.968c-31.442,24.714-68.771,32.346-93.712,21.551
	c-4.597-26.785,11.638-61.254,43.081-85.968C193.73,116.633,231.059,109,256,119.795z"/>
<path d="M190.552,394.981c-4.142,0-7.5,3.358-7.5,7.5v11.845c0,4.142,3.358,7.5,7.5,7.5s7.5-3.358,7.5-7.5v-11.845
	C198.052,398.338,194.694,394.981,190.552,394.981z"/>
<path d="M321.448,421.825c4.142,0,7.5-3.358,7.5-7.5V402.48c0-4.142-3.358-7.5-7.5-7.5s-7.5,3.358-7.5,7.5v11.845
	C313.948,418.467,317.306,421.825,321.448,421.825z"/>
<path d="M256,428.148c8.46,0,16.406-3.54,21.8-9.711c2.726-3.119,2.407-7.857-0.711-10.583c-3.119-2.726-7.857-2.408-10.583,0.711
	c-2.545,2.912-6.375,4.583-10.506,4.583s-7.961-1.67-10.506-4.583c-2.727-3.12-7.465-3.438-10.583-0.711
	c-3.119,2.726-3.438,7.464-0.711,10.583C239.594,424.609,247.54,428.148,256,428.148z"/>
<path d="M120.505,180.24c-8.241,16.732-11.246,33.449-8.689,48.343c0.429,2.497,2.088,4.608,4.413,5.614
	c8.27,3.58,17.663,5.395,27.918,5.395c22.061,0,46.378-8.559,67.673-23.656c-0.131,0.938-0.259,1.886-0.396,2.814
	c-2.3,15.668-5.382,29.863-9.163,42.191c-3.692,12.027-8.075,22.317-13.052,30.656h-48.981c-14.483,0-26.266,11.783-26.266,26.265
	c0,12.054,8.165,22.23,19.253,25.307c-12.839,21.79-19.591,46.451-19.591,72.07c0,15.919,2.612,31.555,7.763,46.473
	c10.388,30.08,38.807,50.29,70.718,50.29h127.79c31.911,0,60.33-20.21,70.718-50.29c5.151-14.917,7.763-30.553,7.763-46.472
	c0-25.619-6.752-50.279-19.591-72.07c11.088-3.076,19.253-13.253,19.253-25.307c0-14.482-11.783-26.265-26.266-26.265h-48.981
	c-4.977-8.339-9.361-18.628-13.053-30.656c-3.78-12.328-6.863-26.522-9.163-42.193c-0.136-0.924-0.264-1.872-0.395-2.81
	c21.294,15.096,45.611,23.655,67.676,23.656c10.253,0,19.646-1.815,27.916-5.395c2.325-1.006,3.984-3.118,4.413-5.614
	c2.556-14.894-0.449-31.611-8.689-48.343c-8.196-16.642-21.042-32.13-37.148-44.79c-7.849-6.169-16.203-11.422-24.772-15.653
	c8.615-4.263,16.986-9.537,24.772-15.657c16.106-12.659,28.952-28.147,37.148-44.79c8.241-16.732,11.246-33.449,8.689-48.343
	c-0.429-2.497-2.088-4.608-4.413-5.614c-16.714-7.234-38.075-7.193-60.151,0.115c-3.932,1.302-6.064,5.545-4.763,9.478
	c1.302,3.932,5.542,6.065,9.478,4.763c16.818-5.568,32.812-6.267,45.583-2.067c1.933,24.13-14.015,53.581-40.841,74.666
	c-10.951,8.608-23.144,15.345-35.397,19.573c-8.431-2.507-17.188-4.071-25.986-4.353l64.609-50.782
	c3.256-2.56,3.821-7.274,1.262-10.531c-2.56-3.257-7.275-3.821-10.531-1.262l-75.973,59.714c0.098-0.925,0.374-3.089,0.387-3.236
	c3.34-21.143,18.078-44.305,40.268-61.746c3.753-2.951,7.708-5.721,11.754-8.234c3.519-2.185,4.6-6.809,2.414-10.328
	c-2.185-3.518-6.809-4.6-10.328-2.414c-4.514,2.803-8.925,5.893-13.11,9.183c-16.106,12.659-28.952,28.147-37.148,44.79
	c-0.458,0.931-0.895,1.861-1.321,2.792c-8.001-17.41-21.403-34.204-38.423-47.581c-22.584-17.751-49.34-27.933-73.408-27.933
	c-10.255,0-19.648,1.815-27.918,5.395c-2.325,1.006-3.984,3.118-4.413,5.614c-2.556,14.894,0.449,31.611,8.689,48.343
	c8.196,16.642,21.042,32.13,37.148,44.79c7.786,6.12,16.157,11.394,24.772,15.656c-8.569,4.231-16.923,9.484-24.772,15.653
	C141.547,148.11,128.701,163.598,120.505,180.24z M233.07,197.539c9.335-9.835,17.287-21.096,22.944-33.441
	c6.157,13.427,15.533,26.509,27.37,37.93c0.36,3.489,0.754,6.934,1.179,10.312h-57.126c0.425-3.378,0.819-6.823,1.179-10.312
	c0.021-0.021,0.042-0.041,0.063-0.062C230.174,200.524,231.638,199.048,233.07,197.539z M225.269,227.339h61.462
	c1.653,10.073,3.635,19.542,5.921,28.302h-73.305C221.634,246.881,223.616,237.413,225.269,227.339z M371.772,306.596
	c6.212,0,11.266,5.054,11.266,11.265s-5.054,11.265-11.266,11.265H205.839c-4.142,0-7.5,3.358-7.5,7.5s3.358,7.5,7.5,7.5h155.848
	c14.201,21.047,21.688,45.551,21.688,71.111c0,14.25-2.335,28.238-6.941,41.576c-8.3,24.037-31.021,40.186-56.539,40.186h-127.79
	c-25.518,0-48.239-16.149-56.539-40.186c-4.606-13.339-6.941-27.327-6.941-41.577c0-25.56,7.487-50.064,21.688-71.111h25.572
	c4.142,0,7.5-3.358,7.5-7.5s-3.358-7.5-7.5-7.5h-35.657c-6.212,0-11.266-5.054-11.266-11.265s5.054-11.265,11.266-11.265h231.544
	V306.596z M206.29,291.596c3.152-6.291,6.029-13.293,8.608-20.955h82.204c2.579,7.662,5.456,14.664,8.608,20.955H206.29z
	 M385.918,221.908c-5.432,1.783-11.488,2.684-18.065,2.684c-20.771-0.001-44.147-9.013-64.138-24.725
	c-19.086-15.001-35.934-36.527-40.108-61.121c0.144-1.055,0.262-2.104,0.359-3.15l75.067,59.003
	c3.219,2.531,8.001,1.957,10.531-1.262c2.56-3.257,1.995-7.972-1.262-10.531l-75.991-59.729c0.594-0.08,1.194-0.15,1.799-0.212
	c25.438-2.628,51.351,8.961,70.967,24.379C371.903,168.329,387.851,197.778,385.918,221.908z M202.319,111.921
	c-12.253-4.228-24.445-10.964-35.396-19.572c-26.826-21.085-42.774-50.534-40.841-74.665C131.514,15.902,137.571,15,144.146,15
	c20.77,0,44.147,9.012,64.138,24.726c21.542,16.932,36.461,39.671,40.116,61.05c-0.148,1.078-0.268,2.151-0.367,3.22l-75.067-59.002
	c-3.256-2.56-7.972-1.995-10.531,1.262s-1.995,7.972,1.262,10.531l64.608,50.782c-0.109,0.003-0.219,0.009-0.328,0.013
	C219.291,107.891,210.644,109.444,202.319,111.921z M205.648,126.599c9.411-2.9,19.263-4.515,29.126-3.971
	c1.539,0.085,4.806,0.442,4.906,0.456l-75.983,59.723c-3.256,2.56-3.821,7.274-1.262,10.531c2.467,3.14,7.272,3.823,10.531,1.262
	l75.973-59.715c-0.098,0.925-0.21,1.854-0.354,2.795c-0.003,0.019-0.001,0.037-0.004,0.056
	c-1.977,12.887-8.115,26.394-17.443,38.866c-19.836,26.523-53.048,47.991-86.992,47.991c-6.576,0-12.633-0.902-18.065-2.684
	c-1.933-24.131,14.015-53.58,40.841-74.665C179.033,137.725,192.386,130.686,205.648,126.599z"/>
<g>
</g>
<g>
</g>
<g>
</g>
<g>
</g>
<g>
</g>
<g>
</g>
<g>
</g>
<g>
</g>
<g>
</g>
<g>
</g>
<g>
</g>
<g>
</g>
<g>
</g>
<g>
</g>
<g>
</g>
</svg>
