<?xml version="1.0" encoding="iso-8859-1"?>
<!-- Generator: Adobe Illustrator 19.0.0, SVG Export Plug-In . SVG Version: 6.00 Build 0)  -->
<svg version="1.1" id="Capa_1" xmlns="http://www.w3.org/2000/svg" xmlns:xlink="http://www.w3.org/1999/xlink" x="0px" y="0px"
	 viewBox="0 0 511.999 511.999" style="enable-background:new 0 0 511.999 511.999;" xml:space="preserve">
<g>
	<path style="fill:#00AE95;" d="M142.352,12.145c-11.769,30.587-1.013,71.798,29.59,102.4s71.813,41.359,102.4,29.59
		c11.769-30.587,1.013-71.797-29.59-102.4S172.939,0.376,142.352,12.145z"/>
	<path style="fill:#00AE95;" d="M145.457,240.19c-5.695,24.565,6.908,54.814,33.5,74.86c26.592,20.045,59.144,23.831,81.19,11.592
		c5.695-24.565-6.908-54.814-33.5-74.86S167.505,227.952,145.457,240.19z"/>
	<path style="fill:#00AE95;" d="M433.974,114.785c10.564,27.455,0.91,64.445-26.56,91.914c-27.47,27.469-64.459,37.123-91.914,26.56
		c-10.564-27.455-0.91-64.445,26.56-91.914C369.53,113.875,406.519,104.221,433.974,114.785z"/>
</g>
<path style="fill:#2FC8B4;" d="M239.928,457.595c-2.682-16.035-4.458-32.144-5.064-48.397c-1.178-31.588,4.638-63.783,19.643-91.798
	c10.119-18.893,22.856-36.28,32.23-55.588c10.897-22.444,6.425-47.242-1.797-69.687c-5.785-15.77-13.325-30.783-21.12-45.637
	l-0.093-0.177c-2.702-5.148-0.719-11.513,4.43-14.215c4.827-2.533,10.75-0.907,13.694,3.544
	c9.881,14.94,19.315,30.379,26.665,46.747c10.52,23.428,17.482,49.157,11.908,74.85c-5.78,26.647-23.637,48.042-34.961,72.307
	c-10.685,22.896-14.571,48.073-14.145,73.199c0.278,16.423,2.398,32.749,4.964,48.951c1.59,10.046-5.263,19.477-15.309,21.068
	C250.982,474.343,241.597,467.571,239.928,457.595z"/>
<path style="fill:#00AE95;" d="M239.928,457.595c1.669,9.977,11.054,16.748,21.045,15.167c10.046-1.59,16.899-11.023,15.309-21.068
	c-2.565-16.203-4.685-32.529-4.964-48.951c-0.077-4.538-0.008-9.079,0.211-13.606c-5.108-0.563-10.295-0.853-15.529-0.853
	c-7.096,0-14.104,0.536-20.949,1.563c-0.36,6.449-0.427,12.913-0.187,19.351C235.47,425.451,237.246,441.56,239.928,457.595z"/>
<path style="fill:#C86D5C;" d="M480.911,504.515c-13.105-17.941-38.504-30.227-67.831-30.654
	c-13.793-19.875-41.719-33.48-73.95-33.48c-6.115,0-12.07,0.503-17.809,1.432c-15.222-14.322-38.813-23.528-65.321-23.528
	c-26.508,0-50.099,9.207-65.321,23.528c-5.739-0.929-11.694-1.432-17.809-1.432c-32.231,0-60.157,13.605-73.95,33.48
	c-29.327,0.427-54.726,12.713-67.831,30.654H480.911z"/>
<path style="fill:#B24D40;" d="M172.87,440.381c-32.231,0-60.157,13.605-73.95,33.48c-29.327,0.427-54.726,12.713-67.831,30.654
	h132.948c26.601-57.807,91.962-86.23,91.962-86.23c-26.508,0-50.099,9.207-65.321,23.528
	C184.94,440.885,178.985,440.381,172.87,440.381z"/>
<path d="M31.086,511.999c0,0,449.441,0,449.821,0c6.033,0,9.628-7.036,6.056-11.925c-14.26-19.522-40.842-32.209-70.016-33.612
	c-16.286-20.812-45.688-33.598-77.821-33.598c-5.137,0-10.308,0.337-15.417,1.004c-11.942-10.23-27.393-17.388-44.46-20.809
	c-0.231-3.647-0.38-7.114-0.437-10.461c-0.446-26.313,4.077-49.83,13.442-69.9c3.833-8.213,8.611-16.371,13.231-24.261
	c8.979-15.329,18.261-31.18,22.263-49.628c1.017-4.687,1.67-9.52,1.962-14.442c3.04,0.361,6.141,0.558,9.306,0.558
	c25.902,0,52.763-12.006,73.697-32.94c28.81-28.81,40.165-68.961,28.256-99.911c-0.762-1.98-2.327-3.544-4.307-4.306
	c-8.078-3.108-16.897-4.684-26.215-4.684c-25.902,0-52.763,12.006-73.696,32.94c-10.814,10.814-19.167,23.223-24.755,36.146
	c-7.608-15.488-16.614-29.676-23.896-40.685c-0.666-1.007-1.434-1.94-2.286-2.791c3.845-30.715-9.295-65.81-35.764-92.28
	c-3.108-3.109-6.434-6.12-9.883-8.952c-3.202-2.628-7.928-2.163-10.557,1.038c-2.628,3.202-2.163,7.928,1.038,10.557
	c3.071,2.521,6.029,5.201,8.794,7.964c22.397,22.397,34.01,51.441,31.835,76.921c-16.909-25.04-48.24-63.275-93.971-86.809
	c-3.684-1.896-8.207-0.446-10.102,3.237c-1.896,3.683-0.446,8.206,3.236,10.102c47.551,24.471,78.68,66.174,93.117,89.076
	c-0.327,0.075-1.18,0.291-1.284,0.317c-27.245,5.748-60.221-5.825-85.035-30.64c-26.723-26.724-38.105-62.914-29.017-91.215
	c17.398-5.555,38.587-3.421,58.735,6.018c3.751,1.757,8.218,0.141,9.975-3.61c1.757-3.75,0.142-8.217-3.609-9.974
	C188.252-1.301,161.4-3.238,139.653,5.13c-1.98,0.762-3.545,2.326-4.307,4.306c-13.147,34.171-0.574,78.536,31.287,110.397
	c23.44,23.44,53.644,36.441,81.583,36.44c3.994,0,7.94-0.279,11.817-0.818c7.241,14.004,13.126,26.334,17.859,39.233
	c9.707,26.498,10.372,46.781,2.092,63.832c-4.793,9.873-10.672,19.516-16.446,28.869c-6.162-15.539-17.331-30.268-32.381-41.612
	c-17.196-12.962-37.388-20.1-56.858-20.1c-11.897,0-23.13,2.746-32.488,7.941c-1.854,1.03-3.187,2.797-3.666,4.863
	c-6.514,28.099,8.07,61.27,36.292,82.543c17.194,12.961,37.386,20.099,56.861,20.1c1.731,0,3.447-0.065,5.146-0.181
	c-6.84,21.141-9.977,44.561-9.084,68.518c0.059,1.558,0.131,3.14,0.215,4.75c-15.016,3.751-28.571,10.469-39.296,19.656
	c-5.109-0.667-10.28-1.004-15.417-1.004c-32.134,0-61.536,12.786-77.821,33.598c-29.174,1.403-55.754,14.088-70.014,33.61
	C21.465,504.954,25.08,511.999,31.086,511.999z M347.36,146.633c18.141-18.142,41.137-28.546,63.089-28.546
	c6.237,0,12.153,0.864,17.634,2.573c7.852,25.077-2.309,57.053-25.977,80.72c-18.141,18.141-41.137,28.546-63.089,28.546
	c-4.382,0-8.603-0.436-12.628-1.283c13.246-20.822,40.853-57.232,82.713-78.774c3.683-1.896,5.132-6.417,3.236-10.102
	c-1.895-3.683-6.417-5.132-10.102-3.237c-40.039,20.605-67.788,53.636-83.345,76.272c-0.272-5.789,1.561-18.414,1.586-18.618
	C324.097,177.523,333.366,160.625,347.36,146.633z M231.297,326.124c-16.233-0.001-33.219-6.066-47.828-17.079
	c-22.405-16.889-34.664-42.127-31.349-63.837c6.515-2.971,14.11-4.529,22.181-4.529c16.231,0,33.217,6.065,47.828,17.078
	c17.384,13.104,28.653,31.232,31.286,48.841c-16.215-17.209-43.047-40.516-78.079-52.742c-3.912-1.365-8.189,0.699-9.554,4.61
	c-1.365,3.911,0.699,8.189,4.61,9.553c36.963,12.9,64.197,39.444,78.1,55.491c-0.147,0.047-0.291,0.1-0.439,0.145
	C242.633,325.337,236.973,326.124,231.297,326.124z M242.355,408.902c-0.942-25.266,2.902-49.809,11.137-71.235
	c0.079-0.026,0.156-0.057,0.235-0.083c5.449-1.805,12.774-3.736,13.936-10.274c1.023-5.757,1.564-11.419,1.154-17.275
	c-0.052-0.748-0.11-1.498-0.186-2.244c2.158-3.592,4.386-7.198,6.552-10.706c6.323-10.235,12.861-20.817,18.296-32.012
	c10.038-20.674,9.546-45.385-1.503-75.547c-4.618-12.589-10.186-24.493-16.927-37.679c1.106-0.387,2.2-0.767,3.22-1.35
	c1.044-0.644,1.969-1.578,2.579-2.655c6.957,10.893,14.677,23.923,20.82,37.602c1.293,2.881,2.502,5.739,3.605,8.524
	c-1.071,5.851-1.543,11.633-1.439,17.261c0.137,7.425,1.307,14.88,3.666,21.931c0.093,3.236,2.349,5.949,5.313,7.087
	c0.665,0.256,1.343,0.503,2.035,0.742c-0.148,5.02-0.737,9.926-1.76,14.642c-3.495,16.111-11.779,30.254-20.547,45.228
	c-4.794,8.187-9.752,16.65-13.88,25.498c-10.337,22.151-15.333,47.889-14.848,76.498c0.045,2.663,0.14,5.382,0.287,8.199
	c-0.949-0.065-9.785-0.167-13.266-0.167c-0.562,0.025-8.38,0.47-8.371,0.661C242.424,410.655,242.387,409.776,242.355,408.902z
	 M99.026,481.344c2.419-0.035,4.673-1.235,6.052-3.223c18.092-26.072,54.696-33.733,84.398-28.92
	c2.299,0.373,4.642-0.345,6.338-1.941c19.6-18.443,49.269-24.336,75.292-20.376c0.045,0.007,0.09,0.004,0.135,0.01
	c17.716,2.602,33.594,9.696,44.936,20.366c1.696,1.596,4.038,2.313,6.338,1.941c29.573-4.787,66.352,2.917,84.398,28.92
	c1.379,1.988,3.633,3.188,6.052,3.223c19.09,0.278,36.936,6.038,49.886,15.654H49.14C62.09,487.383,79.936,481.622,99.026,481.344z"
	/>
<g>
</g>
<g>
</g>
<g>
</g>
<g>
</g>
<g>
</g>
<g>
</g>
<g>
</g>
<g>
</g>
<g>
</g>
<g>
</g>
<g>
</g>
<g>
</g>
<g>
</g>
<g>
</g>
<g>
</g>
</svg>
