<?xml version="1.0" encoding="iso-8859-1"?>
<!-- Generator: Adobe Illustrator 19.0.0, SVG Export Plug-In . SVG Version: 6.00 Build 0)  -->
<svg version="1.1" id="Capa_1" xmlns="http://www.w3.org/2000/svg" xmlns:xlink="http://www.w3.org/1999/xlink" x="0px" y="0px"
	 viewBox="0 0 512 512" style="enable-background:new 0 0 512 512;" xml:space="preserve">
<g>
	<path style="fill:#FF5E6B;" d="M409.019,478.385c-19.998-22.859-72.789-95.952-35.478-196.407l-21.884-30.553l-61.236,25.664
		c0,0-7.774,193.71,102.089,226.733c7.37,2.215,15.272-1.152,18.714-8.036C414.079,490.073,413.224,483.192,409.019,478.385z"/>
	<path style="fill:#FF5E6B;" d="M195.824,291.868l-46.345-53.826l-10.382,9.32c-11.924,10.704-17.652,26.696-15.236,42.537l0,0
		c1.484,9.731-0.076,19.695-4.51,28.483c-42.363,83.953-7.397,154.055,7.393,177.629c3.316,5.285,9.113,8.487,15.352,8.487l0,0
		c11.931,0,20.595-11.329,17.494-22.849C127.346,361.845,195.824,291.868,195.824,291.868z"/>
</g>
<path style="fill:#E63E4C;" d="M370.933,279.797c0.186-0.23,0.361-0.468,0.543-0.701l-19.82-27.67L290.42,277.09
	c0,0-0.751,18.733,1.516,45.538c1.385,0.118,2.783,0.192,4.198,0.192c0.002,0,0.003,0,0.005,0c5.157,0,10.28-0.816,15.222-2.426
	C335.129,312.653,355.728,298.615,370.933,279.797z"/>
<path style="fill:#B3B3B3;" d="M348.416,238.043c-8.032-11.584-22.943-29.837-45.249-44.598l-26.193,47.672v32.439
	c0,13.032,12.706,22.349,25.097,18.313c14.014-4.565,31.437-13.487,45.527-30.926C352.922,254.354,353.242,245.003,348.416,238.043z
	"/>
<path style="fill:#E63E4C;" d="M149.48,238.043l-10.382,9.32c-8.284,7.437-13.568,17.427-15.218,28.144
	c0.945,1.473,1.967,2.909,3.083,4.291c13.28,16.436,30.677,29.224,50.704,37.356c9.624-16.553,18.158-25.284,18.158-25.284
	L149.48,238.043z"/>
<path style="fill:#B3B3B3;" d="M149.48,238.043c8.032-11.584,23.213-29.837,45.519-44.598l25.924,41.532v38.579
	c0,13.032-12.706,22.349-25.097,18.313c-14.014-4.565-31.437-13.487-45.527-30.926C144.975,254.354,144.654,245.003,149.48,238.043z
	"/>
<path style="fill:#999999;" d="M282.505,95.278c24.063-32.456,24.138-63.847,22.329-78.758c-0.448-3.698,3.579-6.318,6.748-4.359
	c82.974,51.299-8.413,171.532-8.413,171.532h-54.22L282.505,95.278z"/>
<path style="fill:#B3B3B3;" d="M194.728,7.502L194.728,7.502v126.265l87.776,83.818V95.278
	C282.505,46.801,243.206,7.502,194.728,7.502z"/>
<g>
	<path style="fill:#999999;" d="M303.168,193.444l-26.193,47.672v25h18.634c17.982,0,32.56-14.578,32.56-32.56v-19.655
		C321.211,206.98,312.893,199.88,303.168,193.444z"/>
	<path style="fill:#999999;" d="M172.582,211.305c6.755,23.855,24.989,42.921,48.34,50.833v-27.162l-25.924-41.532
		C186.485,199.078,179.018,205.219,172.582,211.305z"/>
</g>
<circle style="fill:#B3B3B3;" cx="248.949" cy="196.588" r="16.502"/>
<path style="fill:#D9D9D9;" d="M276.251,156.774h-31.232V133.2c0-13.725-10.996-24.882-24.66-25.141
	c-14.095-0.267-25.632,11.61-25.632,25.707v57.059c0,27.775,22.516,50.291,50.291,50.291l0,0h58.15v-57.425
	C303.168,168.826,291.116,156.774,276.251,156.774z"/>
<circle cx="219.949" cy="139.489" r="7.654"/>
<path d="M249.027,172.584c-13.235,0-24.002,10.768-24.002,24.002c0,13.235,10.767,24.002,24.002,24.002
	c13.235,0,24.002-10.767,24.002-24.002C273.029,183.352,262.261,172.584,249.027,172.584z M249.027,205.587
	c-4.964,0-9.002-4.038-9.002-9.002c0-4.963,4.038-9.002,9.002-9.002c4.964,0,9.002,4.039,9.002,9.002
	C258.029,201.549,253.99,205.587,249.027,205.587z"/>
<path d="M394.747,496.637c-57.992-17.431-81.197-84.209-90.452-137.16c-0.713-4.08-4.598-6.809-8.68-6.096
	c-4.08,0.713-6.81,4.599-6.097,8.679c9.983,57.11,35.593,129.307,100.91,148.942c21.679,6.517,39.34-20.38,24.312-37.557
	c-9.531-10.895-27.109-34.021-37.747-66.5c-12.995-39.674-11.765-80.84,3.656-122.356c0.868-2.336,0.518-4.952-0.934-6.979
	l-20.361-28.426c0.049-5.386-1.495-10.796-4.697-15.415c-8.493-12.25-22.882-29.596-43.912-44.28v-3.332
	c8.9-12.288,51.668-74.791,41.747-128.225c-4.083-21.997-16.494-39.544-36.889-52.154c-1.893-1.17-4.055-1.789-6.251-1.789
	c-3.418,0-6.689,1.479-8.975,4.059c-2.262,2.553-3.323,5.968-2.911,9.371c1.407,11.602,1.435,32.368-10.015,55.601
	C277.402,31.186,239.68,0,194.806,0c-4.142,0-7.5,3.358-7.5,7.5v51.938c0,4.142,3.358,7.5,7.5,7.5s7.5-3.358,7.5-7.5V15.347
	c40.761,3.794,72.775,38.193,72.775,79.929v53.997h-22.485c0,0,0-16.073,0-16.074c0-18.142-15.904-33.515-34.265-32.596
	c-0.14,0.007-0.28,0.016-0.42,0.025c-5.55,0.349-10.958,2.163-15.607,5.215V89.437c0-4.142-3.358-7.5-7.5-7.5s-7.5,3.358-7.5,7.5
	c0,0,0,44.308,0,44.327v55.921c-21.919,15.361-36.336,33.294-43.388,43.34l-9.753,8.755c-13.853,12.436-20.447,30.847-17.639,49.249
	c1.261,8.268-0.05,16.558-3.792,23.974c-18.974,37.603-25.176,76.663-18.433,116.099c5.559,32.511,18.78,57.117,26.167,68.892
	c14.918,23.781,53.879,7.33,46.444-20.296c-16.025-59.54-5.872-105.944,5.468-134.389c9.399-23.578,21.145-39.102,26.252-45.209
	c1.064,0.131,2.132,0.217,3.204,0.217c14.557,0,26.664-12.268,26.664-26.765v-27.379c5.26,1.58,10.829,2.44,16.598,2.44h24.456
	v24.938c0,9.952,5.444,18.646,13.496,23.258c0.249,8.802,0.854,20.901,2.27,34.723c0.422,4.121,4.111,7.121,8.225,6.697
	c4.121-0.422,7.119-4.104,6.697-8.225c-1.174-11.463-1.773-21.707-2.072-29.761c0.023-0.001,0.047-0.005,0.07-0.007
	c0.121-0.009,0.242-0.027,0.363-0.038c5.761-0.511,11.322-2.975,16.553-5.304c14.651-6.522,27.75-16.301,37.927-28.714
	l12.144,16.954c-15.327,43.502-16.167,86.706-2.485,128.477c11.466,35.006,30.427,59.952,40.711,71.707
	C408.879,489.524,402.461,498.956,394.747,496.637z M312.926,22.029c13.704,9.958,21.841,22.642,24.814,38.613
	c4.966,26.685-6.12,57.25-16.294,78.19c-5.295,10.9-10.91,20.404-15.394,27.443c-3.348-5.728-8.339-10.401-14.423-13.402
	c-0.276-0.138-0.554-0.271-0.834-0.401c-0.24-0.111-0.47-0.238-0.714-0.344V97.715C311.194,68.138,313.939,39.594,312.926,22.029z
	 M152.428,483.596c3.035,11.289-12.979,18.426-19.251,8.427c-6.797-10.835-18.965-33.485-24.089-63.45
	c-6.19-36.203-0.458-72.139,17.039-106.813c5.155-10.217,6.963-21.625,5.229-32.993c-1.735-11.375,1.468-22.755,8.652-31.468
	c0.044,0.134,0.104,0.264,0.15,0.397c1.735,5.011,5.29,9.267,8.895,13.147c9.478,10.2,21.256,18.46,34.035,24.133
	c0.108,0.047,0.213,0.099,0.321,0.146C166.129,317.715,125.655,384.12,152.428,483.596z M213.5,273.553
	c0,7.785-7.831,13.605-15.274,11.182c-16.402-5.342-31.148-15.058-42.016-28.508c-3.095-3.83-3.381-9.74-0.487-13.915
	c5.6-8.077,16.83-22.4,33.776-35.618c3.759,13.312,12.188,24.835,24.001,32.526C213.5,239.221,213.5,273.507,213.5,273.553z
	 M223.215,227.582c-12.057-7.18-20.08-20.404-20.842-34.418c-0.042-0.775-0.067-59.317-0.066-59.4
	c0.052-9.531,8.273-18.382,17.99-18.209c9.54,0.181,17.301,8.095,17.301,17.643v23.574c0,4.142,3.358,7.5,7.5,7.5
	c0,0,31.217,0,31.232,0c10.459,0,19.418,8.967,19.418,19.417v49.925h-50.65C237.446,233.615,229.791,231.498,223.215,227.582z
	 M303.246,248.615c4.142,0,7.5-3.358,7.5-7.5V208.23c14.625,11.823,25.02,24.616,31.585,34.085
	c2.886,4.163,2.684,9.965-0.489,13.913c-10.808,13.447-25.665,23.182-42.016,28.508c-7.381,2.404-15.274-3.455-15.274-11.182
	v-24.938L303.246,248.615L303.246,248.615z"/>
<g>
</g>
<g>
</g>
<g>
</g>
<g>
</g>
<g>
</g>
<g>
</g>
<g>
</g>
<g>
</g>
<g>
</g>
<g>
</g>
<g>
</g>
<g>
</g>
<g>
</g>
<g>
</g>
<g>
</g>
</svg>
