<?xml version="1.0" encoding="iso-8859-1"?>
<!-- Generator: Adobe Illustrator 19.0.0, SVG Export Plug-In . SVG Version: 6.00 Build 0)  -->
<svg version="1.1" id="Capa_1" xmlns="http://www.w3.org/2000/svg" xmlns:xlink="http://www.w3.org/1999/xlink" x="0px" y="0px"
	 viewBox="0 0 512 512" style="enable-background:new 0 0 512 512;" xml:space="preserve">
<path style="fill:#999999;" d="M179.039,239.571c3.926-9.349,9.269-16.671,16.644-18.479c8.106-1.987,14.983-7.315,18.213-15.011
	L321.791,7.455l0,0c0,0,58.506,54.75-55.645,227.984c-2.287,5.449-8.569,8.17-14.009,5.86c-13.671-5.804-19.419,4.775-25.143,18.406
	l-12.774,30.425l-33.643,7.066l-14.313-27.2L179.039,239.571z"/>
<path style="fill:#B3B3B3;" d="M332.958,239.571c-3.926-9.349-9.269-16.671-16.644-18.479c-8.107-1.987-14.983-7.315-18.213-15.011
	L190.207,7.455l0,0c0,0-58.506,54.75,55.645,227.984c2.287,5.449,8.569,8.17,14.009,5.86c13.671-5.804,19.419,4.775,25.143,18.406
	l12.774,30.425l33.643,7.066l14.313-27.2L332.958,239.571z"/>
<g>
	<path style="fill:#FF5E6B;" d="M308.188,314.926l75.215,179.144c3.653,8.701,13.668,12.792,22.368,9.14l16.448-6.905
		c8.701-3.653,12.792-13.668,9.14-22.368l-75.215-179.144L308.188,314.926z"/>
	<path style="fill:#FF5E6B;" d="M203.81,314.926L128.595,494.07c-3.653,8.701-13.668,12.792-22.368,9.14l-16.448-6.905
		c-8.701-3.653-12.792-13.668-9.14-22.368l75.215-179.144L203.81,314.926z"/>
</g>
<rect x="317.192" y="302.651" transform="matrix(0.922 -0.3871 0.3871 0.922 -101.4146 158.671)" style="fill:#E63E4C;" width="52.008" height="56.896"/>
<path style="fill:#D9D9D9;" d="M345.733,269.995l-47.956,20.135c-5.656,2.374-8.316,8.885-5.941,14.541l12.222,29.11
	c2.374,5.656,8.885,8.316,14.541,5.941l47.956-20.135c5.656-2.374,8.316-8.885,5.941-14.541l-12.222-29.11
	C357.899,270.281,351.389,267.621,345.733,269.995z"/>
<polygon style="fill:#E63E4C;" points="155.855,294.792 133.828,347.254 133.828,347.254 181.782,367.387 181.784,367.388 
	203.81,314.926 "/>
<path style="fill:#D9D9D9;" d="M166.266,269.995l47.956,20.135c5.656,2.374,8.316,8.885,5.941,14.541l-12.222,29.11
	c-2.374,5.656-8.885,8.316-14.541,5.941l-47.956-20.135c-5.656-2.374-8.316-8.885-5.941-14.541l12.222-29.11
	C154.099,270.281,160.61,267.621,166.266,269.995z"/>
<circle cx="256.006" cy="194.006" r="11.162"/>
<path d="M284.922,307.581l12.222,29.11c2.867,6.826,9.45,11.264,16.831,11.395c0,0,62.488,148.833,62.513,148.893
	c5.171,12.315,19.875,18.323,32.189,13.152c0,0,16.437-6.901,16.448-6.906c12.342-5.182,18.338-19.836,13.151-32.188
	l-62.515-148.899c4.904-5.195,6.592-12.99,3.654-19.989l-12.222-29.11c-2.867-6.827-9.45-11.265-16.831-11.396l-10.484-24.971
	c-5.442-12.961-12.767-20.653-21.774-22.861c-6.107-1.497-10.876-5.371-13.083-10.629c-0.097-0.231-4.924-9.143-4.924-9.143
	c20.327-36.667,33.824-70.273,40.093-99.923c2.001-9.465-12.675-12.574-14.679-3.104c-5.484,25.939-16.887,55.266-33.943,87.327
	l-27.03-49.761l57.878-106.549c0.31,0.658,0.62,1.354,0.929,2.089c3.049,7.249,6.538,19.815,5.844,38.502
	c-0.358,9.656,14.633,10.246,14.992,0.557c1.598-43.028-16.489-60.47-17.262-61.194c-3.53-3.304-9.417-2.34-11.718,1.895
	l-59.2,108.983c0,0-59.143-108.877-59.2-108.983c-2.307-4.248-8.188-5.201-11.717-1.896c-2.341,2.191-51.413,50.841,26.821,192.057
	l-4.598,8.464c-0.12,0.22-0.228,0.446-0.325,0.677c-2.207,5.258-6.976,9.132-13.083,10.629c-9.006,2.208-16.332,9.9-21.774,22.861
	l-10.484,24.971c-7.381,0.13-13.965,4.568-16.83,11.396l-12.222,29.11c-2.939,6.999-1.25,14.794,3.654,19.989
	c0,0-62.483,148.822-62.516,148.9c-5.195,12.374,0.808,27.005,13.151,32.188l16.448,6.906c12.346,5.183,27.007-0.812,32.189-13.152
	l10.341-24.631c1.604-3.82-0.193-8.217-4.013-9.82c-3.82-1.605-8.217,0.192-9.821,4.013l-10.341,24.631
	c-2.045,4.873-7.675,7.172-12.547,5.127c0,0-16.408-6.889-16.448-6.906c-4.826-2.026-7.153-7.721-5.127-12.547l61.899-147.431
	l34.122,14.327l-39.995,95.259c-1.604,3.82,0.193,8.216,4.013,9.82c3.82,1.604,8.216-0.193,9.821-4.013l40.609-96.722
	c7.381-0.13,13.965-4.568,16.831-11.395l12.222-29.11c2.939-6.999,1.249-14.794-3.654-19.989l10.487-24.977
	c3.999-9.523,7.261-15.425,11.168-15.425c0.687,0,1.48,0.136,2.356,0.393c2.539,1.316,5.395,2.048,8.378,2.048
	c2.407,0,4.755-0.478,6.978-1.421c1.608-0.683,2.998-1.029,4.128-1.029c3.903,0,7.166,5.906,11.167,15.435l10.484,24.97
	c-1.563,1.651-2.834,3.586-3.72,5.753C282.973,297.94,282.997,302.998,284.922,307.581z M424.479,484.182
	c-0.968,2.37-2.802,4.221-5.162,5.212c0,0-16.444,6.904-16.447,6.905c-4.825,2.025-10.524-0.305-12.548-5.127l-61.899-147.431
	l34.123-14.327l61.899,147.431C425.434,479.207,425.447,481.811,424.479,484.182z M365.581,307.958
	c0.769,1.832-0.095,3.948-1.926,4.719l-0.003,0.001l-47.955,20.134c-0.449,0.188-0.917,0.284-1.39,0.284
	c-1.458,0-2.766-0.868-3.33-2.212l-12.222-29.11c-0.503-1.198-0.224-2.243-0.013-2.76c0.211-0.516,0.744-1.458,1.941-1.96
	l47.956-20.134c0.449-0.188,0.917-0.284,1.391-0.284c1.458,0,2.766,0.869,3.33,2.212L365.581,307.958z M213.247,301.773
	l-12.222,29.11c-0.564,1.344-1.871,2.212-3.329,2.212c-0.474,0-0.942-0.095-1.391-0.284l-47.956-20.135h-0.001
	c-1.832-0.771-2.698-2.887-1.927-4.72l12.222-29.11c0.564-1.344,1.871-2.212,3.329-2.212c0.474,0,0.942,0.096,1.391,0.284
	l47.956,20.135C213.152,297.822,214.017,299.94,213.247,301.773z M220.081,256.808l-9.87,23.508l-34.122-14.327l9.87-23.508
	c2.407-5.734,6.359-12.834,11.513-14.099c10.633-2.605,19.062-9.529,23.195-19.039c4.882,8.243,15.378,24.8,15.499,24.986
	C227.646,238.787,223.242,249.276,220.081,256.808z M266.922,232.178c-3.157,0-6.517,0.748-9.99,2.222
	c-1.595,0.677-3.516-0.316-4.161-1.858c-0.179-0.427-6.42-10.114-6.768-10.659c-29.994-47.045-62.915-110.573-63.28-163.2
	c-0.121-17.509,3.492-29.371,6.881-36.62l59.805,110.095l41.936,77.2c4.126,9.496,12.554,16.418,23.186,19.024
	c5.154,1.264,9.106,8.365,11.514,14.099l9.87,23.508l-34.123,14.327l-9.87-23.508C287.804,246.999,281.581,232.178,266.922,232.178z
	"/>
<g>
</g>
<g>
</g>
<g>
</g>
<g>
</g>
<g>
</g>
<g>
</g>
<g>
</g>
<g>
</g>
<g>
</g>
<g>
</g>
<g>
</g>
<g>
</g>
<g>
</g>
<g>
</g>
<g>
</g>
</svg>
