<?xml version="1.0" encoding="iso-8859-1"?>
<!-- Generator: Adobe Illustrator 19.0.0, SVG Export Plug-In . SVG Version: 6.00 Build 0)  -->
<svg version="1.1" id="Capa_1" xmlns="http://www.w3.org/2000/svg" xmlns:xlink="http://www.w3.org/1999/xlink" x="0px" y="0px"
	 viewBox="0 0 511.999 511.999" style="enable-background:new 0 0 511.999 511.999;" xml:space="preserve">
<path style="fill:#B3B3B3;" d="M485.247,26.753C421.45-37.044,263.318,69.935,164.521,168.902
	c-19.707,19.741-20.023,51.432-2.312,72.982c20.193,24.57,21.418,48.936,21.418,48.936l37.551,37.551
	c0,0,24.366,1.225,48.936,21.418c21.55,17.711,53.241,17.395,72.982-2.312C442.065,248.683,549.044,90.55,485.247,26.753z"/>
<path style="fill:#999999;" d="M485.246,26.753c-2.339-2.339-4.808-4.442-7.394-6.331C506.64,101.099,402.5,250.06,305.374,347.018
	c-5.455,5.446-11.741,9.541-18.471,12.315c19.152,6.911,41.143,3.17,56.193-11.854C442.065,248.683,549.044,90.55,485.246,26.753z"
	/>
<path style="fill:#D9D9D9;" d="M242.474,302.561c2.75-3.216,4.577-7.116,5.289-11.287l0,0c2.717-15.923-11.115-29.754-27.038-27.038
	l0,0c-4.171,0.712-8.071,2.539-11.287,5.289l-68.366,56.405l11.816,33.181l33.181,11.815L242.474,302.561z"/>
<path style="fill:#C86D5C;" d="M163.097,366.334l-43.389-19.038c0,0-38.96,23.801-97.283,77.343
	c-19.288,17.708-19.991,47.896-1.476,66.411l0,0c18.515,18.515,48.704,17.813,66.411-1.476
	c53.542-58.322,77.343-97.284,77.343-97.284L163.097,366.334z M75.991,461.032c-6.91,6.91-18.113,6.91-25.023,0
	s-6.91-18.113,0-25.023c6.91-6.91,18.113-6.91,25.023,0C82.901,442.919,82.901,454.122,75.991,461.032z"/>
<path style="fill:#B24D40;" d="M87.36,489.576c53.542-58.322,77.343-97.284,77.343-97.284l-1.607-25.959l-13.637-5.983l1.102,17.8
	c0,0-23.801,38.961-77.343,97.284c-15.382,16.755-40.177,19.476-58.562,7.769c1.77,2.78,3.862,5.417,6.293,7.849l0,0
	C39.464,509.566,69.652,508.864,87.36,489.576z"/>
<path style="fill:#B3B3B3;" d="M186.069,370.927l-44.996-44.996c-5.9-5.9-15.465-5.9-21.365,0s-5.9,15.465,0,21.365l44.996,44.996
	c5.9,5.9,15.465,5.9,21.365,0C191.969,386.393,191.969,376.828,186.069,370.927z"/>
<path style="fill:#999999;" d="M186.069,370.927l-14.142-14.142c5.9,5.9,5.9,15.465,0,21.365s-15.465,5.9-21.365,0l14.142,14.142
	c5.9,5.9,15.465,5.9,21.365,0C191.969,386.393,191.969,376.828,186.069,370.927z"/>
<path d="M45.708,430.704c-4.759,4.759-7.379,11.085-7.379,17.815c0,6.73,2.621,13.057,7.379,17.815
	c4.759,4.759,11.085,7.379,17.815,7.379s13.056-2.621,17.815-7.379l0,0c9.823-9.823,9.823-25.806,0-35.63
	C71.513,420.881,55.53,420.881,45.708,430.704z M70.73,441.311c3.975,3.975,3.975,10.442,0,14.416
	c-1.926,1.926-4.486,2.986-7.208,2.986c-2.723,0-5.283-1.06-7.208-2.986c-1.925-1.925-2.986-4.485-2.986-7.208
	c0-2.723,1.06-5.283,2.986-7.208c1.988-1.987,4.597-2.981,7.208-2.981S68.743,439.324,70.73,441.311z"/>
<path d="M289.781,110.696l-9.136,9.136c-2.929,2.929-2.929,7.677,0,10.606c1.464,1.464,3.384,2.196,5.303,2.196
	c1.919,0,3.839-0.732,5.303-2.196l9.136-9.136c2.929-2.929,2.929-7.678,0-10.606C297.459,107.767,292.71,107.767,289.781,110.696z"
	/>
<path d="M392.21,231.396l9.136-9.136c2.929-2.929,2.929-7.677,0-10.606c-2.929-2.929-7.678-2.929-10.606,0l-9.136,9.136
	c-2.929,2.929-2.929,7.677,0,10.606c1.464,1.464,3.384,2.197,5.303,2.197C388.826,233.593,390.745,232.86,392.21,231.396z"/>
<path d="M325.107,155.036c-4.129-0.277-7.708,2.848-7.985,6.98c-0.586,8.725,2.74,17.391,9.126,23.777
	c5.904,5.904,13.756,9.193,21.802,9.193c0.657,0,1.315-0.022,1.974-0.066c4.133-0.278,7.258-3.854,6.98-7.986
	c-0.277-4.132-3.854-7.257-7.985-6.98c-4.403,0.298-8.839-1.441-12.165-4.767c-3.325-3.325-5.063-7.759-4.767-12.165
	C332.365,158.889,329.24,155.313,325.107,155.036z"/>
<path d="M490.594,21.448C477.144,7.999,459.399,0.804,437.85,0.063c-18.957-0.652-41.026,3.733-65.602,13.034
	c-3.874,1.466-5.826,5.795-4.36,9.669c1.466,3.874,5.794,5.827,9.669,4.359c46.934-17.762,81.396-16.104,102.43,4.928
	c32.975,32.975,12.007,93.503-11.388,138.474c-28.279,54.357-75.938,116.918-130.757,171.642
	c-16.768,16.74-43.818,17.525-62.921,1.825c-14.828-12.186-29.53-17.963-39.792-20.694l3.823-4.633l9.313-11.288
	c3.604-4.233,6.001-9.365,6.936-14.846c0.102-0.596,0.183-1.193,0.25-1.79c0.016-0.142,0.023-0.283,0.037-0.425
	c0.045-0.466,0.085-0.931,0.109-1.396c0.007-0.131,0.008-0.262,0.013-0.393c0.019-0.486,0.03-0.971,0.026-1.456
	c-0.001-0.096-0.005-0.192-0.006-0.289c-0.009-0.53-0.031-1.058-0.066-1.585c-0.004-0.051-0.008-0.101-0.012-0.152
	c-0.398-5.447-2.231-10.707-5.362-15.246c-0.052-0.075-0.106-0.148-0.158-0.222c-0.277-0.395-0.562-0.785-0.859-1.167
	c-0.116-0.15-0.237-0.297-0.356-0.446c-0.15-0.187-0.293-0.378-0.449-0.563c-0.097-0.115-0.202-0.223-0.301-0.337
	c-0.155-0.179-0.314-0.356-0.474-0.532c-0.244-0.269-0.493-0.533-0.745-0.792c-0.091-0.093-0.175-0.191-0.267-0.283
	c-0.078-0.078-0.16-0.148-0.238-0.225c-0.263-0.257-0.53-0.508-0.801-0.755c-0.182-0.167-0.364-0.333-0.549-0.495
	c-0.235-0.205-0.475-0.402-0.715-0.599c-0.241-0.199-0.482-0.398-0.729-0.589c-0.126-0.097-0.256-0.189-0.383-0.284
	c-4.883-3.664-10.633-5.751-16.669-6.072c-0.023-0.001-0.047-0.001-0.07-0.003c-0.531-0.027-1.063-0.044-1.598-0.044
	c-0.014,0-0.028-0.001-0.042-0.001c-0.032,0-0.065,0.004-0.097,0.004c-0.743,0.004-1.49,0.039-2.239,0.096
	c-0.185,0.014-0.369,0.027-0.554,0.045c-0.795,0.075-1.592,0.169-2.39,0.305c-4.111,0.702-8.025,2.226-11.511,4.464
	c-0.127,0.082-0.247,0.174-0.373,0.257c-0.45,0.298-0.899,0.599-1.333,0.921c-0.185,0.137-0.36,0.289-0.543,0.431
	c-0.364,0.283-0.731,0.561-1.083,0.861l-3.514,2.899l-12.409,10.238c-2.732-10.262-8.508-24.964-20.694-39.792
	c-15.699-19.102-14.915-46.152,1.826-62.921c56.672-56.77,123.506-107.005,178.779-134.378c3.711-1.838,5.23-6.337,3.393-10.049
	c-1.837-3.712-6.336-5.232-10.05-3.393c-56.659,28.059-124.973,79.356-182.738,137.223c-22.215,22.253-23.418,57.954-2.798,83.042
	c12.656,15.4,17.863,31.879,19.309,40.972l-35.01,28.885c-3.156-1.625-6.671-2.499-10.323-2.499c-6.039,0-11.716,2.352-15.986,6.622
	c-4.27,4.27-6.622,9.947-6.622,15.986c0,2.93,0.564,5.771,1.622,8.412c-13.392,8.924-46.806,32.551-92.053,74.089
	c-10.868,9.978-17.027,23.588-17.342,38.323c-0.314,14.7,5.239,28.52,15.635,38.916c10.117,10.117,23.478,15.647,37.736,15.647
	c0.393,0,0.787-0.004,1.181-0.012c14.735-0.315,28.345-6.473,38.323-17.342c15.538-16.925,30.097-33.88,43.274-50.393
	c2.583-3.238,2.053-7.957-1.184-10.54c-3.238-2.584-7.957-2.053-10.54,1.184c-12.962,16.244-27.294,32.933-42.599,49.604
	c-7.186,7.827-16.985,12.262-27.593,12.489c-10.577,0.224-20.513-3.768-27.99-11.245c-7.477-7.477-11.47-17.417-11.245-27.99
	c0.227-10.608,4.662-20.408,12.489-27.594c45.273-41.562,79.032-65.199,91.194-73.279l18.213,18.213l18.215,18.215
	c-2.62,3.951-6.871,10.169-12.818,18.279c-2.449,3.34-1.727,8.034,1.613,10.483c3.341,2.45,8.034,1.727,10.483-1.613
	c5.663-7.722,9.815-13.75,12.568-17.872c2.643,1.061,5.487,1.625,8.42,1.625c6.039,0,11.716-2.352,15.986-6.622
	c4.27-4.27,6.622-9.947,6.622-15.986c0-3.652-0.874-7.167-2.499-10.323l28.885-35.011c9.094,1.447,25.573,6.654,40.972,19.31
	c11.959,9.829,26.328,14.699,40.504,14.699c15.563,0,30.893-5.872,42.539-17.498c55.86-55.764,104.507-119.671,133.466-175.334
	C518.776,106.58,521.781,52.636,490.594,21.448z M188.44,296.607l0.002-0.002l25.811-21.296c0.034-0.028,0.068-0.056,0.101-0.085
	c1.913-1.635,4.184-2.792,6.621-3.379c0.348-0.084,0.7-0.156,1.054-0.217c0.344-0.059,0.688-0.105,1.031-0.141
	c0.042-0.004,0.085-0.006,0.127-0.01c0.313-0.03,0.626-0.054,0.938-0.066h0.015c3.831-0.141,7.548,1.104,10.511,3.474
	c0.01,0.008,0.019,0.016,0.028,0.024c0.238,0.191,0.471,0.392,0.699,0.598c0.087,0.079,0.172,0.162,0.258,0.243
	c0.155,0.146,0.308,0.293,0.458,0.445c0.095,0.098,0.187,0.197,0.279,0.296c0.145,0.155,0.288,0.312,0.427,0.474
	c0.057,0.066,0.112,0.134,0.168,0.201c0.345,0.415,0.669,0.839,0.967,1.277c0.027,0.04,0.052,0.081,0.079,0.121
	c0.299,0.448,0.576,0.907,0.825,1.376c0.021,0.04,0.039,0.082,0.06,0.122c0.22,0.424,0.416,0.857,0.595,1.296
	c0.033,0.081,0.07,0.16,0.102,0.241c0.165,0.425,0.303,0.859,0.43,1.296c0.039,0.135,0.08,0.269,0.115,0.405
	c0.11,0.42,0.198,0.847,0.272,1.276c0.025,0.147,0.05,0.295,0.071,0.444c0.063,0.44,0.108,0.884,0.133,1.332
	c0.007,0.125,0.01,0.251,0.014,0.377c0.015,0.48,0.015,0.962-0.013,1.447c-0.004,0.076-0.013,0.151-0.018,0.227
	c-0.039,0.534-0.096,1.069-0.188,1.606c-0.483,2.834-1.727,5.488-3.596,7.674c-0.028,0.033-0.057,0.067-0.085,0.101l-51.152,62
	l-33.324-33.324L188.44,296.607z M180.808,386.988c-1.437,1.437-3.347,2.228-5.379,2.228c-2.032,0-3.942-0.792-5.379-2.228
	l-44.996-44.996c-1.437-1.437-2.228-3.348-2.228-5.379c0-2.031,0.791-3.942,2.228-5.379s3.347-2.228,5.379-2.228
	s3.942,0.792,5.379,2.228l44.996,44.997c1.437,1.437,2.228,3.347,2.228,5.379C183.037,383.641,182.245,385.551,180.808,386.988z"/>
<g>
</g>
<g>
</g>
<g>
</g>
<g>
</g>
<g>
</g>
<g>
</g>
<g>
</g>
<g>
</g>
<g>
</g>
<g>
</g>
<g>
</g>
<g>
</g>
<g>
</g>
<g>
</g>
<g>
</g>
</svg>
