<?xml version="1.0" encoding="iso-8859-1"?>
<!-- Generator: Adobe Illustrator 19.0.0, SVG Export Plug-In . SVG Version: 6.00 Build 0)  -->
<svg version="1.1" id="Capa_1" xmlns="http://www.w3.org/2000/svg" xmlns:xlink="http://www.w3.org/1999/xlink" x="0px" y="0px"
	 viewBox="0 0 512.003 512.003" style="enable-background:new 0 0 512.003 512.003;" xml:space="preserve">
<polygon style="fill:#C86D5C;" points="297.331,214.67 264.456,209.221 128.703,344.974 135.349,376.653 167.028,383.298 
	302.78,247.545 "/>
<polygon style="fill:#B24D40;" points="297.331,214.67 283.987,212.458 287.224,231.989 151.471,367.742 132.65,363.793 
	135.349,376.653 167.028,383.298 302.78,247.545 "/>
<path style="fill:#B3B3B3;" d="M314.786,197.216c-80.329-80.329-94.82-43.568-8.936-129.452S499.021,12.98,499.021,12.98
	s31.1,107.288-54.784,193.172S395.115,277.544,314.786,197.216z"/>
<path style="fill:#999999;" d="M444.237,206.152c85.884-85.884,54.784-193.172,54.784-193.172s-0.384-0.11-1.098-0.295
	c1.619,38.632-5.583,117.079-76.874,188.37c-26.33,26.33-42.818,44.381-54.326,55.199
	C384.457,275.215,388.771,261.618,444.237,206.152z"/>
<path style="fill:#D9D9D9;" d="M394.141,123.691c0.952-3.541-2.29-6.782-5.831-5.831c-29.111,7.822-55.654,23.16-76.969,44.475
	l-46.886,46.886l38.324,38.324l46.886-46.886C370.981,179.346,386.318,152.802,394.141,123.691z"/>
<path style="fill:#B3B3B3;" d="M138.909,411.417L138.909,411.417l28.119-28.119l-38.324-38.324l-28.119,28.119l0,0
	c-14.692-14.692-38.511-14.692-53.203,0L12.834,407.64c-7.124,7.124-7.124,18.676,0,25.8l65.728,65.728
	c7.124,7.124,18.676,7.124,25.8,0l34.547-34.547C153.601,449.929,153.601,426.109,138.909,411.417z M92.103,466.208l-46.31-46.31
	l5.779-5.779c12.788-12.788,33.521-12.788,46.31,0c12.788,12.788,12.788,33.521,0,46.31L92.103,466.208z"/>
<path style="fill:#999999;" d="M138.909,411.417L138.909,411.417l28.119-28.119l-15.557-15.557l-28.119,28.119l0,0
	c14.692,14.692,14.692,38.511,0,53.203l-34.547,34.547c-7.124,7.124-18.676,7.124-25.8,0l15.557,15.557
	c7.124,7.124,18.676,7.124,25.8,0l34.547-34.547C153.601,449.929,153.601,426.109,138.909,411.417z"/>
<path d="M390.116,45.99l-5.913,5.913c-2.929,2.929-2.929,7.678,0,10.606c2.871,2.871,7.707,2.899,10.606,0l5.913-5.913
	c2.929-2.929,2.929-7.678,0-10.606C397.795,43.061,393.046,43.061,390.116,45.99z"/>
<path d="M454.845,130.015c1.929,0,3.858-0.723,5.303-2.167l5.913-5.913c2.929-2.929,2.929-7.678,0-10.606
	c-2.929-2.929-7.678-2.929-10.606,0l-5.913,5.913c-2.929,2.929-2.929,7.678,0,10.606
	C450.987,129.292,452.916,130.015,454.845,130.015z"/>
<path d="M415.028,73.917c-4.126-0.284-7.708,2.847-7.986,6.979c-0.431,6.407,2.001,12.763,6.675,17.438
	c4.55,4.55,10.993,7.11,17.437,6.675c4.133-0.277,7.258-3.853,6.98-7.985c-0.277-4.133-3.858-7.269-7.985-6.98
	c-2.094,0.135-4.213-0.704-5.824-2.315c-1.612-1.613-2.456-3.735-2.316-5.824C422.286,77.771,419.16,74.195,415.028,73.917z"/>
<path d="M501.106,5.829c-1.148-0.333-28.58-8.121-67.057-5.087c-35.525,2.8-87.524,15.791-133.507,61.772
	c-10.801,10.801-20.18,19.82-27.716,27.066c-23.419,22.52-33.112,31.841-32.629,43.331c0.431,10.24,8.877,17.097,24.211,29.542
	c5.542,4.498,12.182,9.896,19.762,16.497l-112.14,112.14c-2.929,2.929-2.929,7.678,0,10.606c2.929,2.929,7.677,2.929,10.606,0
	l81.816-81.815l27.718,27.718L167.025,372.744l-27.718-27.718l22.33-22.33c2.929-2.929,2.929-7.678,0-10.606
	c-2.929-2.929-7.678-2.929-10.606,0l-50.885,50.885c-7.588-5.423-16.652-8.348-26.166-8.348c-12.052,0-23.383,4.693-31.905,13.215
	L7.528,402.388c-10.037,10.037-10.037,26.37,0,36.406c0,0,65.652,65.652,65.728,65.728c9.924,9.924,26.495,9.912,36.406,0
	l34.547-34.546c15.787-15.787,17.408-40.455,4.862-58.066l184.029-184.03c6.595,7.573,11.99,14.21,16.487,19.748
	c12.452,15.34,19.313,23.79,29.556,24.22c0.271,0.012,0.542,0.017,0.811,0.017c11.129,0,20.537-9.783,42.529-32.653
	c4.712-4.9,10.053-10.454,16.096-16.626c2.898-2.959,2.848-7.708-0.112-10.606c-2.96-2.898-7.708-2.847-10.606,0.112
	c-6.089,6.219-11.455,11.799-16.19,16.723c-15.769,16.398-27.151,28.264-31.898,28.046c-3.488-0.146-10.13-8.328-18.539-18.687
	c-4.734-5.831-10.421-12.837-17.498-20.929l11.229-11.229c22.213-22.213,38.262-49.989,46.421-80.354
	c0.965-3.623,0.172-7.628-2.108-10.604c-2.979-3.886-8.193-5.657-12.917-4.389c-30.337,8.152-58.113,24.203-80.326,46.416
	l-11.229,11.229c-8.097-7.081-15.109-12.771-20.944-17.508c-10.353-8.403-18.531-15.041-18.677-18.525
	c-0.199-4.733,11.646-16.124,28.04-31.888c7.583-7.292,17.02-16.367,27.925-27.272c34.171-34.171,75.72-53.477,123.491-57.378
	c27.599-2.253,49.438,1.573,58.169,3.495c4.187,19.133,17.382,101.275-44.558,171.705c-2.735,3.111-2.432,7.85,0.679,10.585
	c3.11,2.735,7.849,2.431,10.585-0.679c39.53-44.951,50.15-94.1,52.097-127.415c2.11-36.098-5.083-61.427-5.39-62.488
	C505.508,8.476,503.576,6.545,501.106,5.829z M133.602,406.167c-2.929,2.929-2.929,7.678,0,10.606
	c5.689,5.689,8.822,13.252,8.822,21.298c0,8.045-3.133,15.609-8.822,21.298c0,0-34.504,34.504-34.547,34.546
	c-4.157,4.157-11.037,4.155-15.193,0l-65.728-65.728c-4.188-4.188-4.188-11.004,0-15.193l34.547-34.546
	c5.689-5.688,13.252-8.821,21.298-8.821s15.61,3.133,21.298,8.821c2.929,2.929,7.678,2.929,10.606,0l22.815-22.815l27.718,27.718
	L133.602,406.167z M316.642,167.692c9.602-9.602,20.339-17.948,31.921-24.87c11.582-6.922,24.01-12.42,36.994-16.329
	c-6.339,21.063-16.865,40.659-30.861,57.559c-3.26,3.937-6.708,7.728-10.336,11.356l-41.582,41.582l-27.718-27.718L316.642,167.692z
	"/>
<path d="M74.724,397.259c-14.512,0.001-24.499,7.651-34.237,17.389c-2.764,2.764-2.994,7.614,0,10.606l46.311,46.311
	c2.908,2.908,7.692,2.912,10.606-0.001c17.401-17.399,25.572-42.901,5.779-62.695C95.439,401.124,85.081,397.258,74.724,397.259z
	 M92.576,455.179l-0.476,0.476l-35.702-35.703l0.476-0.476c4.768-4.768,11.108-7.394,17.852-7.394
	c6.743,0,13.083,2.626,17.852,7.394C102.419,429.319,102.419,445.335,92.576,455.179z"/>
<g>
</g>
<g>
</g>
<g>
</g>
<g>
</g>
<g>
</g>
<g>
</g>
<g>
</g>
<g>
</g>
<g>
</g>
<g>
</g>
<g>
</g>
<g>
</g>
<g>
</g>
<g>
</g>
<g>
</g>
</svg>
