<?xml version="1.0" encoding="iso-8859-1"?>
<!-- Generator: Adobe Illustrator 19.0.0, SVG Export Plug-In . SVG Version: 6.00 Build 0)  -->
<svg version="1.1" id="Capa_1" xmlns="http://www.w3.org/2000/svg" xmlns:xlink="http://www.w3.org/1999/xlink" x="0px" y="0px"
	 viewBox="0 0 511.999 511.999" style="enable-background:new 0 0 511.999 511.999;" xml:space="preserve">
<g>
	<path style="fill:#42C3E2;" d="M160.788,18.317h-26.856c-6.298,0-11.404,5.106-11.404,11.404v14.872
		c0,6.298,5.106,11.404,11.404,11.404h26.856l17.408-18.84L160.788,18.317z"/>
	<path style="fill:#42C3E2;" d="M200.57,60.993l-25.089,7.151c0,0-7.426,38.656-35.536,55.991
		c-4.702,2.899-6.006,9.162-2.996,13.794l3.018,4.643c2.598,3.996,7.672,5.594,12.084,3.792
		c33.528-13.699,51.299-55.738,51.299-55.738L200.57,60.993z"/>
</g>
<g>
	<path style="fill:#00A6C8;" d="M200.57,60.993l-25.089,7.151c0,0-2.083,10.833-8.212,23.601c3.053,0.964,8.031,3.56,12.797,11.542
		c3.948,6.611,5.553,13.231,5.76,14.135l0.27,1.532c11.374-14.422,17.254-28.329,17.254-28.329L200.57,60.993z"/>
	<polygon style="fill:#00A6C8;" points="160.788,55.997 178.197,37.157 160.788,18.317 140.788,18.317 140.788,55.997 	"/>
</g>
<path style="fill:#D9D9D9;" d="M387.052,101.988L342.25,39.772C327.659,19.509,314.383,7.5,289.412,7.5H171.605
	c-5.974,0-10.817,4.843-10.817,10.817v37.68c0,5.219,3.733,9.673,8.864,10.633c32.966,6.167,40.698,45.915,40.698,45.915
	l45.649,31.257l45.65-31.257h18.206l46.616,15.625c7.17,2.911,15.401,0.716,20.169-5.379l0,0
	C391.388,116.721,391.557,108.243,387.052,101.988z"/>
<polygon style="fill:#00A6C8;" points="210.35,112.545 210.35,175.06 255.999,196.46 301.649,175.06 301.649,112.545 "/>
<polygon style="fill:#0095B3;" points="250.35,175.06 250.35,112.545 210.35,112.545 210.35,175.06 255.999,196.46 276,187.084 "/>
<path style="fill:#42C3E2;" d="M347.086,504.5L347.086,504.5c25.094,0,45.436-20.342,45.436-45.436V292.458
	c0-65.596-90.872-117.399-90.872-117.399h-91.3c0,0-90.872,51.803-90.872,117.399v166.605c0,25.094,20.342,45.436,45.436,45.436l0,0
	h182.172V504.5z"/>
<path style="fill:#00A6C8;" d="M159.477,459.064V292.458c0-65.595,90.872-117.399,90.872-117.399h-40
	c0,0-90.872,51.803-90.872,117.399v166.605c0,25.094,20.342,45.436,45.436,45.436l0,0h40
	C179.82,504.5,159.477,484.158,159.477,459.064z"/>
<path style="fill:#F0F0F0;" d="M339.388,295.214H172.61c-10.717,0-19.405,8.688-19.405,19.405v142.143
	c0,7.993,6.479,14.472,14.472,14.472H344.32c7.993,0,14.472-6.479,14.472-14.472V314.619
	C358.792,303.902,350.105,295.214,339.388,295.214z"/>
<path style="fill:#D9D9D9;" d="M159.477,459.064V300.363c-3.847,3.546-6.271,8.611-6.271,14.255v142.143
	c0,5.453,3.018,10.197,7.473,12.664C159.901,466.096,159.477,462.63,159.477,459.064z"/>
<path d="M400.021,292.458c0-62.026-73.022-110.688-90.873-121.656v-50.758h9.482c0,0,45.234,15.163,45.254,15.169
	c10.424,3.494,21.704,1.092,28.661-7.801c6.762-8.645,7.005-20.901,0.593-29.808l-44.803-62.216C332.604,13.541,317.258,0,289.412,0
	H171.605c-7.427,0-13.821,4.45-16.694,10.817h-20.979c-10.424,0-18.904,8.48-18.904,18.904v14.872
	c0,10.424,8.48,18.904,18.904,18.904h20.977c2.141,4.744,6.256,8.455,11.409,10.016c-3.394,11.099-12.104,33.01-30.31,44.237
	c-3.97,2.448-6.723,6.317-7.75,10.894c-1.026,4.57-0.15,9.443,2.403,13.371l3.018,4.643c3.231,4.972,8.701,7.941,14.63,7.941
	c2.265,0,4.478-0.435,6.579-1.293c13.777-5.629,26.58-16.036,38.052-30.93c3.46-4.492,6.406-8.901,8.839-12.871
	c0.559,1.793,0.898,3.134,1.07,3.861v57.437c-17.85,10.967-90.872,59.629-90.872,121.655v166.605
	c0,29.189,23.747,52.936,52.936,52.936h182.172c29.189,0,52.936-23.747,52.936-52.936V292.458z M294.148,167.56h-76.299v-47.514
	h76.299V167.56z M171.605,15h117.807c16.705,0,29.103,4.646,46.752,29.155l44.802,62.216c2.539,3.526,2.442,8.378-0.234,11.8
	c-2.672,3.416-7.423,4.682-11.441,3.051c-0.144-0.059-47.053-15.788-47.053-15.788c-0.769-0.257-1.573-0.389-2.384-0.389H216.113
	c-1.296-4.189-3.492-10.099-6.922-16.283c-3.574-6.444-8.093-12.422-13.611-17.328c-6.89-6.157-15.453-10.48-24.549-12.175
	c-1.59-0.297-2.743-1.669-2.743-3.261v-37.68C168.288,16.488,169.776,15,171.605,15z M130.029,44.593V29.721
	c0-2.153,1.751-3.904,3.904-3.904h19.356v22.68h-19.356C131.779,48.498,130.029,46.746,130.029,44.593z M149.215,139.419
	c-1.074,0.439-2.335,0.022-2.959-0.937l-3.018-4.644c-0.697-1.072-0.476-2.63,0.645-3.321c22.004-13.57,32.35-38.31,36.542-51.742
	c5.832,3.66,10.28,8.747,13.614,13.93C188.511,103.447,172.997,129.702,149.215,139.419z M385.021,459.064
	c0,20.918-17.018,37.936-37.936,37.936H164.913c-20.918,0-37.936-17.018-37.936-37.936V292.458c0-31.102,23.292-59.37,42.83-77.606
	c18.382-17.158,37.039-28.93,42.599-32.292h87.185c12.043,7.292,85.43,54.047,85.43,109.899V459.064L385.021,459.064z"/>
<path d="M228.283,287.714c-4.142,0-7.5,3.358-7.5,7.5s3.358,7.5,7.5,7.5h111.104c6.564,0,11.905,5.34,11.905,11.905v142.144
	c0,3.844-3.127,6.972-6.972,6.972H167.678c-3.845,0-6.972-3.128-6.972-6.973V314.619c0-6.564,5.34-11.905,11.905-11.905h25.673
	c4.142,0,7.5-3.358,7.5-7.5s-3.358-7.5-7.5-7.5h-25.673c-14.835,0-26.905,12.069-26.905,26.905v142.143
	c0,12.116,9.857,21.973,21.972,21.973h176.643c12.115,0,21.972-9.856,21.972-21.972V314.619c0-14.835-12.069-26.905-26.905-26.905
	H228.283z"/>
<path d="M191.477,366.769c-4.143,0-7.5,3.358-7.5,7.5v11.678c0,4.142,3.357,7.5,7.5,7.5c4.142,0,7.5-3.358,7.5-7.5v-11.678
	C198.977,370.126,195.618,366.769,191.477,366.769z"/>
<path d="M328.021,385.946v-11.678c0-4.142-3.357-7.5-7.5-7.5c-4.142,0-7.5,3.358-7.5,7.5v11.678c0,4.142,3.358,7.5,7.5,7.5
	C324.664,393.446,328.021,390.088,328.021,385.946z"/>
<path d="M255.999,399.679c8.371,0,16.233-3.502,21.572-9.609c2.726-3.119,2.408-7.856-0.71-10.583
	c-3.119-2.726-7.857-2.408-10.583,0.711c-2.489,2.848-6.236,4.481-10.278,4.481c-4.043,0-7.789-1.633-10.278-4.481
	c-2.726-3.119-7.464-3.438-10.583-0.711c-3.118,2.726-3.437,7.464-0.711,10.583C239.766,396.176,247.628,399.679,255.999,399.679z"
	/>
<g>
</g>
<g>
</g>
<g>
</g>
<g>
</g>
<g>
</g>
<g>
</g>
<g>
</g>
<g>
</g>
<g>
</g>
<g>
</g>
<g>
</g>
<g>
</g>
<g>
</g>
<g>
</g>
<g>
</g>
</svg>
