<?xml version="1.0" encoding="iso-8859-1"?>
<!-- Generator: Adobe Illustrator 19.0.0, SVG Export Plug-In . SVG Version: 6.00 Build 0)  -->
<svg version="1.1" id="Capa_1" xmlns="http://www.w3.org/2000/svg" xmlns:xlink="http://www.w3.org/1999/xlink" x="0px" y="0px"
	 viewBox="0 0 512 512" style="enable-background:new 0 0 512 512;" xml:space="preserve">
<path style="fill:#FFCE1C;" d="M279.556,202.134c3.166,3.947,6.623,7.823,10.373,11.574c16.684,16.684,35.796,27.703,53.066,31.956
	c8.074,1.989,15.392-5.329,13.403-13.403c-4.254-17.27-15.273-36.382-31.956-53.066c-3.751-3.751-7.626-7.208-11.574-10.373
	c5.03,0.553,10.215,0.849,15.519,0.849c23.587,0,44.887-5.72,60.107-14.919c7.129-4.309,7.129-14.663,0-18.972
	c-15.22-9.2-36.519-14.919-60.107-14.919c-5.305,0-10.489,0.296-15.519,0.849c3.948-3.166,7.823-6.623,11.574-10.373
	c16.684-16.684,27.703-35.796,31.956-53.066c1.989-8.075-5.329-15.392-13.403-13.403c-17.27,4.254-36.382,15.273-53.066,31.956
	c-3.751,3.751-7.208,7.626-10.373,11.574c0.553-5.03,0.849-10.215,0.849-15.519c0-23.587-5.72-44.887-14.919-60.107
	c-4.309-7.129-14.663-7.129-18.972,0c-9.2,15.22-14.919,36.519-14.919,60.107c0,5.305,0.296,10.489,0.849,15.519
	c-3.166-3.947-6.623-7.823-10.373-11.574c-16.684-16.684-35.796-27.703-53.066-31.956c-8.075-1.989-15.392,5.329-13.403,13.403
	c4.254,17.27,15.273,36.382,31.956,53.066c3.751,3.751,7.626,7.208,11.574,10.373c-5.03-0.553-10.215-0.849-15.519-0.849
	c-23.587,0-44.887,5.72-60.107,14.919c-7.129,4.309-7.129,14.663,0,18.972c15.22,9.2,36.519,14.919,60.107,14.919
	c5.305,0,10.489-0.296,15.519-0.849c-3.947,3.166-7.823,6.623-11.574,10.373c-16.684,16.684-27.703,35.796-31.956,53.066
	c-1.989,8.075,5.329,15.392,13.403,13.403c17.27-4.254,36.382-15.273,53.066-31.956c3.751-3.751,7.208-7.626,10.373-11.574
	L279.556,202.134L279.556,202.134z"/>
<path style="fill:#FF5E6B;" d="M254.625,391.246l-92.548,26.429l12.578,66.614c2.222,11.767,12.502,20.288,24.477,20.288h107.807
	c11.975,0,22.255-8.521,24.477-20.288l12.578-66.614L254.625,391.246z"/>
<path style="fill:#E63E4C;" d="M214.667,484.289l-12.577-66.615l72.191-20.615l-19.656-5.813l-92.548,26.429l12.577,66.615
	c2.222,11.767,12.502,20.287,24.477,20.287h40.012C227.168,504.577,216.888,496.056,214.667,484.289z"/>
<g>
	<path style="fill:#00AE95;" d="M179.828,303.171c0.275,16.675,9.504,32.657,25.387,40.783s34.244,6.259,47.928-3.274
		c-0.275-16.675-9.504-32.657-25.387-40.783C211.872,291.77,193.512,293.637,179.828,303.171z"/>
	<path style="fill:#00AE95;" d="M346.467,303.171c-0.275,16.675-9.504,32.657-25.387,40.783
		c-15.883,8.126-34.244,6.259-47.928-3.274c0.275-16.675,9.504-32.657,25.387-40.783
		C314.424,291.77,332.783,293.637,346.467,303.171z"/>
</g>
<path style="fill:#FAA330;" d="M374.256,84.763c-17.604-2.522-39.445,0.536-61.158,9.752c-4.883,2.073-9.54,4.37-13.953,6.845
	c2.397-4.456,4.613-9.153,6.601-14.071c8.839-21.877,11.514-43.775,8.681-61.334c-1.324-8.21-10.919-12.087-17.575-7.101
	c-14.235,10.664-27.523,28.274-36.361,50.151c-1.987,4.919-3.655,9.836-5.027,14.708c-1.456-4.847-3.21-9.734-5.283-14.618
	c-9.217-21.713-22.804-39.084-37.219-49.499c-6.753-4.879-16.282-0.834-17.463,7.413c-2.522,17.604,0.536,39.445,9.752,61.158
	c2.073,4.883,4.37,9.54,6.845,13.953c-4.456-2.397-9.153-4.613-14.071-6.601c-21.877-8.839-43.775-11.514-61.334-8.681
	c-8.21,1.324-12.087,10.919-7.101,17.575c10.664,14.235,28.274,27.523,50.151,36.361c4.919,1.987,9.836,3.655,14.708,5.027
	c-4.846,1.456-9.734,3.21-14.618,5.283c-21.713,9.217-39.084,22.804-49.499,37.219c-4.879,6.753-0.834,16.282,7.413,17.463
	c17.604,2.522,39.445-0.536,61.158-9.752c4.883-2.073,9.54-4.37,13.953-6.845c-2.397,4.456-4.613,9.153-6.601,14.071
	c-8.839,21.877-11.514,43.775-8.681,61.334c1.324,8.21,10.919,12.087,17.575,7.101c14.235-10.664,27.523-28.274,36.361-50.151
	c1.987-4.919,3.655-9.836,5.027-14.708c1.456,4.846,3.21,9.734,5.283,14.618c9.217,21.713,22.804,39.084,37.219,49.499
	c6.753,4.879,16.282,0.834,17.463-7.413c2.522-17.604-0.536-39.445-9.752-61.158c-2.073-4.883-4.37-9.54-6.845-13.953
	c4.456,2.397,9.153,4.613,14.071,6.601c21.877,8.839,43.775,11.514,61.334,8.681c8.21-1.324,12.087-10.919,7.101-17.575
	c-10.664-14.235-28.274-27.524-50.151-36.361c-4.919-1.987-9.836-3.655-14.708-5.027c4.846-1.456,9.734-3.21,14.618-5.283
	c21.713-9.217,39.084-22.804,49.499-37.219C386.548,95.474,382.503,85.944,374.256,84.763z"/>
<path style="fill:#2FC8B4;" d="M232.788,407.893c-3.92,0-7.832-1.546-10.747-4.61c-5.642-5.934-5.405-15.318,0.529-20.96
	c26.221-24.929,37.379-60.578,33.164-105.956c-3.293-35.456-15.172-63.635-15.292-63.916c-3.208-7.524,0.28-16.236,7.801-19.454
	c7.519-3.219,16.223,0.254,19.451,7.771c0.555,1.291,13.628,32.089,17.481,71.989c5.263,54.502-9.322,99.819-42.176,131.055
	C240.132,406.539,236.456,407.893,232.788,407.893z"/>
<path style="fill:#F0F0F0;" d="M343.993,371.204H162.077c-6.941,0-12.569,5.628-12.569,12.569v21.334
	c0,6.941,5.628,12.569,12.569,12.569h181.915c6.941,0,12.569-5.628,12.569-12.569v-21.334
	C356.562,376.832,350.935,371.204,343.993,371.204z"/>
<path style="fill:#D9D9D9;" d="M189.521,405.105v-21.333c0-6.941,5.628-12.569,12.569-12.569h-40.012
	c-6.941,0-12.569,5.628-12.569,12.569v21.333c0,6.941,5.628,12.569,12.569,12.569h40.012
	C195.148,417.675,189.521,412.048,189.521,405.105z"/>
<path style="fill:#00AE95;" d="M248.245,192.998c-7.521,3.218-11.009,11.929-7.801,19.454c0.103,0.24,8.835,20.973,13.405,49.206
	c0.716,0.013,1.431,0.027,2.151,0.027c9.424,0,18.587-1.133,27.367-3.257c-5.083-32.728-15.185-56.528-15.671-57.659
	C264.468,193.252,255.764,189.779,248.245,192.998z"/>
<circle style="fill:#C86D5C;" cx="255.999" cy="145.265" r="86.407"/>
<path style="fill:#B24D40;" d="M276.007,221.672c-47.723,0-86.411-38.687-86.411-86.411c0-29.81,15.097-56.094,38.061-71.626
	c-33.796,11.734-58.067,43.838-58.067,81.629c0,47.723,38.687,86.411,86.411,86.411c17.913,0,34.552-5.452,48.35-14.784
	C295.469,219.975,285.938,221.672,276.007,221.672z"/>
<path d="M206.258,130.79c-4.143,0-7.502,3.359-7.502,7.502v8.988c0,4.143,3.359,7.502,7.502,7.502c4.144,0,7.502-3.359,7.502-7.502
	v-8.988C213.76,134.149,210.401,130.79,206.258,130.79z"/>
<path d="M313.085,147.281v-8.988c0-4.143-3.359-7.502-7.502-7.502c-4.144,0-7.502,3.359-7.502,7.502v8.988
	c0,4.143,3.358,7.502,7.502,7.502C309.725,154.784,313.085,151.425,313.085,147.281z"/>
<path d="M273.115,141.007c-3.12-2.727-7.859-2.409-10.586,0.711c-1.587,1.816-3.996,2.858-6.609,2.858s-5.022-1.042-6.608-2.858
	c-2.727-3.12-7.466-3.439-10.586-0.711c-3.12,2.727-3.439,7.466-0.712,10.586c4.437,5.077,10.963,7.988,17.907,7.988
	c6.942,0,13.468-2.911,17.906-7.987C276.553,148.474,276.235,143.734,273.115,141.007z"/>
<path d="M401.265,145.186c0-6.565-3.353-12.512-8.969-15.906c-5.322-3.217-11.212-5.972-17.581-8.267
	c4.973-4.605,9.34-9.469,12.955-14.471c8.057-11.151,1.129-27.34-12.43-29.284c-5.485-0.785-11.336-1.042-17.393-0.81
	c2.481-5.529,4.42-11.034,5.758-16.463c3.278-13.311-9.186-25.756-22.482-22.482c-6.044,1.488-12.162,3.707-18.294,6.591
	c0.26-6.779-0.091-13.312-1.075-19.411c-2.181-13.522-18.519-20.122-29.48-11.911c-4.449,3.333-8.771,7.286-12.889,11.729
	c-2.153-5.655-4.669-10.911-7.557-15.69c-7.106-11.76-24.721-11.735-31.814,0c-3.217,5.322-5.971,11.211-8.266,17.581
	c-4.605-4.974-9.469-9.341-14.471-12.956c-11.203-8.095-27.337-1.163-29.284,12.43c-0.788,5.499-1.047,11.344-0.818,17.39
	c-5.526-2.479-11.028-4.418-16.455-5.754c-13.196-3.249-25.74,9.256-22.483,22.483c1.488,6.041,3.706,12.157,6.588,18.287
	c-6.486-0.248-12.996,0.047-19.409,1.081c-13.532,2.182-20.138,18.497-11.91,29.48c3.333,4.449,7.286,8.771,11.729,12.889
	c-5.655,2.153-10.912,4.669-15.689,7.557c-11.755,7.106-11.736,24.72-0.001,31.813c5.322,3.217,11.211,5.972,17.582,8.267
	c-4.974,4.605-9.341,9.469-12.956,14.471c-8.06,11.154-1.13,27.341,12.43,29.284c4.265,0.61,8.775,0.92,13.407,0.92
	c1.312,0,2.639-0.032,3.973-0.082c-2.475,5.52-4.409,11.014-5.745,16.434c-3.277,13.304,9.183,25.757,22.482,22.482
	c6.044-1.488,12.162-3.706,18.295-6.591c-0.26,6.78,0.091,13.312,1.074,19.411c2.178,13.503,18.522,20.12,29.48,11.911
	c8.921-6.682,17.339-15.815,24.585-26.522c1.664,7.74,3.166,16.551,4.034,25.903c0.991,10.67,1.087,20.766,0.308,30.275
	c-4.688-5.79-10.569-10.623-17.4-14.119c-7.606-3.891-16.114-5.948-24.607-5.948c-11.146,0-21.875,3.37-31.028,9.746
	c-2.05,1.427-3.254,3.782-3.212,6.28c0.332,20.068,11.625,38.207,29.471,47.338c7.602,3.889,16.108,5.946,24.6,5.946
	c2.546,0,5.088-0.204,7.606-0.563c-1.561,2.65-3.244,5.212-5.046,7.686h-66.882c-11.066,0-20.071,9.004-20.071,20.071v21.334
	c0,8.82,5.727,16.313,13.65,18.999l11.627,61.576C170.09,500.897,183.484,512,199.051,512h107.807
	c15.567,0,28.961-11.102,31.849-26.398l11.626-61.576c7.924-2.686,13.65-10.179,13.65-18.999v-21.334
	c0-11.067-9.004-20.071-20.071-20.071h-63.918c1.376-3.129,2.644-6.321,3.813-9.568c5.188,1.599,10.606,2.445,16.016,2.445
	c8.488,0,16.992-2.057,24.595-5.946c17.848-9.13,29.14-27.269,29.471-47.338c0.042-2.498-1.163-4.853-3.212-6.28
	c-9.152-6.376-19.881-9.746-31.028-9.746c-8.492,0-17,2.057-24.607,5.948c-0.468,0.239-0.924,0.494-1.384,0.746
	c-0.007-5.944-0.26-12.01-0.762-18.196c0.555,0.422,1.109,0.844,1.668,1.247c11.202,8.094,27.335,1.172,29.284-12.43
	c0.788-5.499,1.047-11.344,0.818-17.39c5.527,2.479,11.028,4.417,16.455,5.754c13.294,3.274,25.752-9.205,22.483-22.482
	c-1.487-6.041-3.705-12.157-6.588-18.287c6.486,0.247,12.995-0.048,19.408-1.082c6.47-1.043,11.802-5.3,14.259-11.385
	c2.459-6.085,1.58-12.85-2.35-18.095c-3.333-4.449-7.286-8.771-11.729-12.889c5.655-2.153,10.912-4.669,15.69-7.558
	C397.911,157.698,401.266,151.752,401.265,145.186z M373.112,92.111c2.56,0.374,3.986,3.442,2.396,5.643
	c-6.728,9.309-15.57,16.972-25.102,23.299c-1.051,0.698-2.121,1.38-3.202,2.052c-1.737-7.178-4.331-14.147-7.703-20.717
	c-1.318-2.569-2.744-5.091-4.293-7.527c0.288-0.073,0.576-0.145,0.865-0.216C348.064,91.696,360.831,90.316,373.112,92.111z
	 M299.943,210.643c-27.471,18.582-65.668,17.366-91.934-2.814c-25.046-19.243-36.651-53.528-28.051-83.971
	c8.888-31.461,37.108-54.044,69.526-56.917c37.714-3.343,73.841,22.345,82.97,59.173
	C340.243,157.543,326.737,192.518,299.943,210.643z M320.805,62.097c8.022-4.688,16.228-8.135,23.905-10.026
	c2.573-0.634,4.955,1.77,4.325,4.324c-1.766,7.166-4.774,14.567-8.961,22.038c-4.525,0.842-9,1.927-13.419,3.21
	c-0.424,0.123-0.849,0.237-1.272,0.364c-2.355-2.582-4.864-5.044-7.51-7.365c0.144-0.51,0.275-1.02,0.413-1.531
	C319.267,69.474,320.117,65.802,320.805,62.097z M301.269,24.779c2.114-1.583,5.251-0.314,5.671,2.292
	c1.83,11.335,0.995,23.032-1.273,34.241c-0.251,1.24-0.525,2.483-0.816,3.726c-0.45-0.275-7.811-4.345-11.177-5.833
	c-5.553-2.446-11.339-4.36-17.26-5.684c0.11-0.183,0.215-0.369,0.325-0.552c1.759-2.913,3.636-5.757,5.636-8.511
	C288.119,36.546,294.548,29.814,301.269,24.779z M243.047,40.553c2.356-8.983,5.72-17.218,9.807-23.981
	c1.359-2.25,4.748-2.287,6.13,0c3.816,6.313,6.918,13.67,9.241,21.907c-2.625,3.819-5.036,7.782-7.267,11.845
	c-0.194,0.353-0.395,0.7-0.586,1.056c-0.165-0.008-7.197-0.118-10.539,0.097c-0.26-0.464-0.529-0.92-0.794-1.381
	C247.167,46.838,245.176,43.649,243.047,40.553z M202.845,27.993c0.371-2.588,3.479-3.959,5.643-2.396
	c7.344,5.307,14.384,12.595,20.616,21.226c1.663,2.302,3.237,4.665,4.733,7.078c-7.93,1.919-15.595,4.887-22.76,8.787
	c-1.859,1.011-3.693,2.072-5.484,3.209c-0.024-0.096-1.628-7.083-2.174-10.523C201.871,45.68,201.65,36.335,202.845,27.993z
	 M172.832,80.302c-4.688-8.022-8.136-16.229-10.026-23.906c-0.632-2.568,1.765-4.955,4.323-4.324
	c7.167,1.766,14.568,4.774,22.039,8.96c0.377,2.03,0.822,4.043,1.28,6.055c0.661,2.9,1.434,5.789,2.294,8.638
	c-2.583,2.355-5.044,4.864-7.364,7.51c-0.035-0.01-7.068-1.823-10.518-2.532C174.184,80.566,173.508,80.427,172.832,80.302z
	 M135.144,96.389c0.443-1.108,1.388-2.018,2.661-2.223c9.865-1.593,19.999-1.141,29.83,0.47c2.732,0.447,5.442,0.988,8.137,1.621
	c-1.526,2.495-2.926,5.071-4.213,7.697c-3.177,6.48-7.274,20.614-7.302,20.741c-0.103-0.061-0.476-0.28-0.558-0.329
	c-10.682-6.452-20.665-14.493-28.183-24.529C134.76,98.83,134.697,97.508,135.144,96.389z M151.288,158.059
	c-8.984-2.356-17.22-5.72-23.982-9.807c-2.277-1.376-2.26-4.764,0-6.131c6.313-3.815,13.669-6.917,21.908-9.24
	c3.822,2.625,12.548,7.663,12.9,7.852c-0.13,2.562,0.036,9.594,0.097,10.539c-0.469,0.263-0.931,0.535-1.396,0.803
	C159.534,152.81,153.15,156.777,151.288,158.059z M138.728,198.261c-2.635-0.377-3.948-3.494-2.396-5.644
	c6.731-9.318,15.586-16.987,25.128-23.315c1.043-0.692,2.104-1.368,3.176-2.035c1.186,4.905,2.773,9.729,4.737,14.376
	c2.006,4.743,4.466,9.475,7.258,13.868c-0.971,0.245-1.945,0.482-2.921,0.703C162.32,198.799,150.34,199.924,138.728,198.261z
	 M191.035,228.275c-8.023,4.689-16.23,8.136-23.906,10.026c-2.567,0.632-4.952-1.778-4.324-4.324
	c1.766-7.167,4.775-14.568,8.961-22.039c0.093-0.017,0.187-0.039,0.281-0.056c4.811-0.902,9.569-2.076,14.258-3.474
	c0.051-0.015,0.102-0.028,0.152-0.043c2.355,2.582,4.865,5.044,7.51,7.364c-0.53,1.877-1.017,3.769-1.468,5.666
	C191.957,223.675,191.463,225.969,191.035,228.275z M210.57,265.592c-2.113,1.583-5.25,0.314-5.67-2.292
	c-1.442-8.947-1.269-19.081,0.428-29.592c0.454-2.81,1.012-5.603,1.663-8.374c0.454,0.278,0.918,0.535,1.376,0.804
	c8.391,4.943,17.564,8.594,27.071,10.714C228.358,248.723,219.732,258.73,210.57,265.592z M226.317,341.495h-0.002
	c-6.212,0-12.189-1.446-17.764-4.298c-11.672-5.971-19.465-17.276-21.022-30.123c5.794-3.202,12.271-4.878,18.956-4.878
	c6.214,0,12.193,1.447,17.773,4.301c8.552,4.376,15.069,11.637,18.537,20.424l-27.614-14.127c-3.689-1.888-8.209-0.427-10.096,3.262
	c-1.888,3.689-0.427,8.209,3.262,10.096l27.61,14.125C232.807,341.075,229.566,341.495,226.317,341.495z M348.979,383.694v21.334
	c0,2.794-2.273,5.067-5.067,5.067c0,0-117.873,0-117.984,0c-4.543,0-8.228,4.571-7.351,9.009c0.003,0.012,0.006,0.024,0.009,0.036
	c0.72,3.667,4.317,6.285,8.02,5.96h108.255l-10.898,57.72c-1.55,8.215-8.745,14.177-17.104,14.177H199.052
	c-8.36,0-15.554-5.962-17.105-14.177l-10.898-57.72h24.191c2.156,0,4.083-0.422,5.729-1.92c4.947-4.499,1.641-13.085-5.045-13.085
	h-33.927c-2.794,0-5.067-2.273-5.067-5.067v-21.334c0-2.794,2.273-5.067,5.067-5.067h181.915
	C346.707,378.627,348.979,380.9,348.979,383.694z M246.827,363.623c3.176-5.374,5.89-11.057,8.188-17.014
	c1.682-4.359,3.324-8.888,4.324-13.46c4.466-17.173,5.752-36.392,3.787-57.553c-1.279-13.782-3.834-26.456-6.36-36.499
	c0.142-0.001,0.284-0.01,0.426-0.012c2.411-0.033,4.831-0.373,7.235-0.373c2.352-0.212,4.677-0.511,6.976-0.894
	c0.048-0.008,0.096-0.013,0.144-0.021c2.836,11.709,4.926,23.611,6.084,35.605c2.215,22.93,0.989,46.467-5.669,68.614
	c-0.015,0.049-0.024,0.098-0.038,0.147c-2.269,7.491-5.093,14.657-8.507,21.461H246.827z M301.878,306.496
	c5.579-2.854,11.559-4.301,17.773-4.301c6.685,0,13.162,1.676,18.956,4.878c-1.556,12.847-9.35,24.152-21.022,30.123
	c-5.575,2.853-11.551,4.298-17.762,4.298c-3.241,0-6.489-0.418-9.643-1.218l27.61-14.125c3.689-1.887,5.149-6.407,3.262-10.096
	c-1.887-3.688-6.406-5.149-10.096-3.262l-19.341,9.895c0.477-3.215,0.871-6.475,1.181-9.778
	C295.49,310.359,298.535,308.206,301.878,306.496z M308.995,262.378c-0.371,2.591-3.488,3.953-5.644,2.395
	c-4.603-3.326-9.113-7.444-13.424-12.26c-0.238-1.367-0.489-2.734-0.746-4.097c-0.244-1.292-3.143-14.27-3.081-14.291
	c1.585-0.539,5.957-2.273,6.587-2.525c4.708-1.997,9.238-4.366,13.562-7.118c0.024,0.097,0.052,0.195,0.076,0.292
	c0.847,3.379,1.524,6.793,2.097,10.229C309.97,244.696,310.19,254.038,308.995,262.378z M339.009,210.07
	c4.689,8.023,8.136,16.23,10.026,23.906c0.633,2.576-1.758,4.954-4.324,4.324c-7.167-1.766-14.568-4.774-22.039-8.96
	c-0.915-4.955-2.123-9.867-3.574-14.692c2.583-2.355,5.044-4.865,7.364-7.51C326.495,207.147,334.822,209.295,339.009,210.07z
	 M376.772,194.014c-0.283,0.699-1.014,1.915-2.737,2.192c-4.041,0.651-8.37,0.982-12.87,0.982c-6.83,0-13.654-0.762-20.356-2.059
	c-1.588-0.307-3.167-0.644-4.741-1.013c0.283-0.461,0.544-0.934,0.818-1.399c4.801-8.152,8.365-17.025,10.509-26.241
	c0.032-0.14,0.161-0.67,0.189-0.797c3.106,1.859,6.142,3.84,9.072,5.968c7.909,5.745,14.638,12.172,19.67,18.89
	C377.411,191.984,377,193.451,376.772,194.014z M384.534,148.252c-6.312,3.815-13.669,6.918-21.907,9.241
	c-2.76-1.897-5.603-3.68-8.494-5.369c-1.455-0.85-2.922-1.685-4.406-2.484c0.002-0.052,0.116-5.178,0.044-7.691
	c-0.033-0.953-0.08-1.903-0.141-2.849c0.445-0.249,0.882-0.508,1.324-0.761c3.279-1.882,6.482-3.883,9.599-6.024
	c8.982,2.356,17.217,5.72,23.981,9.807C386.811,143.497,386.794,146.886,384.534,148.252z"/>
<g>
</g>
<g>
</g>
<g>
</g>
<g>
</g>
<g>
</g>
<g>
</g>
<g>
</g>
<g>
</g>
<g>
</g>
<g>
</g>
<g>
</g>
<g>
</g>
<g>
</g>
<g>
</g>
<g>
</g>
</svg>
