<?xml version="1.0" encoding="iso-8859-1"?>
<!-- Generator: Adobe Illustrator 19.0.0, SVG Export Plug-In . SVG Version: 6.00 Build 0)  -->
<svg version="1.1" id="Capa_1" xmlns="http://www.w3.org/2000/svg" xmlns:xlink="http://www.w3.org/1999/xlink" x="0px" y="0px"
	 viewBox="0 0 511.999 511.999" style="enable-background:new 0 0 511.999 511.999;" xml:space="preserve">
<rect x="238.968" y="144.8" style="fill:#00AE95;" width="34.053" height="308.124"/>
<g>
	<path style="fill:#FF5E6B;" d="M392.086,34.159c-25.714,3.373-78.797,15.422-100.121,58.069l-35.967,164.819
		c35.448,0,76.291-3.056,103.077-29.241c23.144-22.625,25.11-55.888,26.634-86.298c1.627-32.485,6.434-64.5,16.265-95.446
		C404.013,39.645,398.761,33.283,392.086,34.159z"/>
	<path style="fill:#FF5E6B;" d="M220.032,92.228c-21.324-42.647-74.406-54.697-100.121-58.069
		c-6.675-0.875-11.927,5.487-9.889,11.903c9.83,30.946,14.637,62.96,16.265,95.446c1.523,30.409,3.49,63.673,26.634,86.298
		c26.786,26.185,67.629,29.241,103.077,29.241L220.032,92.228z"/>
</g>
<g>
	<path style="fill:#E63E4C;" d="M359.077,227.804c18.536-18.12,23.485-43.066,25.504-67.903
		c-3.508-37.47-18.837-77.215-42.941-111.993c-19.59,8.739-38.778,22.528-49.674,44.318l-35.967,164.82
		C291.447,257.047,332.29,253.99,359.077,227.804z"/>
	<path style="fill:#E63E4C;" d="M127.418,159.902c2.019,24.837,6.969,49.782,25.504,67.902
		c26.786,26.185,67.629,29.241,103.077,29.241L220.033,92.228c-10.895-21.791-30.082-35.581-49.673-44.318
		C146.255,82.687,130.925,122.432,127.418,159.902z"/>
</g>
<path style="fill:#FF5E6B;" d="M264.248,10.864c-4.921-3.522-11.576-3.522-16.497,0C143.518,85.456,107,267.438,255.999,267.438
	S368.48,85.456,264.248,10.864z"/>
<path style="fill:#009983;" d="M273.027,363.381c-6.309,6.375-12,13.402-17.027,21.057c-5.028-7.655-10.719-14.681-17.028-21.057
	v89.547h34.056V363.381z"/>
<path style="fill:#00AE95;" d="M254.355,504.497c181.566,10.59,161.896-91.516,200.165-145.914c0,0-75.57-36.014-144.199,6.788
	S254.355,504.497,254.355,504.497z"/>
<path style="fill:#2FC8B4;" d="M257.643,504.497C76.077,515.086,95.748,412.981,57.479,358.582c0,0,75.57-36.014,144.199,6.788
	S257.643,504.497,257.643,504.497z"/>
<path d="M196.841,138.309c-4.142,0-7.501,3.357-7.501,7.501v10.706c0,4.142,3.358,7.501,7.501,7.501s7.501-3.358,7.501-7.501
	v-10.706C204.341,141.666,200.983,138.309,196.841,138.309z"/>
<path d="M315.148,164.016c4.142,0,7.501-3.358,7.501-7.501v-10.706c0-4.143-3.358-7.501-7.501-7.501
	c-4.142,0-7.501,3.357-7.501,7.501v10.706C307.647,160.656,311.005,164.016,315.148,164.016z"/>
<path d="M255.994,169.73c7.855,0,15.234-3.289,20.248-9.024c2.726-3.118,2.408-7.857-0.711-10.583
	c-3.118-2.726-7.857-2.409-10.584,0.71c-2.164,2.475-5.426,3.895-8.953,3.895c-3.526,0-6.789-1.42-8.953-3.895
	c-2.726-3.119-7.465-3.437-10.584-0.71c-3.119,2.726-3.437,7.465-0.711,10.583C240.76,166.441,248.139,169.73,255.994,169.73z"/>
<path d="M457.741,351.05c-1.276-0.608-31.728-14.899-72.064-14.899c-29.133,0-55.824,7.434-79.331,22.093
	c-9.709,6.054-18.337,13.437-25.825,22.033v-107.91c17.704-2.737,32.914-8.568,45.278-17.267
	c15.351-5.089,28.309-12.717,38.514-22.692c25.561-24.987,27.402-61.748,28.881-91.285c1.738-34.692,6.947-65.293,15.922-93.55
	c3.571-11.243-5.959-23.193-18.012-21.611c-17.061,2.237-48.151,8.567-73.7,26.112c-14.035-18.649-30.579-35.031-48.799-48.07
	c-7.462-5.34-17.772-5.335-25.228,0c-18.219,13.039-34.764,29.42-48.799,48.07c-25.548-17.544-56.637-23.874-73.699-26.112
	c-11.887-1.56-21.625,10.237-18.012,21.609c8.976,28.258,14.184,58.858,15.922,93.551c1.479,29.537,3.32,66.298,28.881,91.286
	c10.205,9.975,23.162,17.601,38.514,22.691c12.364,8.7,27.574,14.53,45.278,17.267v107.936c-7.494-8.61-16.121-16.006-25.825-22.058
	c-23.507-14.66-50.197-22.093-79.331-22.093c-40.328,0-70.775,14.285-72.062,14.899c-4.007,1.91-5.581,7.288-2.908,11.087
	c8.531,12.126,14.118,27.108,20.034,42.971c9.005,24.148,19.211,51.517,42.353,72.186c26.146,23.353,65.006,34.705,118.803,34.705
	c7.465,0,15.345-0.231,23.435-0.667c8.092,0.438,15.993,0.663,23.514,0.663c53.786,0,92.645-11.351,118.787-34.698
	c23.143-20.669,33.349-48.039,42.353-72.188c5.915-15.863,11.503-30.846,20.033-42.972
	C463.286,358.389,461.868,353.016,457.741,351.05z M393.056,40.833c1.228-0.16,2.125,1.06,1.764,2.195
	c-9.372,29.503-14.804,61.345-16.607,97.341c-1.418,28.325-3.026,60.43-24.385,81.309c-0.183,0.178-0.366,0.355-0.551,0.532
	c1.645-3.521,3.091-7.21,4.328-11.063c9.879-30.78,5.893-69.578-11.224-109.245c-5.662-13.122-12.508-25.726-20.336-37.583
	C348.968,48.622,377.411,42.885,393.056,40.833z M252.11,16.201c2.308-1.651,5.457-1.653,7.768,0
	c41.171,29.469,72.411,75.772,83.836,125.134c5.559,24.018,5.537,46.755-0.392,65.23c-10.335,32.198-39.468,48.589-71.666,51.843
	c-10.213,1.032-20.961,1.046-31.324,0c-32.214-3.255-61.35-19.701-71.666-51.843c-5.929-18.474-5.951-41.209-0.392-65.228
	C179.673,92.085,211.061,45.578,252.11,16.201z M133.775,140.37c-1.803-35.997-7.236-67.837-16.608-97.342
	c-0.36-1.132,0.566-2.348,1.764-2.195c15.645,2.052,44.088,7.789,67.01,23.488c-7.829,11.857-14.673,24.46-20.336,37.583
	c-17.117,39.668-21.103,78.465-11.224,109.245c1.237,3.853,2.683,7.541,4.328,11.062c-0.184-0.176-0.368-0.353-0.55-0.531
	C136.801,200.8,135.193,168.696,133.775,140.37z M246.466,401.75V273.926c1.333,0.071,2.684,0.12,4.039,0.16
	c3.647,0.109,7.33,0.203,10.975,0c1.355-0.041,2.707-0.089,4.039-0.16v127.822c-1.276,2.317-2.469,4.711-3.625,7.141
	c-2.132,4.484-5.839,14.102-5.901,14.279c-0.203-0.578-0.43-1.136-0.639-1.709C252.874,414.686,249.948,408.069,246.466,401.75z
	 M85.427,399.867c-5.091-13.654-9.955-26.693-16.776-38.458c11.001-3.976,32.38-10.257,57.659-10.257
	c26.284,0,50.304,6.668,71.392,19.82c28.926,18.04,44.855,49.35,50.582,82.169c1.064,6.1,1.804,12.257,2.249,18.433
	c-3.051-5.362-6.622-11.175-10.747-17.205c-22.604-33.039-51.167-56.676-82.601-68.358c-3.882-1.443-8.201,0.536-9.644,4.418
	c-1.443,3.883,0.535,8.201,4.418,9.644c54.727,20.338,84.46,74.614,94.59,96.67c-4.802,0.168-9.493,0.255-14.022,0.255
	C121.65,496.998,103.235,447.619,85.427,399.867z M426.561,399.868c-17.806,47.751-36.214,97.127-147.108,97.125
	c-4.429,0-9.011-0.081-13.695-0.241c0.017-0.29,0.033-0.58,0.05-0.885c10.656-23.093,40.086-75.677,94.221-95.794
	c3.883-1.442,5.861-5.76,4.418-9.644c-1.443-3.883-5.76-5.86-9.644-4.418c-44.175,16.416-73.089,52.026-89.721,79.414
	c-0.365-3.741-0.853-7.652-1.487-11.685c0.012-0.069,0.025-0.14,0.037-0.209c0.006-0.03,0.014-0.059,0.02-0.089
	c5.7-32.875,21.652-64.395,50.634-82.469c21.089-13.152,45.108-19.82,71.392-19.82c25.28,0,46.663,6.281,57.659,10.257
	C436.515,373.174,431.652,386.213,426.561,399.868z"/>
<g>
</g>
<g>
</g>
<g>
</g>
<g>
</g>
<g>
</g>
<g>
</g>
<g>
</g>
<g>
</g>
<g>
</g>
<g>
</g>
<g>
</g>
<g>
</g>
<g>
</g>
<g>
</g>
<g>
</g>
</svg>
